FrancoisOne.ufo
<glyph name="quotedbl" format="1">
  <advance width="836"/>
  <unicode hex="0022"/>
  <outline>
    <contour>
      <point x="82" y="1536" type="line"/>
      <point x="130" y="948" type="line"/>
      <point x="322" y="960" type="line"/>
      <point x="370" y="1536" type="line"/>
    </contour>
    <contour>
      <point x="466" y="1536" type="line"/>
      <point x="514" y="948" type="line"/>
      <point x="706" y="960" type="line"/>
      <point x="754" y="1536" type="line"/>
    </contour>
  </outline>
</glyph>
<glyph name="numbersign" format="1">
  <advance width="1283"/>
  <unicode hex="0023"/>
  <outline>
    <contour>
      <point x="112" y="1198" type="line"/>
      <point x="319" y="1198" type="line"/>
      <point x="364" y="1536" type="line"/>
      <point x="664" y="1536" type="line"/>
      <point x="619" y="1198" type="line"/>
      <point x="805" y="1198" type="line"/>
      <point x="850" y="1536" type="line"/>
      <point x="1150" y="1536" type="line"/>
      <point x="1105" y="1198" type="line"/>
      <point x="1219" y="1198" type="line"/>
      <point x="1219" y="960" type="line"/>
      <point x="1074" y="960" type="line"/>
      <point x="1030" y="622" type="line"/>
      <point x="1171" y="622" type="line"/>
      <point x="1171" y="384" type="line"/>
      <point x="999" y="384" type="line"/>
      <point x="949" y="0" type="line"/>
      <point x="649" y="0" type="line"/>
      <point x="699" y="384" type="line"/>
      <point x="513" y="384" type="line"/>
      <point x="463" y="0" type="line"/>
      <point x="163" y="0" type="line"/>
      <point x="213" y="384" type="line"/>
      <point x="64" y="384" type="line"/>
      <point x="64" y="622" type="line"/>
      <point x="244" y="622" type="line"/>
      <point x="288" y="960" type="line"/>
      <point x="112" y="960" type="line"/>
    </contour>
    <contour>
      <point x="544" y="622" type="line"/>
      <point x="730" y="622" type="line"/>
      <point x="774" y="960" type="line"/>
      <point x="588" y="960" type="line"/>
    </contour>
  </outline>
</glyph>
<glyph name="dollar" format="1">
  <advance width="1040"/>
  <unicode hex="0024"/>
  <outline>
    <contour>
      <point x="458" y="29" type="line"/>
      <point x="380" y="38"/>
      <point x="250" y="103"/>
      <point x="148" y="204"/>
      <point x="72" y="335"/>
      <point x="48" y="410" type="qcurve"/>
      <point x="272" y="529" type="line"/>
      <point x="289" y="501"/>
      <point x="327" y="436"/>
      <point x="372" y="374"/>
      <point x="425" y="319"/>
      <point x="458" y="302" type="qcurve"/>
      <point x="458" y="657" type="line"/>
      <point x="311" y="744" type="line"/>
      <point x="261" y="774"/>
      <point x="178" y="842"/>
      <point x="118" y="924"/>
      <point x="85" y="1019"/>
      <point x="85" y="1076" type="qcurve"/>
      <point x="85" y="1161"/>
      <point x="141" y="1307"/>
      <point x="240" y="1418"/>
      <point x="377" y="1489"/>
      <point x="458" y="1501" type="qcurve"/>
      <point x="458" y="1632" type="line"/>
      <point x="602" y="1632" type="line"/>
      <point x="602" y="1501" type="line"/>
      <point x="724" y="1484"/>
      <point x="899" y="1328"/>
      <point x="943" y="1194" type="qcurve"/>
      <point x="709" y="1079" type="line"/>
      <point x="697" y="1105"/>
      <point x="674" y="1155"/>
      <point x="650" y="1198"/>
      <point x="621" y="1233"/>
      <point x="602" y="1245" type="qcurve"/>
      <point x="602" y="899" type="line"/>
      <point x="719" y="831" type="line"/>
      <point x="801" y="783"/>
      <point x="904" y="688"/>
      <point x="963" y="598"/>
      <point x="986" y="515"/>
      <point x="988" y="481" type="qcurve"/>
      <point x="988" y="389"/>
      <point x="930" y="236"/>
      <point x="827" y="120"/>
      <point x="686" y="45"/>
      <point x="602" y="32" type="qcurve"/>
      <point x="602" y="-96" type="line"/>
      <point x="458" y="-96" type="line"/>
    </contour>
    <contour>
      <point x="377" y="1107" type="qcurve"/>
      <point x="377" y="1066"/>
      <point x="427" y="1004"/>
      <point x="458" y="984" type="qcurve"/>
      <point x="458" y="1255" type="line"/>
      <point x="416" y="1237"/>
      <point x="377" y="1156"/>
    </contour>
    <contour>
      <point x="682" y="434" type="qcurve"/>
      <point x="682" y="479"/>
      <point x="636" y="546"/>
      <point x="602" y="571" type="qcurve"/>
      <point x="602" y="296" type="line"/>
      <point x="637" y="315"/>
      <point x="682" y="390"/>
    </contour>
  </outline>
</glyph>
<glyph name="ampersand" format="1">
  <advance width="1275"/>
  <unicode hex="0026"/>
  <outline>
    <contour>
      <point x="39" y="375" type="qcurve"/>
      <point x="39" y="452"/>
      <point x="92" y="583"/>
      <point x="176" y="693"/>
      <point x="281" y="781"/>
      <point x="332" y="815" type="qcurve"/>
      <point x="293" y="870"/>
      <point x="262" y="932" type="qcurve"/>
      <point x="236" y="986"/>
      <point x="193" y="1122"/>
      <point x="193" y="1196" type="qcurve"/>
      <point x="193" y="1277"/>
      <point x="252" y="1407"/>
      <point x="354" y="1498"/>
      <point x="491" y="1546"/>
      <point x="569" y="1546" type="qcurve"/>
      <point x="644" y="1546"/>
      <point x="774" y="1503"/>
      <point x="872" y="1419"/>
      <point x="928" y="1295"/>
      <point x="928" y="1214" type="qcurve"/>
      <point x="928" y="1151"/>
      <point x="879" y="1035"/>
      <point x="802" y="934"/>
      <point x="708" y="850"/>
      <point x="663" y="819" type="qcurve"/>
      <point x="850" y="531" type="line"/>
      <point x="870" y="576"/>
      <point x="888" y="625" type="qcurve"/>
      <point x="904" y="667"/>
      <point x="937" y="772"/>
      <point x="948" y="825" type="qcurve"/>
      <point x="1175" y="754" type="line"/>
      <point x="1157" y="673"/>
      <point x="1099" y="528"/>
      <point x="1071" y="473" type="qcurve"/>
      <point x="1038" y="409"/>
      <point x="1003" y="353" type="qcurve"/>
      <point x="1048" y="308"/>
      <point x="1152" y="253"/>
      <point x="1227" y="244" type="qcurve"/>
      <point x="1227" y="-14" type="line"/>
      <point x="1139" y="-14"/>
      <point x="1026" y="8"/>
      <point x="945" y="51"/>
      <point x="880" y="113"/>
      <point x="840" y="153" type="qcurve"/>
      <point x="800" y="117"/>
      <point x="708" y="52"/>
      <point x="602" y="2"/>
      <point x="479" y="-28"/>
      <point x="409" y="-28" type="qcurve"/>
      <point x="332" y="-28"/>
      <point x="198" y="32"/>
      <point x="97" y="139"/>
      <point x="39" y="287"/>
    </contour>
    <contour>
      <point x="443" y="646" type="qcurve"/>
      <point x="411" y="625"/>
      <point x="363" y="570"/>
      <point x="331" y="508"/>
      <point x="314" y="442"/>
      <point x="314" y="411" type="qcurve"/>
      <point x="314" y="376"/>
      <point x="336" y="312"/>
      <point x="380" y="264"/>
      <point x="448" y="236"/>
      <point x="495" y="236" type="qcurve"/>
      <point x="536" y="236"/>
      <point x="610" y="258"/>
      <point x="638" y="272" type="qcurve"/>
      <point x="671" y="288"/>
      <point x="699" y="309" type="qcurve"/>
      <point x="654" y="367"/>
      <point x="585" y="458"/>
      <point x="532" y="527"/>
      <point x="495" y="577"/>
      <point x="482" y="594" type="qcurve"/>
      <point x="452" y="634"/>
    </contour>
    <contour>
      <point x="555" y="971" type="qcurve"/>
      <point x="555" y="972"/>
      <point x="574" y="996"/>
      <point x="602" y="1036"/>
      <point x="636" y="1087"/>
      <point x="664" y="1143"/>
      <point x="683" y="1200"/>
      <point x="683" y="1227" type="qcurve"/>
      <point x="683" y="1256"/>
      <point x="662" y="1301"/>
      <point x="628" y="1331"/>
      <point x="586" y="1346"/>
      <point x="565" y="1346" type="qcurve"/>
      <point x="545" y="1346"/>
      <point x="505" y="1328"/>
      <point x="474" y="1297"/>
      <point x="454" y="1257"/>
      <point x="454" y="1235" type="qcurve"/>
      <point x="454" y="1207"/>
      <point x="465" y="1158"/>
      <point x="489" y="1099"/>
      <point x="528" y="1024"/>
    </contour>
  </outline>
</glyph>
<glyph name="parenleft" format="1">
  <advance width="682"/>
  <unicode hex="0028"/>
  <outline>
    <contour>
      <point x="627" y="-76" type="line"/>
      <point x="531" y="-68"/>
      <point x="374" y="5"/>
      <point x="248" y="121"/>
      <point x="155" y="275"/>
      <point x="93" y="452"/>
      <point x="62" y="646"/>
      <point x="62" y="745" type="qcurve"/>
      <point x="62" y="846"/>
      <point x="94" y="1044"/>
      <point x="157" y="1224"/>
      <point x="252" y="1378"/>
      <point x="377" y="1492"/>
      <point x="533" y="1560"/>
      <point x="627" y="1563" type="qcurve"/>
      <point x="627" y="1380" type="line"/>
      <point x="558" y="1367"/>
      <point x="454" y="1249"/>
      <point x="385" y="1074"/>
      <point x="350" y="857"/>
      <point x="350" y="745" type="qcurve"/>
      <point x="350" y="629"/>
      <point x="385" y="407"/>
      <point x="454" y="231"/>
      <point x="558" y="119"/>
      <point x="627" y="113" type="qcurve"/>
    </contour>
  </outline>
</glyph>
<glyph name="parenright" format="1">
  <advance width="683"/>
  <unicode hex="0029"/>
  <outline>
    <contour>
      <point x="56" y="113" type="line"/>
      <point x="125" y="119"/>
      <point x="229" y="231"/>
      <point x="298" y="407"/>
      <point x="333" y="629"/>
      <point x="333" y="745" type="qcurve"/>
      <point x="333" y="857"/>
      <point x="298" y="1074"/>
      <point x="229" y="1249"/>
      <point x="125" y="1367"/>
      <point x="56" y="1380" type="qcurve"/>
      <point x="56" y="1563" type="line"/>
      <point x="149" y="1560"/>
      <point x="306" y="1492"/>
      <point x="431" y="1378"/>
      <point x="526" y="1224"/>
      <point x="589" y="1044"/>
      <point x="621" y="846"/>
      <point x="621" y="745" type="qcurve"/>
      <point x="621" y="646"/>
      <point x="590" y="452"/>
      <point x="528" y="275"/>
      <point x="435" y="121"/>
      <point x="309" y="5"/>
      <point x="151" y="-68"/>
      <point x="56" y="-76" type="qcurve"/>
    </contour>
  </outline>
</glyph>
<glyph name="asterisk" format="1">
  <advance width="1051"/>
  <unicode hex="002A"/>
  <outline>
    <contour>
      <point x="395" y="1392" type="line"/>
      <point x="446" y="1030" type="line"/>
      <point x="130" y="1182" type="line"/>
      <point x="50" y="909" type="line"/>
      <point x="400" y="855" type="line"/>
      <point x="138" y="595" type="line"/>
      <point x="365" y="428" type="line"/>
      <point x="526" y="748" type="line"/>
      <point x="687" y="428" type="line"/>
      <point x="914" y="595" type="line"/>
      <point x="652" y="855" type="line"/>
      <point x="1002" y="909" type="line"/>
      <point x="922" y="1182" type="line"/>
      <point x="606" y="1030" type="line"/>
      <point x="657" y="1392" type="line"/>
    </contour>
  </outline>
</glyph>
<glyph name="plus" format="1">
  <advance width="855"/>
  <unicode hex="002B"/>
  <outline>
    <contour>
      <point x="546" y="260" type="line"/>
      <point x="546" y="20" type="line"/>
      <point x="308" y="20" type="line"/>
      <point x="308" y="260" type="line"/>
      <point x="68" y="260" type="line"/>
      <point x="68" y="498" type="line"/>
      <point x="308" y="498" type="line"/>
      <point x="308" y="738" type="line"/>
      <point x="546" y="738" type="line"/>
      <point x="546" y="498" type="line"/>
      <point x="786" y="498" type="line"/>
      <point x="786" y="260" type="line"/>
    </contour>
  </outline>
</glyph>
<glyph name="comma" format="1">
  <advance width="488"/>
  <unicode hex="002C"/>
  <outline>
    <contour>
      <point x="387" y="288" type="line"/>
      <point x="387" y="0" type="line"/>
      <point x="387" y="-54"/>
      <point x="366" y="-136"/>
      <point x="333" y="-197"/>
      <point x="289" y="-239"/>
      <point x="267" y="-252" type="qcurve"/>
      <point x="214" y="-284"/>
      <point x="147" y="-288" type="qcurve"/>
      <point x="147" y="-96" type="line"/>
      <point x="183" y="-96"/>
      <point x="222" y="-66"/>
      <point x="231" y="-48" type="qcurve"/>
      <point x="242" y="-27"/>
      <point x="243" y="0" type="qcurve"/>
      <point x="99" y="0" type="line"/>
      <point x="99" y="288" type="line"/>
    </contour>
  </outline>
</glyph>
<glyph name="period" format="1">
  <advance width="489"/>
  <unicode hex="002E"/>
  <outline>
    <contour>
      <point x="102" y="288" type="line"/>
      <point x="102" y="-12" type="line"/>
      <point x="390" y="12" type="line"/>
      <point x="390" y="288" type="line"/>
    </contour>
  </outline>
</glyph>
<glyph name="slash" format="1">
  <advance width="628"/>
  <unicode hex="002F"/>
  <outline>
    <contour>
      <point x="64" y="0" type="line"/>
      <point x="364" y="0" type="line"/>
      <point x="565" y="1536" type="line"/>
      <point x="265" y="1536" type="line"/>
    </contour>
  </outline>
</glyph>
<glyph name="zero" format="1">
  <advance width="1138"/>
  <unicode hex="0030"/>
  <outline>
    <contour>
      <point x="568" y="-27" type="qcurve"/>
      <point x="467" y="-27"/>
      <point x="319" y="43"/>
      <point x="215" y="163"/>
      <point x="149" y="323"/>
      <point x="112" y="504"/>
      <point x="97" y="695"/>
      <point x="97" y="786" type="qcurve"/>
      <point x="97" y="869"/>
      <point x="112" y="1046"/>
      <point x="150" y="1215"/>
      <point x="217" y="1366"/>
      <point x="321" y="1480"/>
      <point x="468" y="1546"/>
      <point x="568" y="1546" type="qcurve"/>
      <point x="667" y="1546"/>
      <point x="815" y="1480"/>
      <point x="920" y="1366"/>
      <point x="988" y="1215"/>
      <point x="1027" y="1046"/>
      <point x="1042" y="869"/>
      <point x="1042" y="786" type="qcurve"/>
      <point x="1041" y="695"/>
      <point x="1026" y="504"/>
      <point x="988" y="323"/>
      <point x="921" y="163"/>
      <point x="816" y="43"/>
      <point x="668" y="-27"/>
    </contour>
    <contour>
      <point x="568" y="228" type="qcurve"/>
      <point x="596" y="228"/>
      <point x="645" y="244"/>
      <point x="687" y="288"/>
      <point x="719" y="366"/>
      <point x="742" y="490"/>
      <point x="754" y="666"/>
      <point x="754" y="786" type="qcurve"/>
      <point x="754" y="900"/>
      <point x="745" y="1091"/>
      <point x="707" y="1230"/>
      <point x="633" y="1308"/>
      <point x="568" y="1308" type="qcurve"/>
      <point x="502" y="1308"/>
      <point x="428" y="1230"/>
      <point x="393" y="1091"/>
      <point x="386" y="900"/>
      <point x="386" y="786" type="qcurve"/>
      <point x="386" y="666"/>
      <point x="397" y="490"/>
      <point x="419" y="366"/>
      <point x="451" y="288"/>
      <point x="491" y="244"/>
      <point x="540" y="228"/>
    </contour>
  </outline>
</glyph>
<glyph name="one" format="1">
  <advance width="820"/>
  <unicode hex="0031"/>
  <outline>
    <contour>
      <point x="96" y="251" type="line"/>
      <point x="293" y="251" type="line"/>
      <point x="293" y="1132" type="line"/>
      <point x="256" y="1128"/>
      <point x="222" y="1124" type="qcurve"/>
      <point x="193" y="1121"/>
      <point x="129" y="1116"/>
      <point x="109" y="1116" type="qcurve"/>
      <point x="83" y="1116" type="line"/>
      <point x="83" y="1331" type="line"/>
      <point x="432" y="1536" type="line"/>
      <point x="581" y="1536" type="line"/>
      <point x="581" y="251" type="line"/>
      <point x="780" y="251" type="line"/>
      <point x="768" y="0" type="line"/>
      <point x="96" y="0" type="line"/>
    </contour>
  </outline>
</glyph>
<glyph name="two" format="1">
  <advance width="1033"/>
  <unicode hex="0032"/>
  <outline>
    <contour>
      <point x="95" y="1148" type="line"/>
      <point x="110" y="1224"/>
      <point x="184" y="1362"/>
      <point x="298" y="1466"/>
      <point x="448" y="1528"/>
      <point x="538" y="1528" type="qcurve"/>
      <point x="623" y="1528"/>
      <point x="775" y="1481"/>
      <point x="887" y="1386"/>
      <point x="953" y="1245"/>
      <point x="953" y="1152" type="qcurve"/>
      <point x="953" y="1070"/>
      <point x="905" y="907"/>
      <point x="823" y="747"/>
      <point x="713" y="593"/>
      <point x="590" y="447"/>
      <point x="459" y="312"/>
      <point x="397" y="252" type="qcurve"/>
      <point x="927" y="252" type="line"/>
      <point x="927" y="214"/>
      <point x="919" y="154"/>
      <point x="910" y="97"/>
      <point x="903" y="37"/>
      <point x="903" y="0" type="qcurve"/>
      <point x="64" y="0" type="line"/>
      <point x="64" y="223" type="line"/>
      <point x="121" y="297"/>
      <point x="253" y="449"/>
      <point x="383" y="603"/>
      <point x="505" y="761"/>
      <point x="597" y="919"/>
      <point x="653" y="1077"/>
      <point x="653" y="1156" type="qcurve"/>
      <point x="653" y="1184"/>
      <point x="636" y="1236"/>
      <point x="605" y="1274"/>
      <point x="558" y="1297"/>
      <point x="528" y="1297" type="qcurve"/>
      <point x="499" y="1297"/>
      <point x="452" y="1277"/>
      <point x="415" y="1245"/>
      <point x="387" y="1204"/>
      <point x="377" y="1183" type="qcurve"/>
      <point x="352" y="1133"/>
      <point x="341" y="1070" type="qcurve"/>
    </contour>
  </outline>
</glyph>
<glyph name="three" format="1">
  <advance width="1039"/>
  <unicode hex="0033"/>
  <outline>
    <contour>
      <point x="91" y="1241" type="line"/>
      <point x="131" y="1319"/>
      <point x="221" y="1430"/>
      <point x="326" y="1501"/>
      <point x="448" y="1534"/>
      <point x="522" y="1534" type="qcurve"/>
      <point x="598" y="1534"/>
      <point x="742" y="1485"/>
      <point x="855" y="1390"/>
      <point x="923" y="1248"/>
      <point x="923" y="1155" type="qcurve"/>
      <point x="923" y="1123"/>
      <point x="911" y="1033"/>
      <point x="863" y="935"/>
      <point x="769" y="839"/>
      <point x="687" y="801" type="qcurve"/>
      <point x="748" y="778"/>
      <point x="844" y="713"/>
      <point x="910" y="622"/>
      <point x="944" y="503"/>
      <point x="944" y="428" type="qcurve"/>
      <point x="944" y="318"/>
      <point x="874" y="149"/>
      <point x="754" y="34"/>
      <point x="594" y="-25"/>
      <point x="504" y="-25" type="qcurve"/>
      <point x="425" y="-25"/>
      <point x="275" y="16"/>
      <point x="149" y="100"/>
      <point x="57" y="227"/>
      <point x="36" y="313" type="qcurve"/>
      <point x="254" y="408" type="line"/>
      <point x="268" y="374"/>
      <point x="303" y="312"/>
      <point x="356" y="264"/>
      <point x="431" y="236"/>
      <point x="485" y="236" type="qcurve"/>
      <point x="524" y="236"/>
      <point x="586" y="267"/>
      <point x="631" y="319"/>
      <point x="655" y="387"/>
      <point x="655" y="424" type="qcurve"/>
      <point x="655" y="503"/>
      <point x="603" y="600"/>
      <point x="515" y="652"/>
      <point x="397" y="669"/>
      <point x="330" y="669" type="qcurve"/>
      <point x="330" y="899" type="line"/>
      <point x="392" y="899"/>
      <point x="502" y="916"/>
      <point x="585" y="964"/>
      <point x="633" y="1048"/>
      <point x="633" y="1116" type="qcurve"/>
      <point x="633" y="1149"/>
      <point x="615" y="1210"/>
      <point x="579" y="1256"/>
      <point x="525" y="1284"/>
      <point x="489" y="1284" type="qcurve"/>
      <point x="439" y="1284"/>
      <point x="368" y="1234"/>
      <point x="344" y="1204" type="qcurve"/>
      <point x="316" y="1169"/>
      <point x="297" y="1124" type="qcurve"/>
    </contour>
  </outline>
</glyph>
<glyph name="four" format="1">
  <advance width="1087"/>
  <unicode hex="0034"/>
  <outline>
    <contour>
      <point x="568" y="384" type="line"/>
      <point x="45" y="384" type="line"/>
      <point x="45" y="614" type="line"/>
      <point x="555" y="1536" type="line"/>
      <point x="856" y="1536" type="line"/>
      <point x="856" y="614" type="line"/>
      <point x="1048" y="614" type="line"/>
      <point x="1024" y="384" type="line"/>
      <point x="856" y="384" type="line"/>
      <point x="856" y="12" type="line"/>
      <point x="568" y="-12" type="line"/>
    </contour>
    <contour>
      <point x="568" y="614" type="line"/>
      <point x="568" y="1153" type="line"/>
      <point x="283" y="614" type="line"/>
    </contour>
  </outline>
</glyph>
<glyph name="five" format="1">
  <advance width="1053"/>
  <unicode hex="0035"/>
  <outline>
    <contour>
      <point x="309" y="434" type="line"/>
      <point x="320" y="379"/>
      <point x="345" y="336" type="qcurve"/>
      <point x="355" y="318"/>
      <point x="383" y="283"/>
      <point x="420" y="256"/>
      <point x="466" y="239"/>
      <point x="495" y="239" type="qcurve"/>
      <point x="546" y="239"/>
      <point x="618" y="274"/>
      <point x="664" y="340"/>
      <point x="685" y="434"/>
      <point x="685" y="493" type="qcurve"/>
      <point x="685" y="538"/>
      <point x="663" y="630"/>
      <point x="618" y="703"/>
      <point x="550" y="749"/>
      <point x="503" y="749" type="qcurve"/>
      <point x="449" y="749"/>
      <point x="352" y="687"/>
      <point x="315" y="642" type="qcurve"/>
      <point x="101" y="731" type="line"/>
      <point x="167" y="1536" type="line"/>
      <point x="922" y="1536" type="line"/>
      <point x="898" y="1296" type="line"/>
      <point x="417" y="1296" type="line"/>
      <point x="384" y="938" type="line"/>
      <point x="411" y="949"/>
      <point x="443" y="958" type="qcurve"/>
      <point x="470" y="966"/>
      <point x="542" y="979"/>
      <point x="583" y="979" type="qcurve"/>
      <point x="585" y="979" type="line"/>
      <point x="671" y="979"/>
      <point x="817" y="902"/>
      <point x="923" y="770"/>
      <point x="983" y="595"/>
      <point x="983" y="498" type="qcurve"/>
      <point x="983" y="384"/>
      <point x="914" y="192"/>
      <point x="791" y="53"/>
      <point x="622" y="-25"/>
      <point x="522" y="-25" type="qcurve"/>
      <point x="445" y="-25"/>
      <point x="302" y="24"/>
      <point x="183" y="119"/>
      <point x="97" y="258"/>
      <point x="78" y="348" type="qcurve"/>
    </contour>
  </outline>
</glyph>
<glyph name="six" format="1">
  <advance width="1039"/>
  <unicode hex="0036"/>
  <outline>
    <contour>
      <point x="93" y="774" type="qcurve"/>
      <point x="93" y="855"/>
      <point x="116" y="1033"/>
      <point x="166" y="1205"/>
      <point x="244" y="1360"/>
      <point x="352" y="1477"/>
      <point x="493" y="1546"/>
      <point x="581" y="1546" type="qcurve"/>
      <point x="645" y="1546"/>
      <point x="760" y="1497"/>
      <point x="851" y="1402"/>
      <point x="913" y="1264"/>
      <point x="925" y="1174" type="qcurve"/>
      <point x="701" y="1122" type="line"/>
      <point x="695" y="1150"/>
      <point x="680" y="1215"/>
      <point x="651" y="1270"/>
      <point x="602" y="1306"/>
      <point x="562" y="1306" type="qcurve"/>
      <point x="521" y="1306"/>
      <point x="463" y="1261"/>
      <point x="425" y="1187"/>
      <point x="402" y="1092"/>
      <point x="390" y="992"/>
      <point x="386" y="895"/>
      <point x="386" y="856" type="qcurve"/>
      <point x="433" y="891"/>
      <point x="560" y="934"/>
      <point x="622" y="934" type="qcurve"/>
      <point x="701" y="934"/>
      <point x="829" y="864"/>
      <point x="918" y="747"/>
      <point x="966" y="594"/>
      <point x="966" y="512" type="qcurve"/>
      <point x="966" y="408"/>
      <point x="904" y="214"/>
      <point x="791" y="64"/>
      <point x="633" y="-27"/>
      <point x="538" y="-27" type="qcurve"/>
      <point x="444" y="-27"/>
      <point x="305" y="39"/>
      <point x="207" y="154"/>
      <point x="143" y="310"/>
      <point x="107" y="488"/>
      <point x="93" y="680"/>
    </contour>
    <contour>
      <point x="386" y="608" type="qcurve"/>
      <point x="386" y="576"/>
      <point x="386" y="496"/>
      <point x="392" y="412"/>
      <point x="407" y="332"/>
      <point x="438" y="269"/>
      <point x="488" y="230"/>
      <point x="525" y="230" type="qcurve"/>
      <point x="571" y="230"/>
      <point x="630" y="279"/>
      <point x="664" y="353"/>
      <point x="677" y="439"/>
      <point x="677" y="477" type="qcurve"/>
      <point x="677" y="516"/>
      <point x="661" y="592"/>
      <point x="625" y="654"/>
      <point x="565" y="692"/>
      <point x="521" y="692" type="qcurve"/>
      <point x="494" y="692"/>
      <point x="445" y="678"/>
      <point x="427" y="670" type="qcurve"/>
      <point x="406" y="660"/>
      <point x="388" y="649" type="qcurve"/>
      <point x="387" y="641"/>
      <point x="387" y="633" type="qcurve"/>
      <point x="386" y="626"/>
      <point x="386" y="613"/>
    </contour>
  </outline>
</glyph>
<glyph name="seven" format="1">
  <advance width="923"/>
  <unicode hex="0037"/>
  <outline>
    <contour>
      <point x="161" y="0" type="line"/>
      <point x="174" y="151"/>
      <point x="250" y="462"/>
      <point x="361" y="783"/>
      <point x="497" y="1115"/>
      <point x="569" y="1288" type="qcurve"/>
      <point x="38" y="1288" type="line"/>
      <point x="62" y="1536" type="line"/>
      <point x="890" y="1536" type="line"/>
      <point x="890" y="1323" type="line"/>
      <point x="803" y="1151"/>
      <point x="664" y="802"/>
      <point x="567" y="464"/>
      <point x="515" y="144"/>
      <point x="515" y="0" type="qcurve"/>
    </contour>
  </outline>
</glyph>
<glyph name="eight" format="1">
  <advance width="1107"/>
  <unicode hex="0038"/>
  <outline>
    <contour>
      <point x="81" y="371" type="qcurve"/>
      <point x="81" y="443"/>
      <point x="120" y="565"/>
      <point x="189" y="666"/>
      <point x="282" y="747"/>
      <point x="337" y="778" type="qcurve"/>
      <point x="235" y="838"/>
      <point x="126" y="1006"/>
      <point x="126" y="1122" type="qcurve"/>
      <point x="126" y="1218"/>
      <point x="195" y="1375"/>
      <point x="314" y="1486"/>
      <point x="475" y="1546"/>
      <point x="567" y="1546" type="qcurve"/>
      <point x="646" y="1546"/>
      <point x="794" y="1497"/>
      <point x="908" y="1403"/>
      <point x="977" y="1266"/>
      <point x="977" y="1178" type="qcurve"/>
      <point x="977" y="1123"/>
      <point x="942" y="1022"/>
      <point x="882" y="933"/>
      <point x="802" y="859"/>
      <point x="757" y="832" type="qcurve"/>
      <point x="812" y="798"/>
      <point x="912" y="720"/>
      <point x="988" y="625"/>
      <point x="1032" y="510"/>
      <point x="1032" y="440" type="qcurve"/>
      <point x="1032" y="326"/>
      <point x="951" y="152"/>
      <point x="815" y="34"/>
      <point x="638" y="-27"/>
      <point x="541" y="-27" type="qcurve"/>
      <point x="458" y="-27"/>
      <point x="294" y="22"/>
      <point x="163" y="121"/>
      <point x="81" y="271"/>
    </contour>
    <contour>
      <point x="369" y="398" type="qcurve"/>
      <point x="369" y="345"/>
      <point x="397" y="269"/>
      <point x="446" y="221"/>
      <point x="513" y="198"/>
      <point x="552" y="198" type="qcurve"/>
      <point x="588" y="198"/>
      <point x="657" y="217"/>
      <point x="711" y="258"/>
      <point x="744" y="325"/>
      <point x="744" y="373" type="qcurve"/>
      <point x="744" y="409"/>
      <point x="724" y="473"/>
      <point x="692" y="529"/>
      <point x="650" y="575"/>
      <point x="629" y="593" type="qcurve"/>
      <point x="578" y="636"/>
      <point x="514" y="667" type="qcurve"/>
      <point x="473" y="635"/>
      <point x="441" y="594" type="qcurve"/>
      <point x="414" y="559"/>
      <point x="369" y="460"/>
    </contour>
    <contour>
      <point x="406" y="1165" type="qcurve"/>
      <point x="406" y="1121"/>
      <point x="437" y="1052"/>
      <point x="484" y="998"/>
      <point x="540" y="955"/>
      <point x="566" y="939" type="qcurve"/>
      <point x="612" y="967"/>
      <point x="648" y="1001" type="qcurve"/>
      <point x="679" y="1030"/>
      <point x="731" y="1109"/>
      <point x="731" y="1155" type="qcurve"/>
      <point x="731" y="1186"/>
      <point x="706" y="1239"/>
      <point x="661" y="1277"/>
      <point x="599" y="1298"/>
      <point x="563" y="1298" type="qcurve"/>
      <point x="531" y="1298"/>
      <point x="474" y="1278"/>
      <point x="431" y="1243"/>
      <point x="406" y="1194"/>
    </contour>
  </outline>
</glyph>
<glyph name="nine" format="1">
  <advance width="1039"/>
  <unicode hex="0039"/>
  <outline>
    <contour>
      <point x="946" y="745" type="qcurve"/>
      <point x="946" y="664"/>
      <point x="923" y="486"/>
      <point x="873" y="314"/>
      <point x="795" y="159"/>
      <point x="687" y="42"/>
      <point x="546" y="-27"/>
      <point x="458" y="-27" type="qcurve"/>
      <point x="393" y="-27"/>
      <point x="279" y="22"/>
      <point x="188" y="117"/>
      <point x="126" y="255"/>
      <point x="114" y="345" type="qcurve"/>
      <point x="338" y="397" type="line"/>
      <point x="344" y="368"/>
      <point x="359" y="304"/>
      <point x="388" y="249"/>
      <point x="437" y="213"/>
      <point x="477" y="213" type="qcurve"/>
      <point x="518" y="213"/>
      <point x="576" y="258"/>
      <point x="614" y="332"/>
      <point x="637" y="427"/>
      <point x="649" y="527"/>
      <point x="652" y="624"/>
      <point x="653" y="663" type="qcurve"/>
      <point x="606" y="628"/>
      <point x="479" y="585"/>
      <point x="417" y="585" type="qcurve"/>
      <point x="337" y="585"/>
      <point x="210" y="655"/>
      <point x="121" y="772"/>
      <point x="73" y="924"/>
      <point x="73" y="1007" type="qcurve"/>
      <point x="73" y="1110"/>
      <point x="135" y="1305"/>
      <point x="248" y="1455"/>
      <point x="406" y="1546"/>
      <point x="501" y="1546" type="qcurve"/>
      <point x="595" y="1546"/>
      <point x="734" y="1480"/>
      <point x="832" y="1365"/>
      <point x="896" y="1209"/>
      <point x="932" y="1031"/>
      <point x="946" y="839"/>
    </contour>
    <contour>
      <point x="653" y="911" type="qcurve"/>
      <point x="653" y="943"/>
      <point x="653" y="1023"/>
      <point x="647" y="1107"/>
      <point x="632" y="1187"/>
      <point x="601" y="1251"/>
      <point x="551" y="1289"/>
      <point x="514" y="1289" type="qcurve"/>
      <point x="468" y="1289"/>
      <point x="409" y="1240"/>
      <point x="375" y="1166"/>
      <point x="362" y="1079"/>
      <point x="362" y="1042" type="qcurve"/>
      <point x="362" y="1003"/>
      <point x="378" y="927"/>
      <point x="414" y="865"/>
      <point x="474" y="827"/>
      <point x="518" y="827" type="qcurve"/>
      <point x="545" y="827"/>
      <point x="593" y="840"/>
      <point x="611" y="848" type="qcurve"/>
      <point x="632" y="858"/>
      <point x="651" y="870" type="qcurve"/>
      <point x="651" y="878"/>
      <point x="652" y="886" type="qcurve"/>
      <point x="652" y="893"/>
      <point x="653" y="906"/>
    </contour>
  </outline>
</glyph>
<glyph name="semicolon" format="1">
  <advance width="517"/>
  <unicode hex="003B"/>
  <outline>
    <contour>
      <point x="403" y="288" type="line"/>
      <point x="403" y="0" type="line"/>
      <point x="403" y="-54"/>
      <point x="382" y="-136"/>
      <point x="349" y="-197"/>
      <point x="305" y="-239"/>
      <point x="283" y="-252" type="qcurve"/>
      <point x="230" y="-284"/>
      <point x="163" y="-288" type="qcurve"/>
      <point x="163" y="-96" type="line"/>
      <point x="199" y="-96"/>
      <point x="238" y="-66"/>
      <point x="247" y="-48" type="qcurve"/>
      <point x="258" y="-27"/>
      <point x="259" y="0" type="qcurve"/>
      <point x="115" y="-12" type="line"/>
      <point x="115" y="288" type="line"/>
    </contour>
    <contour>
      <point x="403" y="864" type="line"/>
      <point x="403" y="576" type="line"/>
      <point x="115" y="576" type="line"/>
      <point x="115" y="864" type="line"/>
    </contour>
  </outline>
</glyph>
<glyph name="less" format="1">
  <advance width="976"/>
  <unicode hex="003C"/>
  <outline>
    <contour>
      <point x="56" y="439" type="line"/>
      <point x="56" y="704" type="line"/>
      <point x="866" y="1064" type="line"/>
      <point x="852" y="803" type="line"/>
      <point x="401" y="607" type="line"/>
      <point x="878" y="432" type="line"/>
      <point x="864" y="89" type="line"/>
    </contour>
  </outline>
</glyph>
<glyph name="equal" format="1">
  <advance width="804"/>
  <unicode hex="003D"/>
  <outline>
    <contour>
      <point x="114" y="526" type="line"/>
      <point x="690" y="526" type="line"/>
      <point x="690" y="288" type="line"/>
      <point x="114" y="288" type="line"/>
    </contour>
    <contour>
      <point x="114" y="910" type="line"/>
      <point x="690" y="910" type="line"/>
      <point x="690" y="672" type="line"/>
      <point x="114" y="672" type="line"/>
    </contour>
  </outline>
</glyph>
<glyph name="question" format="1">
  <advance width="885"/>
  <unicode hex="003F"/>
  <outline>
    <contour>
      <point x="435" y="396" type="line" smooth="yes"/>
      <point x="435" y="781"/>
      <point x="836" y="610"/>
      <point x="836" y="1095" type="curve" smooth="yes"/>
      <point x="836" y="1315"/>
      <point x="714" y="1546"/>
      <point x="438" y="1546" type="curve" smooth="yes"/>
      <point x="214" y="1546"/>
      <point x="58" y="1377"/>
      <point x="50" y="1133" type="curve"/>
      <point x="323" y="1121" type="line"/>
      <point x="331" y="1187"/>
      <point x="342" y="1318"/>
      <point x="431" y="1318" type="curve" smooth="yes"/>
      <point x="547" y="1318"/>
      <point x="547" y="1157"/>
      <point x="547" y="1105" type="curve" smooth="yes"/>
      <point x="547" y="738"/>
      <point x="142" y="963"/>
      <point x="195" y="384" type="curve"/>
      <point x="435" y="384" type="line"/>
    </contour>
    <contour>
      <point x="170" y="288" type="line"/>
      <point x="170" y="-12" type="line"/>
      <point x="458" y="0" type="line"/>
      <point x="458" y="288" type="line"/>
    </contour>
  </outline>
</glyph>
<glyph name="at" format="1">
  <advance width="1578"/>
  <unicode hex="0040"/>
  <outline>
    <contour>
      <point x="1526" y="775" type="qcurve"/>
      <point x="1526" y="675"/>
      <point x="1482" y="517"/>
      <point x="1398" y="407"/>
      <point x="1277" y="348"/>
      <point x="1199" y="348" type="qcurve"/>
      <point x="1185" y="348"/>
      <point x="1130" y="356"/>
      <point x="1069" y="389"/>
      <point x="1011" y="453"/>
      <point x="994" y="510" type="qcurve"/>
      <point x="943" y="416"/>
      <point x="811" y="324"/>
      <point x="739" y="324" type="qcurve"/>
      <point x="685" y="324"/>
      <point x="582" y="370"/>
      <point x="502" y="463"/>
      <point x="454" y="604"/>
      <point x="454" y="699" type="qcurve"/>
      <point x="454" y="798"/>
      <point x="503" y="938"/>
      <point x="582" y="1027"/>
      <point x="681" y="1068"/>
      <point x="731" y="1068" type="qcurve"/>
      <point x="766" y="1068"/>
      <point x="833" y="1051"/>
      <point x="891" y="1018"/>
      <point x="939" y="971"/>
      <point x="954" y="941" type="qcurve"/>
      <point x="990" y="1050" type="line"/>
      <point x="1147" y="1050" type="line"/>
      <point x="1147" y="581" type="line"/>
      <point x="1147" y="521"/>
      <point x="1183" y="469"/>
      <point x="1210" y="469" type="qcurve"/>
      <point x="1242" y="469"/>
      <point x="1285" y="503"/>
      <point x="1313" y="558"/>
      <point x="1328" y="627"/>
      <point x="1335" y="695"/>
      <point x="1336" y="755"/>
      <point x="1336" y="775" type="qcurve"/>
      <point x="1336" y="895"/>
      <point x="1260" y="1076"/>
      <point x="1123" y="1197"/>
      <point x="932" y="1258"/>
      <point x="818" y="1258" type="qcurve"/>
      <point x="729" y="1258"/>
      <point x="579" y="1211"/>
      <point x="460" y="1128"/>
      <point x="370" y="1016"/>
      <point x="309" y="885"/>
      <point x="279" y="742"/>
      <point x="279" y="671" type="qcurve"/>
      <point x="279" y="571"/>
      <point x="337" y="384"/>
      <point x="457" y="239"/>
      <point x="642" y="151"/>
      <point x="769" y="151" type="qcurve"/>
      <point x="863" y="151"/>
      <point x="1075" y="210"/>
      <point x="1205" y="274" type="qcurve"/>
      <point x="1277" y="124" type="line"/>
      <point x="1130" y="43"/>
      <point x="871" y="-32"/>
      <point x="753" y="-32" type="qcurve"/>
      <point x="574" y="-32"/>
      <point x="311" y="86"/>
      <point x="139" y="281"/>
      <point x="55" y="532"/>
      <point x="55" y="666" type="qcurve"/>
      <point x="55" y="762"/>
      <point x="100" y="954"/>
      <point x="187" y="1128"/>
      <point x="317" y="1279"/>
      <point x="487" y="1389"/>
      <point x="696" y="1452"/>
      <point x="819" y="1452" type="qcurve"/>
      <point x="907" y="1452"/>
      <point x="1081" y="1414"/>
      <point x="1238" y="1338"/>
      <point x="1372" y="1225"/>
      <point x="1470" y="1075"/>
      <point x="1526" y="887"/>
    </contour>
    <contour>
      <point x="924" y="844" type="line"/>
      <point x="858" y="911"/>
      <point x="806" y="911" type="qcurve"/>
      <point x="779" y="911"/>
      <point x="735" y="880"/>
      <point x="704" y="825"/>
      <point x="688" y="747"/>
      <point x="688" y="699" type="qcurve"/>
      <point x="688" y="652"/>
      <point x="707" y="581"/>
      <point x="739" y="534"/>
      <point x="780" y="511"/>
      <point x="803" y="511" type="qcurve"/>
      <point x="836" y="511"/>
      <point x="902" y="568"/>
      <point x="924" y="625" type="qcurve"/>
    </contour>
  </outline>
</glyph>
<glyph name="B" format="1">
  <advance width="1127"/>
  <unicode hex="0042"/>
  <outline>
    <contour>
      <point x="142" y="1536" type="line"/>
      <point x="486" y="1536" type="line"/>
      <point x="634" y="1536"/>
      <point x="837" y="1474"/>
      <point x="963" y="1366"/>
      <point x="1018" y="1222"/>
      <point x="1018" y="1140" type="qcurve"/>
      <point x="1018" y="1084"/>
      <point x="995" y="984"/>
      <point x="952" y="901"/>
      <point x="890" y="837"/>
      <point x="851" y="818" type="qcurve"/>
      <point x="892" y="797"/>
      <point x="969" y="739"/>
      <point x="1029" y="650"/>
      <point x="1065" y="522"/>
      <point x="1065" y="431" type="qcurve"/>
      <point x="1065" y="341"/>
      <point x="1010" y="207"/>
      <point x="913" y="111"/>
      <point x="782" y="50"/>
      <point x="632" y="14"/>
      <point x="469" y="0"/>
      <point x="388" y="0" type="qcurve"/>
      <point x="142" y="0" type="line"/>
    </contour>
    <contour>
      <point x="497" y="240" type="line"/>
      <point x="579" y="240"/>
      <point x="687" y="287"/>
      <point x="751" y="357"/>
      <point x="777" y="437"/>
      <point x="777" y="471" type="qcurve"/>
      <point x="777" y="545"/>
      <point x="733" y="633"/>
      <point x="659" y="679"/>
      <point x="561" y="693"/>
      <point x="508" y="693" type="qcurve"/>
      <point x="442" y="693" type="line"/>
      <point x="442" y="240" type="line"/>
    </contour>
    <contour>
      <point x="504" y="911" type="line"/>
      <point x="556" y="911"/>
      <point x="643" y="924"/>
      <point x="705" y="966"/>
      <point x="739" y="1045"/>
      <point x="739" y="1111" type="qcurve"/>
      <point x="739" y="1168"/>
      <point x="699" y="1241"/>
      <point x="631" y="1281"/>
      <point x="541" y="1296"/>
      <point x="491" y="1296" type="qcurve"/>
      <point x="432" y="1296" type="line"/>
      <point x="432" y="911" type="line"/>
    </contour>
  </outline>
</glyph>
<glyph name="C" format="1">
  <advance width="1069"/>
  <unicode hex="0043"/>
  <outline>
    <contour>
      <point x="997" y="523" type="line"/>
      <point x="997" y="416"/>
      <point x="944" y="215"/>
      <point x="836" y="61"/>
      <point x="672" y="-32"/>
      <point x="561" y="-32" type="qcurve"/>
      <point x="465" y="-32"/>
      <point x="318" y="37"/>
      <point x="212" y="158"/>
      <point x="141" y="319"/>
      <point x="99" y="504"/>
      <point x="81" y="703"/>
      <point x="81" y="800" type="qcurve"/>
      <point x="81" y="886"/>
      <point x="103" y="1067"/>
      <point x="151" y="1238"/>
      <point x="228" y="1389"/>
      <point x="336" y="1502"/>
      <point x="478" y="1568"/>
      <point x="568" y="1568" type="qcurve"/>
      <point x="669" y="1568"/>
      <point x="828" y="1471"/>
      <point x="937" y="1314"/>
      <point x="995" y="1116"/>
      <point x="995" y="1014" type="qcurve"/>
      <point x="705" y="999" type="line"/>
      <point x="705" y="1007"/>
      <point x="703" y="1062"/>
      <point x="693" y="1135"/>
      <point x="674" y="1216"/>
      <point x="640" y="1284"/>
      <point x="588" y="1328"/>
      <point x="551" y="1328" type="qcurve"/>
      <point x="515" y="1328"/>
      <point x="462" y="1281"/>
      <point x="424" y="1202"/>
      <point x="400" y="1096"/>
      <point x="386" y="979"/>
      <point x="381" y="857"/>
      <point x="381" y="800" type="qcurve"/>
      <point x="381" y="728"/>
      <point x="386" y="586"/>
      <point x="402" y="458"/>
      <point x="429" y="349"/>
      <point x="474" y="270"/>
      <point x="537" y="225"/>
      <point x="580" y="225" type="qcurve"/>
      <point x="627" y="225"/>
      <point x="686" y="288"/>
      <point x="722" y="384"/>
      <point x="738" y="497"/>
      <point x="742" y="547" type="qcurve"/>
    </contour>
  </outline>
</glyph>
<glyph name="D" format="1">
  <advance width="1132"/>
  <unicode hex="0044"/>
  <outline>
    <contour>
      <point x="142" y="1536" type="line"/>
      <point x="456" y="1536" type="line"/>
      <point x="759" y="1536"/>
      <point x="1059" y="1153"/>
      <point x="1059" y="762" type="qcurve"/>
      <point x="1059" y="665"/>
      <point x="1033" y="476"/>
      <point x="978" y="307"/>
      <point x="892" y="163"/>
      <point x="770" y="59"/>
      <point x="610" y="0"/>
      <point x="509" y="0" type="qcurve"/>
      <point x="142" y="0" type="line"/>
    </contour>
    <contour>
      <point x="441" y="1296" type="line"/>
      <point x="441" y="240" type="line"/>
      <point x="484" y="240" type="line"/>
      <point x="541" y="240"/>
      <point x="627" y="279"/>
      <point x="688" y="347"/>
      <point x="727" y="438"/>
      <point x="750" y="541"/>
      <point x="759" y="651"/>
      <point x="759" y="705" type="qcurve"/>
      <point x="759" y="754"/>
      <point x="759" y="880"/>
      <point x="747" y="1011"/>
      <point x="715" y="1137"/>
      <point x="653" y="1236"/>
      <point x="552" y="1296"/>
      <point x="476" y="1296" type="qcurve"/>
    </contour>
  </outline>
</glyph>
<glyph name="E" format="1">
  <advance width="988"/>
  <unicode hex="0045"/>
  <outline>
    <contour>
      <point x="142" y="1536" type="line"/>
      <point x="922" y="1536" type="line"/>
      <point x="898" y="1296" type="line"/>
      <point x="442" y="1296" type="line"/>
      <point x="442" y="930" type="line"/>
      <point x="765" y="930" type="line"/>
      <point x="764" y="672" type="line"/>
      <point x="442" y="672" type="line"/>
      <point x="442" y="240" type="line"/>
      <point x="938" y="240" type="line"/>
      <point x="914" y="0" type="line"/>
      <point x="142" y="0" type="line"/>
    </contour>
  </outline>
</glyph>
<glyph name="F" format="1">
  <advance width="940"/>
  <unicode hex="0046"/>
  <outline>
    <contour>
      <point x="141" y="1536" type="line"/>
      <point x="921" y="1536" type="line"/>
      <point x="897" y="1295" type="line"/>
      <point x="441" y="1295" type="line"/>
      <point x="441" y="893" type="line"/>
      <point x="763" y="893" type="line"/>
      <point x="763" y="638" type="line"/>
      <point x="441" y="638" type="line"/>
      <point x="441" y="12" type="line"/>
      <point x="141" y="-12" type="line"/>
    </contour>
  </outline>
</glyph>
<glyph name="G" format="1">
  <advance width="1132"/>
  <unicode hex="0047"/>
  <outline>
    <contour>
      <point x="739" y="1015" type="line"/>
      <point x="735" y="1044"/>
      <point x="728" y="1113"/>
      <point x="715" y="1184"/>
      <point x="695" y="1250"/>
      <point x="661" y="1301"/>
      <point x="611" y="1332"/>
      <point x="576" y="1332" type="qcurve"/>
      <point x="536" y="1332"/>
      <point x="476" y="1279"/>
      <point x="432" y="1191"/>
      <point x="404" y="1074"/>
      <point x="388" y="947"/>
      <point x="381" y="816"/>
      <point x="381" y="758" type="qcurve"/>
      <point x="381" y="703"/>
      <point x="383" y="579"/>
      <point x="394" y="457"/>
      <point x="417" y="345"/>
      <point x="461" y="260"/>
      <point x="529" y="209"/>
      <point x="578" y="209" type="qcurve"/>
      <point x="618" y="209"/>
      <point x="679" y="254"/>
      <point x="721" y="334"/>
      <point x="742" y="444"/>
      <point x="742" y="508" type="qcurve"/>
      <point x="590" y="508" type="line"/>
      <point x="614" y="768" type="line"/>
      <point x="1031" y="768" type="line"/>
      <point x="1031" y="12" type="line"/>
      <point x="916" y="0" type="line"/>
      <point x="915" y="4"/>
      <point x="908" y="34"/>
      <point x="898" y="75"/>
      <point x="885" y="125"/>
      <point x="879" y="151" type="qcurve"/>
      <point x="864" y="211"/>
      <point x="846" y="285" type="qcurve"/>
      <point x="839" y="196"/>
      <point x="803" y="126" type="qcurve"/>
      <point x="788" y="96"/>
      <point x="741" y="40"/>
      <point x="673" y="-5"/>
      <point x="581" y="-32"/>
      <point x="521" y="-32" type="qcurve"/>
      <point x="440" y="-32"/>
      <point x="311" y="29"/>
      <point x="214" y="138"/>
      <point x="145" y="289"/>
      <point x="101" y="468"/>
      <point x="81" y="669"/>
      <point x="81" y="774" type="qcurve"/>
      <point x="81" y="863"/>
      <point x="104" y="1049"/>
      <point x="153" y="1226"/>
      <point x="231" y="1382"/>
      <point x="342" y="1500"/>
      <point x="488" y="1568"/>
      <point x="580" y="1568" type="qcurve"/>
      <point x="697" y="1568"/>
      <point x="865" y="1479"/>
      <point x="973" y="1331"/>
      <point x="1025" y="1138"/>
      <point x="1025" y="1034" type="qcurve"/>
    </contour>
  </outline>
</glyph>
<glyph name="H" format="1">
  <advance width="1176"/>
  <unicode hex="0048"/>
  <outline>
    <contour>
      <point x="732" y="-12" type="line"/>
      <point x="1032" y="12" type="line"/>
      <point x="1032" y="1536" type="line"/>
      <point x="732" y="1512" type="line"/>
      <point x="732" y="913" type="line"/>
      <point x="444" y="913" type="line"/>
      <point x="444" y="1536" type="line"/>
      <point x="144" y="1512" type="line"/>
      <point x="144" y="-12" type="line"/>
      <point x="444" y="12" type="line"/>
      <point x="444" y="639" type="line"/>
      <point x="732" y="639" type="line"/>
    </contour>
  </outline>
</glyph>
<glyph name="I" format="1">
  <advance width="583"/>
  <unicode hex="0049"/>
  <outline>
    <contour>
      <point x="142" y="1512" type="line"/>
      <point x="442" y="1536" type="line"/>
      <point x="442" y="12" type="line"/>
      <point x="142" y="-12" type="line"/>
    </contour>
  </outline>
</glyph>
<glyph name="J" format="1">
  <advance width="681"/>
  <unicode hex="004A"/>
  <outline>
    <contour>
      <point x="55" y="2" type="line"/>
      <point x="129" y="-18"/>
      <point x="193" y="-28"/>
      <point x="247" y="-28" type="curve" smooth="yes"/>
      <point x="476" y="-28"/>
      <point x="547" y="140"/>
      <point x="547" y="384" type="curve" smooth="yes"/>
      <point x="547" y="1536" type="line"/>
      <point x="247" y="1512" type="line"/>
      <point x="247" y="409" type="line" smooth="yes"/>
      <point x="247" y="301"/>
      <point x="246" y="191"/>
      <point x="135" y="191" type="curve" smooth="yes"/>
      <point x="112" y="191"/>
      <point x="87" y="194"/>
      <point x="55" y="205" type="curve"/>
    </contour>
  </outline>
</glyph>
<glyph name="K" format="1">
  <advance width="1150"/>
  <unicode hex="004B"/>
  <outline>
    <contour>
      <point x="590" y="666" type="line"/>
      <point x="442" y="401" type="line"/>
      <point x="442" y="0" type="line"/>
      <point x="142" y="0" type="line"/>
      <point x="142" y="1512" type="line"/>
      <point x="442" y="1536" type="line"/>
      <point x="442" y="864" type="line"/>
      <point x="806" y="1536" type="line"/>
      <point x="1126" y="1536" type="line"/>
      <point x="797" y="902" type="line"/>
      <point x="1131" y="43" type="line"/>
      <point x="826" y="-27" type="line"/>
    </contour>
  </outline>
</glyph>
<glyph name="L" format="1">
  <advance width="971"/>
  <unicode hex="004C"/>
  <outline>
    <contour>
      <point x="441" y="1536" type="line"/>
      <point x="441" y="240" type="line"/>
      <point x="961" y="240" type="line"/>
      <point x="913" y="0" type="line"/>
      <point x="142" y="0" type="line"/>
      <point x="142" y="1512" type="line"/>
    </contour>
  </outline>
</glyph>
<glyph name="M" format="1">
  <advance width="1621"/>
  <unicode hex="004D"/>
  <outline>
    <contour>
      <point x="390" y="1144" type="line"/>
      <point x="390" y="12" type="line"/>
      <point x="142" y="0" type="line"/>
      <point x="142" y="1522" type="line"/>
      <point x="581" y="1534" type="line"/>
      <point x="835" y="584" type="line"/>
      <point x="1079" y="1500" type="line"/>
      <point x="1480" y="1524" type="line"/>
      <point x="1480" y="12" type="line"/>
      <point x="1170" y="-12" type="line"/>
      <point x="1170" y="1140" type="line"/>
      <point x="883" y="0" type="line"/>
      <point x="698" y="0" type="line"/>
    </contour>
  </outline>
</glyph>
<glyph name="N" format="1">
  <advance width="1245"/>
  <unicode hex="004E"/>
  <outline>
    <contour>
      <point x="409" y="948" type="line"/>
      <point x="409" y="12" type="line"/>
      <point x="141" y="0" type="line"/>
      <point x="141" y="1524" type="line"/>
      <point x="454" y="1536" type="line"/>
      <point x="850" y="622" type="line"/>
      <point x="850" y="1512" type="line"/>
      <point x="1104" y="1536" type="line"/>
      <point x="1104" y="12" type="line"/>
      <point x="858" y="-12" type="line"/>
    </contour>
  </outline>
</glyph>
<glyph name="O" format="1">
  <advance width="1125"/>
  <unicode hex="004F"/>
  <outline>
    <contour>
      <point x="561" y="-32" type="qcurve"/>
      <point x="463" y="-32"/>
      <point x="316" y="34"/>
      <point x="210" y="152"/>
      <point x="142" y="313"/>
      <point x="102" y="502"/>
      <point x="86" y="712"/>
      <point x="86" y="820" type="qcurve"/>
      <point x="86" y="982"/>
      <point x="141" y="1258"/>
      <point x="257" y="1454"/>
      <point x="436" y="1561"/>
      <point x="561" y="1561" type="qcurve"/>
      <point x="686" y="1561"/>
      <point x="867" y="1454"/>
      <point x="984" y="1258"/>
      <point x="1039" y="982"/>
      <point x="1039" y="820" type="qcurve"/>
      <point x="1039" y="712"/>
      <point x="1023" y="502"/>
      <point x="982" y="313"/>
      <point x="913" y="152"/>
      <point x="807" y="34"/>
      <point x="659" y="-32"/>
    </contour>
    <contour>
      <point x="561" y="223" type="qcurve"/>
      <point x="621" y="223"/>
      <point x="692" y="306"/>
      <point x="729" y="461"/>
      <point x="739" y="682"/>
      <point x="739" y="820" type="qcurve"/>
      <point x="739" y="868"/>
      <point x="736" y="973"/>
      <point x="724" y="1086"/>
      <point x="701" y="1192"/>
      <point x="661" y="1273"/>
      <point x="602" y="1322"/>
      <point x="561" y="1322" type="qcurve"/>
      <point x="520" y="1322"/>
      <point x="462" y="1273"/>
      <point x="423" y="1192"/>
      <point x="400" y="1086"/>
      <point x="388" y="973"/>
      <point x="385" y="868"/>
      <point x="385" y="820" type="qcurve"/>
      <point x="385" y="682"/>
      <point x="395" y="461"/>
      <point x="431" y="306"/>
      <point x="501" y="223"/>
    </contour>
  </outline>
</glyph>
<glyph name="P" format="1">
  <advance width="1089"/>
  <unicode hex="0050"/>
  <outline>
    <contour>
      <point x="141" y="1536" type="line"/>
      <point x="333" y="1536" type="line"/>
      <point x="411" y="1536"/>
      <point x="577" y="1534"/>
      <point x="736" y="1511"/>
      <point x="879" y="1458"/>
      <point x="986" y="1355"/>
      <point x="1049" y="1194"/>
      <point x="1049" y="1075" type="qcurve"/>
      <point x="1049" y="967"/>
      <point x="997" y="814"/>
      <point x="907" y="709"/>
      <point x="788" y="647"/>
      <point x="652" y="614"/>
      <point x="509" y="604"/>
      <point x="441" y="604" type="qcurve"/>
      <point x="441" y="12" type="line"/>
      <point x="141" y="-12" type="line"/>
    </contour>
    <contour>
      <point x="494" y="847" type="line"/>
      <point x="546" y="847"/>
      <point x="639" y="866"/>
      <point x="709" y="917"/>
      <point x="750" y="1007"/>
      <point x="750" y="1077" type="qcurve"/>
      <point x="750" y="1146"/>
      <point x="715" y="1232"/>
      <point x="647" y="1279"/>
      <point x="549" y="1296"/>
      <point x="486" y="1296" type="qcurve"/>
      <point x="443" y="1296" type="line"/>
      <point x="443" y="847" type="line"/>
    </contour>
  </outline>
</glyph>
<glyph name="Q" format="1">
  <advance width="1121"/>
  <unicode hex="0051"/>
  <outline>
    <contour>
      <point x="559" y="-32" type="qcurve"/>
      <point x="461" y="-32"/>
      <point x="314" y="38"/>
      <point x="208" y="160"/>
      <point x="140" y="325"/>
      <point x="100" y="514"/>
      <point x="84" y="719"/>
      <point x="84" y="820" type="qcurve"/>
      <point x="84" y="921"/>
      <point x="108" y="1111"/>
      <point x="158" y="1277"/>
      <point x="236" y="1415"/>
      <point x="341" y="1514"/>
      <point x="476" y="1568"/>
      <point x="559" y="1568" type="qcurve"/>
      <point x="643" y="1568"/>
      <point x="778" y="1514"/>
      <point x="884" y="1415"/>
      <point x="962" y="1277"/>
      <point x="1013" y="1111"/>
      <point x="1037" y="921"/>
      <point x="1037" y="820" type="qcurve"/>
      <point x="1037" y="715"/>
      <point x="1019" y="503"/>
      <point x="975" y="309"/>
      <point x="899" y="143"/>
      <point x="841" y="84" type="qcurve"/>
      <point x="849" y="39"/>
      <point x="893" y="-16"/>
      <point x="950" y="-46"/>
      <point x="1014" y="-59"/>
      <point x="1042" y="-63" type="qcurve"/>
      <point x="1042" y="-293" type="line"/>
      <point x="1031" y="-293"/>
      <point x="1012" y="-295"/>
      <point x="1003" y="-295" type="qcurve"/>
      <point x="928" y="-295"/>
      <point x="812" y="-258"/>
      <point x="726" y="-187"/>
      <point x="667" y="-87"/>
      <point x="649" y="-24" type="qcurve"/>
      <point x="649" y="-26"/>
      <point x="621" y="-27"/>
      <point x="604" y="-29" type="qcurve"/>
      <point x="584" y="-31"/>
    </contour>
    <contour>
      <point x="559" y="223" type="qcurve"/>
      <point x="624" y="223"/>
      <point x="696" y="313"/>
      <point x="730" y="473"/>
      <point x="737" y="691"/>
      <point x="737" y="820" type="qcurve"/>
      <point x="737" y="862"/>
      <point x="735" y="971"/>
      <point x="725" y="1084"/>
      <point x="704" y="1193"/>
      <point x="664" y="1278"/>
      <point x="603" y="1330"/>
      <point x="559" y="1330" type="qcurve"/>
      <point x="515" y="1330"/>
      <point x="455" y="1278"/>
      <point x="416" y="1193"/>
      <point x="394" y="1084"/>
      <point x="385" y="971"/>
      <point x="383" y="862"/>
      <point x="383" y="820" type="qcurve"/>
      <point x="383" y="691"/>
      <point x="390" y="473"/>
      <point x="423" y="313"/>
      <point x="494" y="223"/>
    </contour>
  </outline>
</glyph>
<glyph name="R" format="1">
  <advance width="1156"/>
  <unicode hex="0052"/>
  <outline>
    <contour>
      <point x="142" y="-12" type="line"/>
      <point x="142" y="1524" type="line"/>
      <point x="506" y="1536" type="line"/>
      <point x="632" y="1536"/>
      <point x="840" y="1487"/>
      <point x="989" y="1382"/>
      <point x="1070" y="1220"/>
      <point x="1070" y="1108" type="qcurve"/>
      <point x="1070" y="1033"/>
      <point x="1038" y="913"/>
      <point x="980" y="819"/>
      <point x="899" y="747"/>
      <point x="850" y="719" type="qcurve"/>
      <point x="850" y="718"/>
      <point x="874" y="660"/>
      <point x="913" y="566"/>
      <point x="962" y="446"/>
      <point x="988" y="384" type="qcurve"/>
      <point x="1049" y="238"/>
      <point x="1127" y="53" type="qcurve"/>
      <point x="832" y="-27" type="line"/>
      <point x="558" y="673" type="line"/>
      <point x="441" y="673" type="line"/>
      <point x="441" y="12" type="line"/>
    </contour>
    <contour>
      <point x="441" y="895" type="line"/>
      <point x="543" y="895" type="line"/>
      <point x="588" y="895"/>
      <point x="670" y="910"/>
      <point x="733" y="955"/>
      <point x="770" y="1037"/>
      <point x="770" y="1105" type="qcurve"/>
      <point x="770" y="1159"/>
      <point x="741" y="1232"/>
      <point x="690" y="1277"/>
      <point x="621" y="1296"/>
      <point x="581" y="1296" type="qcurve"/>
      <point x="441" y="1296" type="line"/>
    </contour>
  </outline>
</glyph>
<glyph name="S" format="1">
  <advance width="1091"/>
  <unicode hex="0053"/>
  <outline>
    <contour>
      <point x="739" y="1141" type="line"/>
      <point x="721" y="1179"/>
      <point x="690" y="1247"/>
      <point x="649" y="1299"/>
      <point x="591" y="1329"/>
      <point x="546" y="1329" type="qcurve"/>
      <point x="511" y="1329"/>
      <point x="458" y="1303"/>
      <point x="424" y="1259"/>
      <point x="407" y="1201"/>
      <point x="407" y="1169" type="qcurve"/>
      <point x="407" y="1143"/>
      <point x="423" y="1097"/>
      <point x="450" y="1059"/>
      <point x="484" y="1028"/>
      <point x="501" y="1018" type="qcurve"/>
      <point x="749" y="873" type="line"/>
      <point x="837" y="823"/>
      <point x="949" y="713"/>
      <point x="1012" y="605"/>
      <point x="1036" y="504"/>
      <point x="1038" y="463" type="qcurve"/>
      <point x="1038" y="352"/>
      <point x="963" y="169"/>
      <point x="831" y="39"/>
      <point x="652" y="-32"/>
      <point x="548" y="-32" type="qcurve"/>
      <point x="452" y="-32"/>
      <point x="292" y="26"/>
      <point x="167" y="129"/>
      <point x="76" y="270"/>
      <point x="48" y="352" type="qcurve"/>
      <point x="302" y="471" type="line"/>
      <point x="324" y="435"/>
      <point x="376" y="348"/>
      <point x="440" y="273"/>
      <point x="522" y="223"/>
      <point x="576" y="223" type="qcurve"/>
      <point x="603" y="223"/>
      <point x="652" y="248"/>
      <point x="689" y="291"/>
      <point x="712" y="346"/>
      <point x="712" y="376" type="qcurve"/>
      <point x="712" y="437"/>
      <point x="653" y="529"/>
      <point x="610" y="557" type="qcurve"/>
      <point x="341" y="716" type="line"/>
      <point x="285" y="748"/>
      <point x="192" y="830"/>
      <point x="123" y="929"/>
      <point x="85" y="1043"/>
      <point x="85" y="1108" type="qcurve"/>
      <point x="85" y="1210"/>
      <point x="158" y="1379"/>
      <point x="285" y="1501"/>
      <point x="460" y="1568"/>
      <point x="562" y="1568" type="qcurve"/>
      <point x="718" y="1568"/>
      <point x="940" y="1409"/>
      <point x="993" y="1256" type="qcurve"/>
    </contour>
  </outline>
</glyph>
<glyph name="T" format="1">
  <advance width="977"/>
  <unicode hex="0054"/>
  <outline>
    <contour>
      <point x="341" y="1296" type="line"/>
      <point x="341" y="-12" type="line"/>
      <point x="641" y="12" type="line"/>
      <point x="641" y="1296" type="line"/>
      <point x="928" y="1296" type="line"/>
      <point x="952" y="1536" type="line"/>
      <point x="52" y="1536" type="line"/>
      <point x="28" y="1296" type="line"/>
    </contour>
  </outline>
</glyph>
<glyph name="U" format="1">
  <advance width="1163"/>
  <unicode hex="0055"/>
  <outline>
    <contour>
      <point x="132" y="1524" type="line"/>
      <point x="432" y="1536" type="line"/>
      <point x="432" y="482" type="line"/>
      <point x="432" y="436"/>
      <point x="438" y="344"/>
      <point x="471" y="270"/>
      <point x="538" y="223"/>
      <point x="600" y="223" type="qcurve"/>
      <point x="658" y="223"/>
      <point x="721" y="271"/>
      <point x="751" y="347"/>
      <point x="756" y="440"/>
      <point x="756" y="485" type="qcurve"/>
      <point x="756" y="1512" type="line"/>
      <point x="1031" y="1536" type="line"/>
      <point x="1031" y="541" type="line"/>
      <point x="1031" y="497"/>
      <point x="1027" y="378"/>
      <point x="1002" y="251"/>
      <point x="946" y="126"/>
      <point x="841" y="28"/>
      <point x="678" y="-32"/>
      <point x="559" y="-32" type="qcurve"/>
      <point x="448" y="-32"/>
      <point x="287" y="55"/>
      <point x="182" y="202"/>
      <point x="132" y="398"/>
      <point x="132" y="506" type="qcurve"/>
    </contour>
  </outline>
</glyph>
<glyph name="V" format="1">
  <advance width="1092"/>
  <unicode hex="0056"/>
  <outline>
    <contour>
      <point x="17" y="1524" type="line"/>
      <point x="372" y="1536" type="line"/>
      <point x="576" y="476" type="line"/>
      <point x="789" y="1524" type="line"/>
      <point x="1078" y="1536" type="line"/>
      <point x="708" y="0" type="line"/>
      <point x="379" y="0" type="line"/>
    </contour>
  </outline>
</glyph>
<glyph name="W" format="1">
  <advance width="1586"/>
  <unicode hex="0057"/>
  <outline>
    <contour>
      <point x="614" y="0" type="line"/>
      <point x="339" y="0" type="line"/>
      <point x="27" y="1524" type="line"/>
      <point x="355" y="1536" type="line"/>
      <point x="517" y="616" type="line"/>
      <point x="690" y="1524" type="line"/>
      <point x="935" y="1536" type="line"/>
      <point x="1097" y="606" type="line"/>
      <point x="1293" y="1524" type="line"/>
      <point x="1568" y="1536" type="line"/>
      <point x="1240" y="0" type="line"/>
      <point x="943" y="0" type="line"/>
      <point x="780" y="938" type="line"/>
    </contour>
  </outline>
</glyph>
<glyph name="Z" format="1">
  <advance width="966"/>
  <unicode hex="005A"/>
  <outline>
    <contour>
      <point x="62" y="190" type="line"/>
      <point x="62" y="0" type="line"/>
      <point x="870" y="0" type="line"/>
      <point x="918" y="240" type="line"/>
      <point x="422" y="240" type="line"/>
      <point x="904" y="1337" type="line"/>
      <point x="904" y="1536" type="line"/>
      <point x="133" y="1536" type="line"/>
      <point x="109" y="1296" type="line"/>
      <point x="554" y="1296" type="line"/>
    </contour>
  </outline>
</glyph>
<glyph name="bracketright" format="1">
  <advance width="693"/>
  <unicode hex="005D"/>
  <outline>
    <contour>
      <point x="552" y="1632" type="line"/>
      <point x="60" y="1632" type="line"/>
      <point x="60" y="1440" type="line"/>
      <point x="252" y="1440" type="line"/>
      <point x="252" y="95" type="line"/>
      <point x="60" y="95" type="line"/>
      <point x="60" y="-96" type="line"/>
      <point x="552" y="-96" type="line"/>
    </contour>
  </outline>
</glyph>
<glyph name="asciicircum" format="1">
  <advance width="1032"/>
  <unicode hex="005E"/>
  <outline>
    <contour>
      <point x="652" y="1440" type="line"/>
      <point x="387" y="1440" type="line"/>
      <point x="27" y="642" type="line"/>
      <point x="288" y="644" type="line"/>
      <point x="484" y="1119" type="line"/>
      <point x="659" y="636" type="line"/>
      <point x="1002" y="644" type="line"/>
    </contour>
  </outline>
</glyph>
<glyph name="underscore" format="1">
  <advance width="556"/>
  <unicode hex="005F"/>
  <outline>
    <contour>
      <point x="-10" y="-238" type="line"/>
      <point x="566" y="-238" type="line"/>
      <point x="566" y="0" type="line"/>
      <point x="-10" y="0" type="line"/>
    </contour>
  </outline>
</glyph>
<glyph name="a" format="1">
  <advance width="968"/>
  <unicode hex="0061"/>
  <outline>
    <contour>
      <point x="56" y="327" type="qcurve"/>
      <point x="56" y="409"/>
      <point x="103" y="532"/>
      <point x="182" y="621"/>
      <point x="286" y="681"/>
      <point x="399" y="718"/>
      <point x="513" y="737"/>
      <point x="563" y="740" type="qcurve"/>
      <point x="563" y="780"/>
      <point x="561" y="857"/>
      <point x="545" y="918"/>
      <point x="511" y="956"/>
      <point x="480" y="956" type="qcurve"/>
      <point x="454" y="956"/>
      <point x="417" y="933"/>
      <point x="392" y="896"/>
      <point x="379" y="849"/>
      <point x="376" y="826" type="qcurve"/>
      <point x="96" y="875" type="line"/>
      <point x="107" y="961"/>
      <point x="183" y="1074"/>
      <point x="290" y="1140"/>
      <point x="417" y="1167"/>
      <point x="480" y="1167" type="qcurve"/>
      <point x="578" y="1167"/>
      <point x="718" y="1112"/>
      <point x="808" y="1016"/>
      <point x="851" y="887"/>
      <point x="851" y="813" type="qcurve"/>
      <point x="851" y="217" type="line"/>
      <point x="851" y="183"/>
      <point x="860" y="111"/>
      <point x="866" y="81" type="qcurve"/>
      <point x="873" y="46"/>
      <point x="882" y="12" type="qcurve"/>
      <point x="602" y="-12" type="line"/>
      <point x="570" y="129" type="line"/>
      <point x="553" y="98"/>
      <point x="498" y="42"/>
      <point x="430" y="-1"/>
      <point x="354" y="-27"/>
      <point x="317" y="-27" type="qcurve"/>
      <point x="258" y="-27"/>
      <point x="162" y="26"/>
      <point x="93" y="121"/>
      <point x="56" y="250"/>
    </contour>
    <contour>
      <point x="338" y="331" type="qcurve"/>
      <point x="338" y="263"/>
      <point x="393" y="179"/>
      <point x="452" y="179" type="qcurve"/>
      <point x="472" y="179"/>
      <point x="511" y="200"/>
      <point x="527" y="213" type="qcurve"/>
      <point x="545" y="228"/>
      <point x="563" y="247" type="qcurve"/>
      <point x="563" y="568" type="line"/>
      <point x="515" y="568"/>
      <point x="433" y="544"/>
      <point x="372" y="488"/>
      <point x="338" y="397"/>
    </contour>
  </outline>
</glyph>
<glyph name="b" format="1">
  <advance width="1060.0"/>
  <unicode hex="0062"/>
  <outline>
    <contour>
      <point x="342.0" y="-12.0" type="line"/>
      <point x="412.0" y="144.0" type="line"/>
      <point x="436.283254273" y="57.6595403638"/>
      <point x="490.578739254" y="-27.0"/>
      <point x="659.0" y="-27.0" type="curve" smooth="yes"/>
      <point x="870.0" y="-27.0"/>
      <point x="990.0" y="160.0"/>
      <point x="990.0" y="576.0" type="curve" smooth="yes"/>
      <point x="990.0" y="1013.0"/>
      <point x="869.0" y="1167"/>
      <point x="704.0" y="1167" type="curve" smooth="yes"/>
      <point x="585.0" y="1167"/>
      <point x="480.0" y="1101.0"/>
      <point x="412.0" y="1005.0" type="curve"/>
      <point x="412.0" y="1536.0" type="line"/>
      <point x="124.0" y="1500.0" type="line"/>
      <point x="124.0" y="12.0" type="line"/>
    </contour>
    <contour>
      <point x="412.0" y="843.0" type="line"/>
      <point x="438.0" y="870"/>
      <point x="516.0" y="922"/>
      <point x="572.0" y="922" type="curve" smooth="yes"/>
      <point x="677.0" y="922"/>
      <point x="702.0" y="837"/>
      <point x="702.0" y="576.0" type="curve" smooth="yes"/>
      <point x="702.0" y="363"/>
      <point x="693.0" y="179.0"/>
      <point x="552.0" y="179.0" type="curve" smooth="yes"/>
      <point x="483.0" y="179.0"/>
      <point x="412.0" y="240.0"/>
      <point x="412.0" y="480.0" type="curve" smooth="yes"/>
    </contour>
  </outline>
</glyph>
<glyph name="c" format="1">
  <advance width="912"/>
  <unicode hex="0063"/>
  <outline>
    <contour>
      <point x="609" y="432" type="line"/>
      <point x="606.334540407" y="325.381616278"/>
      <point x="583.624352241" y="216.0"/>
      <point x="494" y="216" type="curve" smooth="yes"/>
      <point x="359" y="216"/>
      <point x="359" y="480"/>
      <point x="359" y="576" type="curve" smooth="yes"/>
      <point x="359" y="672"/>
      <point x="358" y="939"/>
      <point x="485" y="939" type="curve" smooth="yes"/>
      <point x="567" y="939"/>
      <point x="575" y="808"/>
      <point x="583" y="742" type="curve"/>
      <point x="856" y="754" type="line"/>
      <point x="848" y="997"/>
      <point x="700" y="1167"/>
      <point x="488" y="1167" type="curve" smooth="yes"/>
      <point x="197" y="1167"/>
      <point x="70" y="861"/>
      <point x="70" y="566" type="curve" smooth="yes"/>
      <point x="70" y="261"/>
      <point x="207" y="-27"/>
      <point x="482" y="-27" type="curve" smooth="yes"/>
      <point x="741" y="-27"/>
      <point x="817" y="152"/>
      <point x="849" y="405" type="curve"/>
    </contour>
  </outline>
</glyph>
<glyph name="d" format="1">
  <advance width="1061"/>
  <unicode hex="0064"/>
  <outline>
    <contour>
      <point x="940" y="12" type="line"/>
      <point x="940" y="1536" type="line"/>
      <point x="652" y="1500" type="line"/>
      <point x="652" y="1000" type="line"/>
      <point x="610" y="1094"/>
      <point x="513" y="1167"/>
      <point x="411" y="1167" type="curve" smooth="yes"/>
      <point x="184" y="1167"/>
      <point x="74" y="1001"/>
      <point x="74" y="576" type="curve" smooth="yes"/>
      <point x="74" y="160"/>
      <point x="194" y="-27"/>
      <point x="405" y="-27" type="curve" smooth="yes"/>
      <point x="573.421260746" y="-27.0"/>
      <point x="627.716745727" y="57.6595403638"/>
      <point x="652" y="144" type="curve"/>
      <point x="722" y="-12" type="line"/>
    </contour>
    <contour>
      <point x="652" y="480" type="line" smooth="yes"/>
      <point x="652" y="240"/>
      <point x="581" y="179"/>
      <point x="512" y="179" type="curve" smooth="yes"/>
      <point x="371" y="179"/>
      <point x="362" y="363"/>
      <point x="362" y="576" type="curve" smooth="yes"/>
      <point x="362" y="788"/>
      <point x="371" y="956"/>
      <point x="512" y="956" type="curve" smooth="yes"/>
      <point x="566.587356812" y="956.0"/>
      <point x="615" y="921"/>
      <point x="652" y="864" type="curve"/>
    </contour>
  </outline>
</glyph>
<glyph name="e" format="1">
  <advance width="965"/>
  <unicode hex="0065"/>
  <outline>
    <contour>
      <point x="904" y="536" type="line"/>
      <point x="904" y="540"/>
      <point x="915.0" y="547.0"/>
      <point x="915.0" y="570.0" type="curve"/>
      <point x="915.0" y="923.0"/>
      <point x="776.0" y="1167.0"/>
      <point x="502.0" y="1167.0" type="curve" smooth="yes"/>
      <point x="214.0" y="1167.0"/>
      <point x="70.0" y="923.0"/>
      <point x="70.0" y="570.0" type="curve" smooth="yes"/>
      <point x="70.0" y="220.0"/>
      <point x="211.0" y="-27.0"/>
      <point x="492.0" y="-27.0" type="curve" smooth="yes"/>
      <point x="702.0" y="-27.0"/>
      <point x="822.0" y="104.0"/>
      <point x="875.0" y="290.0" type="curve"/>
      <point x="657.0" y="373.0" type="line"/>
      <point x="649.0" y="357.0"/>
      <point x="587.0" y="185.0"/>
      <point x="497.0" y="185.0" type="curve" smooth="yes"/>
      <point x="392.0" y="185.0"/>
      <point x="357.0" y="391.0"/>
      <point x="357.0" y="536.0" type="curve"/>
    </contour>
    <contour>
      <point x="357.0" y="702.0" type="line"/>
      <point x="357.0" y="854.0"/>
      <point x="427.0" y="969.0"/>
      <point x="497.0" y="969.0" type="curve" smooth="yes"/>
      <point x="595.0" y="969.0"/>
      <point x="632.0" y="854.0"/>
      <point x="632.0" y="702.0" type="curve"/>
    </contour>
  </outline>
</glyph>
<glyph name="f" format="1">
  <advance width="690"/>
  <unicode hex="0066"/>
  <outline>
    <contour>
      <point x="176" y="936" type="line"/>
      <point x="34" y="936" type="line"/>
      <point x="46" y="1152" type="line"/>
      <point x="176" y="1152" type="line"/>
      <point x="176" y="1174" type="line"/>
      <point x="176" y="1244"/>
      <point x="187" y="1377"/>
      <point x="242" y="1482"/>
      <point x="358" y="1546"/>
      <point x="462" y="1546" type="qcurve"/>
      <point x="515" y="1546"/>
      <point x="589" y="1536"/>
      <point x="612" y="1531" type="qcurve"/>
      <point x="639" y="1524"/>
      <point x="657" y="1516" type="qcurve"/>
      <point x="657" y="1344" type="line"/>
      <point x="594" y="1344" type="line"/>
      <point x="549" y="1344"/>
      <point x="497" y="1314"/>
      <point x="471" y="1266"/>
      <point x="464" y="1204"/>
      <point x="464" y="1173" type="qcurve"/>
      <point x="464" y="1152" type="line"/>
      <point x="667" y="1152" type="line"/>
      <point x="655" y="936" type="line"/>
      <point x="464" y="936" type="line"/>
      <point x="464" y="12" type="line"/>
      <point x="176" y="-12" type="line"/>
    </contour>
  </outline>
</glyph>
<glyph name="g" format="1">
  <advance width="1109"/>
  <unicode hex="0067"/>
  <outline>
    <contour>
      <point x="44" y="-123" type="qcurve"/>
      <point x="44" y="-94"/>
      <point x="61" y="-44"/>
      <point x="90" y="-1"/>
      <point x="126" y="34"/>
      <point x="145" y="48" type="qcurve"/>
      <point x="189" y="81"/>
      <point x="246" y="103" type="qcurve"/>
      <point x="198" y="116"/>
      <point x="160" y="137" type="qcurve"/>
      <point x="144" y="146"/>
      <point x="113" y="170"/>
      <point x="89" y="199"/>
      <point x="74" y="235"/>
      <point x="74" y="256" type="qcurve"/>
      <point x="74" y="284"/>
      <point x="93" y="337"/>
      <point x="123" y="383"/>
      <point x="162" y="424"/>
      <point x="182" y="441" type="qcurve"/>
      <point x="230" y="481"/>
      <point x="291" y="511" type="qcurve"/>
      <point x="239" y="542"/>
      <point x="199" y="586" type="qcurve"/>
      <point x="182" y="605"/>
      <point x="149" y="652"/>
      <point x="123" y="709"/>
      <point x="107" y="776"/>
      <point x="107" y="815" type="qcurve"/>
      <point x="107" y="901"/>
      <point x="182" y="1033"/>
      <point x="302" y="1122"/>
      <point x="453" y="1167"/>
      <point x="530" y="1167" type="qcurve"/>
      <point x="585" y="1167"/>
      <point x="675" y="1151"/>
      <point x="746" y="1125"/>
      <point x="801" y="1095"/>
      <point x="822" y="1081" type="qcurve"/>
      <point x="837" y="1095"/>
      <point x="888" y="1140"/>
      <point x="954" y="1184"/>
      <point x="1031" y="1215"/>
      <point x="1070" y="1215" type="qcurve"/>
      <point x="1075" y="1215"/>
      <point x="1085" y="1214"/>
      <point x="1090" y="1213" type="qcurve"/>
      <point x="1095" y="1212"/>
      <point x="1101" y="1211" type="qcurve"/>
      <point x="1101" y="969" type="line"/>
      <point x="1074" y="979"/>
      <point x="1050" y="988" type="qcurve"/>
      <point x="1030" y="996"/>
      <point x="987" y="1008"/>
      <point x="975" y="1008" type="qcurve"/>
      <point x="964" y="1008"/>
      <point x="945" y="1002"/>
      <point x="937" y="999" type="qcurve"/>
      <point x="927" y="995"/>
      <point x="919" y="991" type="qcurve"/>
      <point x="931" y="961"/>
      <point x="941" y="931" type="qcurve"/>
      <point x="949" y="905"/>
      <point x="963" y="846"/>
      <point x="963" y="820" type="qcurve"/>
      <point x="963" y="757"/>
      <point x="912" y="627"/>
      <point x="812" y="520"/>
      <point x="663" y="453"/>
      <point x="565" y="465" type="qcurve"/>
      <point x="526" y="465"/>
      <point x="466" y="469"/>
      <point x="445" y="469" type="qcurve"/>
      <point x="403" y="457"/>
      <point x="370" y="428"/>
      <point x="370" y="374" type="qcurve"/>
      <point x="370" y="345"/>
      <point x="412" y="306"/>
      <point x="442" y="302" type="qcurve"/>
      <point x="714" y="281" type="line"/>
      <point x="792" y="275"/>
      <point x="917" y="238"/>
      <point x="1006" y="158"/>
      <point x="1053" y="49"/>
      <point x="1053" y="-20" type="qcurve"/>
      <point x="1053" y="-85"/>
      <point x="1005" y="-187"/>
      <point x="924" y="-262"/>
      <point x="817" y="-313"/>
      <point x="700" y="-344"/>
      <point x="580" y="-358"/>
      <point x="526" y="-358" type="qcurve"/>
      <point x="409" y="-358"/>
      <point x="229" y="-323"/>
      <point x="107" y="-261"/>
      <point x="44" y="-175"/>
    </contour>
    <contour>
      <point x="306" y="-36" type="qcurve"/>
      <point x="306" y="-61"/>
      <point x="333" y="-101"/>
      <point x="394" y="-130"/>
      <point x="491" y="-145"/>
      <point x="561" y="-145" type="qcurve"/>
      <point x="664" y="-145"/>
      <point x="773" y="-77"/>
      <point x="773" y="-17" type="qcurve"/>
      <point x="773" y="16"/>
      <point x="725" y="55"/>
      <point x="658" y="74"/>
      <point x="587" y="80"/>
      <point x="565" y="80" type="qcurve"/>
      <point x="397" y="80" type="line"/>
      <point x="381" y="75"/>
      <point x="348" y="57"/>
      <point x="322" y="28"/>
      <point x="306" y="-11"/>
    </contour>
    <contour>
      <point x="395" y="826" type="qcurve"/>
      <point x="395" y="793"/>
      <point x="405" y="723"/>
      <point x="434" y="665"/>
      <point x="487" y="628"/>
      <point x="530" y="628" type="qcurve"/>
      <point x="589" y="628"/>
      <point x="658" y="727"/>
      <point x="658" y="820" type="qcurve"/>
      <point x="658" y="865"/>
      <point x="637" y="930"/>
      <point x="601" y="972"/>
      <point x="554" y="993"/>
      <point x="528" y="993" type="qcurve"/>
      <point x="493" y="993"/>
      <point x="443" y="962"/>
      <point x="411" y="914"/>
      <point x="395" y="854"/>
    </contour>
  </outline>
</glyph>
<glyph name="h" format="1">
  <advance width="1104"/>
  <unicode hex="0068"/>
  <outline>
    <contour>
      <point x="700" y="773" type="line"/>
      <point x="700" y="852"/>
      <point x="643" y="922"/>
      <point x="600" y="922" type="qcurve"/>
      <point x="560" y="922"/>
      <point x="472" y="879"/>
      <point x="412" y="843" type="qcurve"/>
      <point x="412" y="12" type="line"/>
      <point x="124" y="-12" type="line"/>
      <point x="124" y="1500" type="line"/>
      <point x="412" y="1536" type="line"/>
      <point x="412" y="1005" type="line"/>
      <point x="502" y="1089"/>
      <point x="668" y="1167"/>
      <point x="742" y="1167" type="qcurve"/>
      <point x="796" y="1167"/>
      <point x="886" y="1126"/>
      <point x="951" y="1051"/>
      <point x="988" y="943"/>
      <point x="988" y="876" type="qcurve"/>
      <point x="988" y="12" type="line"/>
      <point x="700" y="-12" type="line"/>
    </contour>
  </outline>
</glyph>
<glyph name="i" format="1">
  <advance width="538.0"/>
  <unicode hex="0069"/>
  <outline>
    <contour>
      <point x="126.0" y="1598.0" type="line"/>
      <point x="126.0" y="1300.0" type="line"/>
      <point x="414.0" y="1312.0" type="line"/>
      <point x="414.0" y="1618.0" type="line"/>
    </contour>
    <contour>
      <point x="126.0" y="-12" type="line"/>
      <point x="414.0" y="12" type="line"/>
      <point x="414.0" y="1152" type="line"/>
      <point x="126.0" y="1128" type="line"/>
    </contour>
  </outline>
</glyph>
<glyph name="j" format="1">
  <advance width="536"/>
  <unicode hex="006A"/>
  <outline>
    <contour>
      <point x="-35" y="-96" type="line"/>
      <point x="21" y="-96"/>
      <point x="85" y="-80"/>
      <point x="116" y="-45"/>
      <point x="124" y="12"/>
      <point x="124" y="54" type="qcurve"/>
      <point x="124" y="1128" type="line"/>
      <point x="412" y="1152" type="line"/>
      <point x="412" y="54" type="line"/>
      <point x="412" y="-27"/>
      <point x="404" y="-155"/>
      <point x="356" y="-242"/>
      <point x="253" y="-288"/>
      <point x="157" y="-288" type="qcurve"/>
      <point x="117" y="-288"/>
      <point x="22" y="-279"/>
      <point x="-35" y="-269" type="qcurve"/>
    </contour>
    <contour>
      <point x="412" y="1600" type="line"/>
      <point x="412" y="1312" type="line"/>
      <point x="124" y="1300" type="line"/>
      <point x="124" y="1598" type="line"/>
    </contour>
  </outline>
</glyph>
<glyph name="k" format="1">
  <advance width="1021"/>
  <unicode hex="006B"/>
  <outline>
    <contour>
      <point x="413" y="421" type="line"/>
      <point x="413" y="0" type="line"/>
      <point x="125" y="0" type="line"/>
      <point x="125" y="1500" type="line"/>
      <point x="413" y="1536" type="line"/>
      <point x="413" y="775" type="line"/>
      <point x="706" y="1152" type="line"/>
      <point x="1017" y="1152" type="line"/>
      <point x="693" y="738" type="line"/>
      <point x="994" y="60" type="line"/>
      <point x="740" y="-27" type="line"/>
      <point x="507" y="546" type="line"/>
    </contour>
  </outline>
</glyph>
<glyph name="l" format="1">
  <advance width="536"/>
  <unicode hex="006C"/>
  <outline>
    <contour>
      <point x="124" y="1500" type="line"/>
      <point x="412" y="1536" type="line"/>
      <point x="412" y="12" type="line"/>
      <point x="124" y="-12" type="line"/>
    </contour>
  </outline>
</glyph>
<glyph name="m" format="1">
  <advance width="1510"/>
  <unicode hex="006D"/>
  <outline>
    <contour>
      <point x="1112" y="-12" type="line"/>
      <point x="1394" y="12" type="line"/>
      <point x="1394" y="817" type="line" smooth="yes"/>
      <point x="1394" y="1038"/>
      <point x="1341" y="1167"/>
      <point x="1190" y="1167" type="curve" smooth="yes"/>
      <point x="1067" y="1167"/>
      <point x="971" y="1099"/>
      <point x="887" y="988" type="curve"/>
      <point x="858" y="1117"/>
      <point x="796" y="1167"/>
      <point x="717" y="1167" type="curve" smooth="yes"/>
      <point x="604" y="1167"/>
      <point x="487" y="1101"/>
      <point x="406" y="1005" type="curve"/>
      <point x="406" y="1152" type="line"/>
      <point x="124" y="1128" type="line"/>
      <point x="124" y="-12" type="line"/>
      <point x="406" y="12" type="line"/>
      <point x="406" y="839" type="line"/>
      <point x="441" y="879"/>
      <point x="502" y="921"/>
      <point x="561" y="921" type="curve" smooth="yes"/>
      <point x="588" y="921"/>
      <point x="618" y="888"/>
      <point x="618" y="804" type="curve" smooth="yes"/>
      <point x="618" y="-12" type="line"/>
      <point x="900" y="12" type="line"/>
      <point x="900" y="839" type="line"/>
      <point x="930" y="879"/>
      <point x="982" y="921"/>
      <point x="1044" y="921" type="curve" smooth="yes"/>
      <point x="1079" y="921"/>
      <point x="1112" y="879"/>
      <point x="1112" y="802" type="curve" smooth="yes"/>
    </contour>
  </outline>
</glyph>
<glyph name="n" format="1">
  <advance width="1104"/>
  <unicode hex="006E"/>
  <outline>
    <contour>
      <point x="700" y="769" type="line"/>
      <point x="700" y="854"/>
      <point x="642" y="922"/>
      <point x="595" y="922" type="qcurve"/>
      <point x="557" y="922"/>
      <point x="462" y="872"/>
      <point x="412" y="842" type="qcurve"/>
      <point x="412" y="12" type="line"/>
      <point x="124" y="-12" type="line"/>
      <point x="124" y="1128" type="line"/>
      <point x="412" y="1152" type="line"/>
      <point x="412" y="1005" type="line"/>
      <point x="498" y="1080"/>
      <point x="668" y="1167"/>
      <point x="742" y="1167" type="qcurve"/>
      <point x="796" y="1167"/>
      <point x="886" y="1126"/>
      <point x="951" y="1051"/>
      <point x="988" y="943"/>
      <point x="988" y="876" type="qcurve"/>
      <point x="988" y="12" type="line"/>
      <point x="700" y="-12" type="line"/>
    </contour>
  </outline>
</glyph>
<glyph name="o" format="1">
  <advance width="1003"/>
  <unicode hex="006F"/>
  <outline>
    <contour>
      <point x="502" y="-27" type="qcurve"/>
      <point x="394" y="-27"/>
      <point x="232" y="62"/>
      <point x="124" y="221"/>
      <point x="70" y="443"/>
      <point x="70" y="577" type="qcurve"/>
      <point x="70" y="706"/>
      <point x="124" y="923"/>
      <point x="232" y="1080"/>
      <point x="394" y="1167"/>
      <point x="502" y="1167" type="qcurve"/>
      <point x="607" y="1167"/>
      <point x="769" y="1080"/>
      <point x="878" y="923"/>
      <point x="934" y="706"/>
      <point x="934" y="577" type="qcurve"/>
      <point x="934" y="443"/>
      <point x="878" y="221"/>
      <point x="769" y="62"/>
      <point x="607" y="-27"/>
    </contour>
    <contour>
      <point x="500" y="187" type="qcurve"/>
      <point x="535" y="187"/>
      <point x="585" y="225"/>
      <point x="617" y="288"/>
      <point x="635" y="369"/>
      <point x="643" y="456"/>
      <point x="645" y="541"/>
      <point x="645" y="577" type="qcurve"/>
      <point x="645" y="612"/>
      <point x="643" y="696"/>
      <point x="635" y="782"/>
      <point x="617" y="863"/>
      <point x="585" y="926"/>
      <point x="536" y="964"/>
      <point x="501" y="964" type="qcurve"/>
      <point x="465" y="964"/>
      <point x="416" y="926"/>
      <point x="384" y="863"/>
      <point x="367" y="782"/>
      <point x="359" y="696"/>
      <point x="358" y="612"/>
      <point x="358" y="577" type="qcurve"/>
      <point x="358" y="541"/>
      <point x="359" y="456"/>
      <point x="367" y="369"/>
      <point x="384" y="288"/>
      <point x="415" y="225"/>
      <point x="464" y="187"/>
    </contour>
  </outline>
</glyph>
<glyph name="p" format="1">
  <advance width="1034.09168365"/>
  <unicode hex="0070"/>
  <outline>
    <contour>
      <point x="124.0" y="-358.0" type="line"/>
      <point x="412.0" y="-302.0" type="line"/>
      <point x="412.0" y="99.0" type="line"/>
      <point x="452.814096425" y="33.6974457194"/>
      <point x="515.419160235" y="-27.0"/>
      <point x="634.0" y="-27.0" type="curve" smooth="yes"/>
      <point x="954.0" y="-27.0"/>
      <point x="960.0" y="359.0"/>
      <point x="960.0" y="576.0" type="curve" smooth="yes"/>
      <point x="960.0" y="811.0"/>
      <point x="974.0" y="1167.0"/>
      <point x="656.0" y="1167.0" type="curve" smooth="yes"/>
      <point x="559.0" y="1167.0"/>
      <point x="475.0" y="1104.0"/>
      <point x="412.0" y="1041.0" type="curve"/>
      <point x="412.0" y="1152.0" type="line"/>
      <point x="124.0" y="1128.0" type="line"/>
    </contour>
    <contour>
      <point x="535.0" y="960.0" type="curve" smooth="yes"/>
      <point x="624.0" y="960.0"/>
      <point x="672.0" y="864.0"/>
      <point x="672.0" y="576.0" type="curve" smooth="yes"/>
      <point x="672.0" y="258.0"/>
      <point x="616.0" y="193.0"/>
      <point x="537.0" y="193.0" type="curve" smooth="yes"/>
      <point x="467.460229625" y="193.0"/>
      <point x="433.782426186" y="238.712344355"/>
      <point x="412.0" y="285.0" type="curve"/>
      <point x="412.0" y="880.0" type="line"/>
      <point x="438.391769149" y="919.587653724"/>
      <point x="475.427695777" y="960.0"/>
    </contour>
  </outline>
</glyph>
<glyph name="q" format="1">
  <advance width="1023"/>
  <unicode hex="0071"/>
  <outline>
    <contour>
      <point x="899" y="-322" type="line"/>
      <point x="611" y="-358" type="line"/>
      <point x="611" y="99" type="line"/>
      <point x="588" y="63"/>
      <point x="555" y="36" type="qcurve"/>
      <point x="527" y="12"/>
      <point x="444" y="-27"/>
      <point x="389" y="-27" type="qcurve"/>
      <point x="314" y="-27"/>
      <point x="211" y="32"/>
      <point x="143" y="130"/>
      <point x="105" y="256"/>
      <point x="87" y="390"/>
      <point x="83" y="521"/>
      <point x="83" y="576" type="qcurve"/>
      <point x="83" y="635"/>
      <point x="84" y="768"/>
      <point x="97" y="899"/>
      <point x="129" y="1020"/>
      <point x="192" y="1112"/>
      <point x="292" y="1167"/>
      <point x="367" y="1167" type="qcurve"/>
      <point x="403" y="1167"/>
      <point x="471" y="1145"/>
      <point x="532" y="1110"/>
      <point x="587" y="1065"/>
      <point x="611" y="1041" type="qcurve"/>
      <point x="659" y="1152" type="line"/>
      <point x="899" y="1128" type="line"/>
    </contour>
    <contour>
      <point x="508" y="960" type="qcurve"/>
      <point x="475" y="960"/>
      <point x="423" y="921"/>
      <point x="389" y="831"/>
      <point x="371" y="684"/>
      <point x="371" y="576" type="qcurve"/>
      <point x="371" y="457"/>
      <point x="388" y="307"/>
      <point x="419" y="223"/>
      <point x="461" y="193"/>
      <point x="486" y="193" type="qcurve"/>
      <point x="518" y="193"/>
      <point x="566" y="222"/>
      <point x="581" y="239" type="qcurve"/>
      <point x="599" y="259"/>
      <point x="611" y="285" type="qcurve"/>
      <point x="611" y="880" type="line"/>
      <point x="599" y="902"/>
      <point x="583" y="920" type="qcurve"/>
      <point x="569" y="935"/>
      <point x="531" y="960"/>
    </contour>
  </outline>
</glyph>
<glyph name="r" format="1">
  <advance width="831"/>
  <unicode hex="0072"/>
  <outline>
    <contour>
      <point x="124" y="1128" type="line"/>
      <point x="412" y="1152" type="line"/>
      <point x="412" y="967" type="line"/>
      <point x="437" y="1000"/>
      <point x="505" y="1071"/>
      <point x="592" y="1129"/>
      <point x="698" y="1167"/>
      <point x="761" y="1167" type="qcurve"/>
      <point x="766" y="1167"/>
      <point x="778" y="1166"/>
      <point x="783" y="1165" type="qcurve"/>
      <point x="789" y="1164"/>
      <point x="796" y="1163" type="qcurve"/>
      <point x="796" y="820" type="line"/>
      <point x="749" y="834"/>
      <point x="653" y="864"/>
      <point x="604" y="864" type="qcurve"/>
      <point x="556" y="864"/>
      <point x="462" y="822"/>
      <point x="412" y="768" type="qcurve"/>
      <point x="412" y="12" type="line"/>
      <point x="124" y="-12" type="line"/>
    </contour>
  </outline>
</glyph>
<glyph name="s" format="1">
  <advance width="926"/>
  <unicode hex="0073"/>
  <outline>
    <contour>
      <point x="282" y="337" type="line"/>
      <point x="291" y="298"/>
      <point x="313" y="268" type="qcurve"/>
      <point x="331" y="242"/>
      <point x="397" y="200"/>
      <point x="450" y="200" type="qcurve"/>
      <point x="470" y="200"/>
      <point x="521" y="209"/>
      <point x="565" y="231"/>
      <point x="595" y="266"/>
      <point x="595" y="293" type="qcurve"/>
      <point x="595" y="330"/>
      <point x="543" y="378"/>
      <point x="508" y="392" type="qcurve"/>
      <point x="267" y="490" type="line"/>
      <point x="170" y="529"/>
      <point x="67" y="694"/>
      <point x="67" y="814" type="qcurve"/>
      <point x="67" y="900"/>
      <point x="133" y="1032"/>
      <point x="241" y="1121"/>
      <point x="381" y="1167"/>
      <point x="456" y="1167" type="qcurve"/>
      <point x="518" y="1167"/>
      <point x="639" y="1131"/>
      <point x="743" y="1060"/>
      <point x="820" y="956"/>
      <point x="839" y="889" type="qcurve"/>
      <point x="603" y="816" type="line"/>
      <point x="592" y="854"/>
      <point x="573" y="885" type="qcurve"/>
      <point x="556" y="911"/>
      <point x="500" y="954"/>
      <point x="458" y="954" type="qcurve"/>
      <point x="435" y="954"/>
      <point x="391" y="944"/>
      <point x="356" y="921"/>
      <point x="334" y="886"/>
      <point x="334" y="862" type="qcurve"/>
      <point x="334" y="843"/>
      <point x="355" y="812"/>
      <point x="386" y="788"/>
      <point x="420" y="770"/>
      <point x="434" y="764" type="qcurve"/>
      <point x="639" y="679" type="line"/>
      <point x="687" y="657"/>
      <point x="772" y="599"/>
      <point x="835" y="519"/>
      <point x="871" y="412"/>
      <point x="871" y="342" type="qcurve"/>
      <point x="871" y="249"/>
      <point x="801" y="111"/>
      <point x="687" y="19"/>
      <point x="543" y="-27"/>
      <point x="469" y="-27" type="qcurve"/>
      <point x="381" y="-27"/>
      <point x="243" y="14"/>
      <point x="141" y="90"/>
      <point x="75" y="198"/>
      <point x="60" y="265" type="qcurve"/>
    </contour>
  </outline>
</glyph>
<glyph name="t" format="1">
  <advance width="732"/>
  <unicode hex="0074"/>
  <outline>
    <contour>
      <point x="197" y="1152" type="line"/>
      <point x="226" y="1402" type="line"/>
      <point x="476" y="1438" type="line"/>
      <point x="476" y="1152" type="line"/>
      <point x="712" y="1152" type="line"/>
      <point x="700" y="936" type="line"/>
      <point x="477" y="936" type="line"/>
      <point x="477" y="301" type="line"/>
      <point x="477" y="267"/>
      <point x="505" y="224"/>
      <point x="548" y="200"/>
      <point x="600" y="192"/>
      <point x="624" y="192" type="qcurve"/>
      <point x="655" y="192"/>
      <point x="675" y="195" type="qcurve"/>
      <point x="686" y="197"/>
      <point x="696" y="199" type="qcurve"/>
      <point x="696" y="1" type="line"/>
      <point x="674" y="-7"/>
      <point x="642" y="-13" type="qcurve"/>
      <point x="615" y="-18"/>
      <point x="533" y="-27"/>
      <point x="476" y="-27" type="qcurve"/>
      <point x="429" y="-27"/>
      <point x="328" y="0"/>
      <point x="244" y="63"/>
      <point x="189" y="167"/>
      <point x="189" y="244" type="qcurve"/>
      <point x="189" y="936" type="line"/>
      <point x="28" y="936" type="line"/>
      <point x="40" y="1152" type="line"/>
    </contour>
  </outline>
</glyph>
<glyph name="u" format="1">
  <advance width="1104"/>
  <unicode hex="0075"/>
  <outline>
    <contour>
      <point x="404" y="381" type="line"/>
      <point x="404" y="296"/>
      <point x="456" y="228"/>
      <point x="499" y="228" type="qcurve"/>
      <point x="519" y="228"/>
      <point x="564" y="243"/>
      <point x="614" y="269"/>
      <point x="666" y="301"/>
      <point x="692" y="318" type="qcurve"/>
      <point x="692" y="1128" type="line"/>
      <point x="980" y="1152" type="line"/>
      <point x="980" y="12" type="line"/>
      <point x="692" y="-12" type="line"/>
      <point x="692" y="135" type="line"/>
      <point x="608" y="60"/>
      <point x="444" y="-27"/>
      <point x="372" y="-27" type="qcurve"/>
      <point x="316" y="-27"/>
      <point x="222" y="14"/>
      <point x="154" y="89"/>
      <point x="116" y="197"/>
      <point x="116" y="264" type="qcurve"/>
      <point x="116" y="1128" type="line"/>
      <point x="404" y="1152" type="line"/>
    </contour>
  </outline>
</glyph>
<glyph name="v" format="1">
  <advance width="932"/>
  <unicode hex="0076"/>
  <outline>
    <contour>
      <point x="329" y="0" type="curve"/>
      <point x="594" y="0" type="line"/>
      <point x="594" y="0"/>
      <point x="924" y="1140"/>
      <point x="924" y="1140" type="curve"/>
      <point x="663" y="1116" type="line"/>
      <point x="497" y="415" type="line"/>
      <point x="352" y="1152" type="line"/>
      <point x="9" y="1128" type="line"/>
      <point x="9" y="1128"/>
      <point x="329" y="0"/>
    </contour>
  </outline>
</glyph>
<glyph name="x" format="1">
  <advance width="941"/>
  <unicode hex="0078"/>
  <outline>
    <contour>
      <point x="460" y="339" type="line"/>
      <point x="284" y="0" type="line"/>
      <point x="10" y="0" type="line"/>
      <point x="321" y="579" type="line"/>
      <point x="21" y="1152" type="line"/>
      <point x="335" y="1152" type="line"/>
      <point x="474" y="870" type="line"/>
      <point x="620" y="1152" type="line"/>
      <point x="892" y="1152" type="line"/>
      <point x="615" y="634" type="line"/>
      <point x="947" y="12" type="line"/>
      <point x="630" y="-12" type="line"/>
    </contour>
  </outline>
</glyph>
<glyph name="y" format="1">
  <advance width="901"/>
  <unicode hex="0079"/>
  <outline>
    <contour>
      <point x="30" y="-113" type="line"/>
      <point x="56" y="-114"/>
      <point x="80" y="-115" type="qcurve"/>
      <point x="100" y="-116"/>
      <point x="140" y="-117"/>
      <point x="149" y="-117" type="qcurve"/>
      <point x="199" y="-117"/>
      <point x="268" y="-93"/>
      <point x="312" y="-49"/>
      <point x="331" y="13"/>
      <point x="331" y="52" type="qcurve"/>
      <point x="331" y="108" type="line"/>
      <point x="2" y="1138" type="line"/>
      <point x="314" y="1152" type="line"/>
      <point x="476" y="431" type="line"/>
      <point x="629" y="1146" type="line"/>
      <point x="889" y="1148" type="line"/>
      <point x="594" y="21" type="line"/>
      <point x="558" y="-105"/>
      <point x="452" y="-258"/>
      <point x="332" y="-339"/>
      <point x="207" y="-365"/>
      <point x="151" y="-365" type="qcurve"/>
      <point x="130" y="-365"/>
      <point x="86" y="-361"/>
      <point x="69" y="-359" type="qcurve"/>
      <point x="49" y="-356"/>
      <point x="30" y="-353" type="qcurve"/>
    </contour>
  </outline>
</glyph>
<glyph name="z" format="1">
  <advance width="870"/>
  <unicode hex="007A"/>
  <outline>
    <contour>
      <point x="415" y="227" type="line"/>
      <point x="796" y="982" type="line"/>
      <point x="796" y="1152" type="line"/>
      <point x="131" y="1152" type="line"/>
      <point x="107" y="928" type="line"/>
      <point x="478" y="928" type="line"/>
      <point x="90" y="181" type="line"/>
      <point x="90" y="0" type="line"/>
      <point x="803" y="0" type="line"/>
      <point x="827" y="227" type="line"/>
    </contour>
  </outline>
</glyph>
<glyph name="braceleft" format="1">
  <advance width="674"/>
  <unicode hex="007B"/>
  <outline>
    <contour>
      <point x="141" y="551" type="qcurve"/>
      <point x="141" y="575"/>
      <point x="138" y="625"/>
      <point x="120" y="667"/>
      <point x="81" y="693"/>
      <point x="45" y="693" type="qcurve"/>
      <point x="45" y="882" type="line"/>
      <point x="81" y="882"/>
      <point x="120" y="908"/>
      <point x="138" y="950"/>
      <point x="141" y="1000"/>
      <point x="141" y="1024" type="qcurve"/>
      <point x="141" y="1171"/>
      <point x="183" y="1398"/>
      <point x="291" y="1552"/>
      <point x="477" y="1632"/>
      <point x="621" y="1632" type="qcurve"/>
      <point x="621" y="1470" type="line"/>
      <point x="549" y="1470"/>
      <point x="471" y="1416"/>
      <point x="435" y="1305"/>
      <point x="429" y="1137"/>
      <point x="429" y="1024" type="qcurve"/>
      <point x="429" y="994"/>
      <point x="423" y="931"/>
      <point x="387" y="869"/>
      <point x="309" y="812"/>
      <point x="237" y="787" type="qcurve"/>
      <point x="309" y="763"/>
      <point x="387" y="706"/>
      <point x="423" y="644"/>
      <point x="429" y="581"/>
      <point x="429" y="551" type="qcurve"/>
      <point x="429" y="430"/>
      <point x="435" y="251"/>
      <point x="471" y="133"/>
      <point x="549" y="75"/>
      <point x="621" y="75" type="qcurve"/>
      <point x="621" y="-87" type="line"/>
      <point x="477" y="-87"/>
      <point x="291" y="-3"/>
      <point x="183" y="159"/>
      <point x="141" y="397"/>
    </contour>
  </outline>
</glyph>
<glyph name="braceright" format="1">
  <advance width="673"/>
  <unicode hex="007D"/>
  <outline>
    <contour>
      <point x="532" y="551" type="qcurve"/>
      <point x="532" y="397"/>
      <point x="490" y="159"/>
      <point x="382" y="-3"/>
      <point x="196" y="-87"/>
      <point x="52" y="-87" type="qcurve"/>
      <point x="52" y="75" type="line"/>
      <point x="124" y="75"/>
      <point x="202" y="133"/>
      <point x="238" y="251"/>
      <point x="244" y="430"/>
      <point x="244" y="551" type="qcurve"/>
      <point x="244" y="581"/>
      <point x="250" y="644"/>
      <point x="286" y="706"/>
      <point x="364" y="763"/>
      <point x="436" y="787" type="qcurve"/>
      <point x="364" y="812"/>
      <point x="286" y="869"/>
      <point x="250" y="931"/>
      <point x="244" y="994"/>
      <point x="244" y="1024" type="qcurve"/>
      <point x="244" y="1137"/>
      <point x="238" y="1305"/>
      <point x="202" y="1416"/>
      <point x="124" y="1470"/>
      <point x="52" y="1470" type="qcurve"/>
      <point x="52" y="1632" type="line"/>
      <point x="196" y="1632"/>
      <point x="382" y="1552"/>
      <point x="490" y="1398"/>
      <point x="532" y="1171"/>
      <point x="532" y="1024" type="qcurve"/>
      <point x="532" y="1000"/>
      <point x="535" y="950"/>
      <point x="553" y="908"/>
      <point x="592" y="882"/>
      <point x="628" y="882" type="qcurve"/>
      <point x="628" y="693" type="line"/>
      <point x="592" y="693"/>
      <point x="553" y="667"/>
      <point x="535" y="625"/>
      <point x="532" y="575"/>
    </contour>
  </outline>
</glyph>
<glyph name="asciitilde" format="1">
  <advance width="815"/>
  <unicode hex="007E"/>
  <outline>
    <contour>
      <point x="92" y="932" type="line"/>
      <point x="125" y="971"/>
      <point x="161" y="1003" type="qcurve"/>
      <point x="192" y="1029"/>
      <point x="267" y="1074"/>
      <point x="305" y="1074" type="qcurve"/>
      <point x="343" y="1074"/>
      <point x="405" y="1040"/>
      <point x="461" y="998"/>
      <point x="515" y="964"/>
      <point x="546" y="964" type="qcurve"/>
      <point x="595" y="964"/>
      <point x="665" y="998"/>
      <point x="687" y="1019" type="qcurve"/>
      <point x="713" y="1043"/>
      <point x="729" y="1074" type="qcurve"/>
      <point x="729" y="892" type="line"/>
      <point x="729" y="891"/>
      <point x="703" y="848"/>
      <point x="654" y="798"/>
      <point x="583" y="757"/>
      <point x="538" y="757" type="qcurve"/>
      <point x="504" y="757"/>
      <point x="447" y="795"/>
      <point x="389" y="840"/>
      <point x="325" y="878"/>
      <point x="284" y="878" type="qcurve"/>
      <point x="247" y="878"/>
      <point x="178" y="843"/>
      <point x="151" y="823" type="qcurve"/>
      <point x="119" y="798"/>
      <point x="91" y="768" type="qcurve"/>
    </contour>
  </outline>
</glyph>
<glyph name="exclamdown" format="1">
  <advance width="542"/>
  <unicode hex="00A1"/>
  <outline>
    <contour>
      <point x="127" y="-12" type="line"/>
      <point x="415" y="-12" type="line"/>
      <point x="368" y="1076" type="line"/>
      <point x="176" y="1076" type="line"/>
    </contour>
    <contour>
      <point x="127" y="1536" type="line"/>
      <point x="127" y="1224" type="line"/>
      <point x="415" y="1224" type="line"/>
      <point x="415" y="1524" type="line"/>
    </contour>
  </outline>
</glyph>
<glyph name="cent" format="1">
  <advance width="983"/>
  <unicode hex="00A2"/>
  <outline>
    <contour>
      <point x="439" y="-16" type="line"/>
      <point x="341" y="4"/>
      <point x="196" y="115"/>
      <point x="100" y="272"/>
      <point x="52" y="464"/>
      <point x="52" y="566" type="qcurve"/>
      <point x="52" y="669"/>
      <point x="98" y="871"/>
      <point x="192" y="1036"/>
      <point x="338" y="1148"/>
      <point x="439" y="1162" type="qcurve"/>
      <point x="439" y="1344" type="line"/>
      <point x="578" y="1344" type="line"/>
      <point x="578" y="1161" type="line"/>
      <point x="655" y="1149"/>
      <point x="781" y="1080"/>
      <point x="873" y="974"/>
      <point x="925" y="835"/>
      <point x="928" y="754" type="qcurve"/>
      <point x="655" y="742" type="line"/>
      <point x="652" y="761"/>
      <point x="643" y="809"/>
      <point x="626" y="859"/>
      <point x="599" y="903"/>
      <point x="578" y="918" type="qcurve"/>
      <point x="578" y="218" type="line"/>
      <point x="597" y="222"/>
      <point x="626" y="246"/>
      <point x="647" y="277"/>
      <point x="662" y="315"/>
      <point x="667" y="334" type="qcurve"/>
      <point x="678" y="378"/>
      <point x="681" y="432" type="qcurve"/>
      <point x="921" y="405" type="line"/>
      <point x="909" y="314"/>
      <point x="866" y="161"/>
      <point x="788" y="48"/>
      <point x="667" y="-19"/>
      <point x="578" y="-25" type="qcurve"/>
      <point x="578" y="-192" type="line"/>
      <point x="439" y="-192" type="line"/>
    </contour>
    <contour>
      <point x="341" y="576" type="qcurve"/>
      <point x="341" y="548"/>
      <point x="344" y="461"/>
      <point x="362" y="368"/>
      <point x="402" y="280"/>
      <point x="439" y="252" type="qcurve"/>
      <point x="439" y="920" type="line"/>
      <point x="414" y="904"/>
      <point x="381" y="852"/>
      <point x="359" y="789"/>
      <point x="347" y="720"/>
      <point x="342" y="654"/>
      <point x="341" y="596"/>
    </contour>
  </outline>
</glyph>
<glyph name="sterling" format="1">
  <advance width="914"/>
  <unicode hex="00A3"/>
  <outline>
    <contour>
      <point x="801" y="-2" type="line"/>
      <point x="768" y="30"/>
      <point x="705" y="69"/>
      <point x="646" y="90"/>
      <point x="590" y="97"/>
      <point x="563" y="97" type="qcurve"/>
      <point x="504" y="97"/>
      <point x="405" y="63"/>
      <point x="319" y="22"/>
      <point x="245" y="-12"/>
      <point x="211" y="-12" type="qcurve"/>
      <point x="182" y="-12"/>
      <point x="140" y="3"/>
      <point x="126" y="12" type="qcurve"/>
      <point x="109" y="23"/>
      <point x="97" y="36" type="qcurve"/>
      <point x="97" y="226" type="line"/>
      <point x="140" y="240"/>
      <point x="197" y="306"/>
      <point x="231" y="402"/>
      <point x="246" y="523"/>
      <point x="246" y="591" type="qcurve"/>
      <point x="246" y="643"/>
      <point x="226" y="754"/>
      <point x="196" y="867"/>
      <point x="160" y="977"/>
      <point x="130" y="1077"/>
      <point x="110" y="1165"/>
      <point x="110" y="1199" type="qcurve"/>
      <point x="110" y="1284"/>
      <point x="176" y="1419"/>
      <point x="281" y="1514"/>
      <point x="414" y="1564"/>
      <point x="482" y="1564" type="qcurve"/>
      <point x="546" y="1564"/>
      <point x="668" y="1526"/>
      <point x="769" y="1445"/>
      <point x="839" y="1320"/>
      <point x="851" y="1233" type="qcurve"/>
      <point x="619" y="1145" type="line"/>
      <point x="619" y="1240"/>
      <point x="549" y="1331"/>
      <point x="496" y="1331" type="qcurve"/>
      <point x="458" y="1331"/>
      <point x="404" y="1260"/>
      <point x="404" y="1179" type="qcurve"/>
      <point x="404" y="1108"/>
      <point x="451" y="977"/>
      <point x="507" y="847"/>
      <point x="554" y="710"/>
      <point x="554" y="632" type="qcurve"/>
      <point x="554" y="559"/>
      <point x="502" y="390"/>
      <point x="435" y="288" type="qcurve"/>
      <point x="504" y="322"/>
      <point x="576" y="322" type="qcurve"/>
      <point x="645" y="322"/>
      <point x="777" y="273"/>
      <point x="843" y="231" type="qcurve"/>
      <point x="843" y="10" type="line"/>
    </contour>
    <contour>
      <point x="105" y="827" type="line"/>
      <point x="701" y="827" type="line"/>
      <point x="701" y="636" type="line"/>
      <point x="105" y="636" type="line"/>
    </contour>
  </outline>
</glyph>
<glyph name="currency" format="1">
  <advance width="1213"/>
  <unicode hex="00A4"/>
  <outline>
    <contour>
      <point x="183" y="447" type="line"/>
      <point x="88" y="556" type="line"/>
      <point x="228" y="679" type="line"/>
      <point x="202" y="729"/>
      <point x="176" y="846"/>
      <point x="176" y="912" type="qcurve"/>
      <point x="176" y="980"/>
      <point x="203" y="1100"/>
      <point x="232" y="1151" type="qcurve"/>
      <point x="88" y="1278" type="line"/>
      <point x="183" y="1387" type="line"/>
      <point x="326" y="1261" type="line"/>
      <point x="378" y="1300"/>
      <point x="518" y="1343"/>
      <point x="608" y="1343" type="qcurve"/>
      <point x="698" y="1343"/>
      <point x="837" y="1299"/>
      <point x="889" y="1260" type="qcurve"/>
      <point x="1033" y="1387" type="line"/>
      <point x="1128" y="1278" type="line"/>
      <point x="983" y="1150" type="line"/>
      <point x="1011" y="1099"/>
      <point x="1038" y="979"/>
      <point x="1038" y="912" type="qcurve"/>
      <point x="1038" y="846"/>
      <point x="1012" y="730"/>
      <point x="986" y="680" type="qcurve"/>
      <point x="1128" y="556" type="line"/>
      <point x="1033" y="447" type="line"/>
      <point x="894" y="569" type="line"/>
      <point x="841" y="527"/>
      <point x="699" y="482"/>
      <point x="606" y="482" type="qcurve"/>
      <point x="607" y="482" type="line"/>
      <point x="515" y="482"/>
      <point x="373" y="527"/>
      <point x="321" y="568" type="qcurve"/>
    </contour>
    <contour>
      <point x="607" y="698" type="qcurve"/>
      <point x="798" y="698"/>
      <point x="798" y="912" type="qcurve"/>
      <point x="798" y="1127"/>
      <point x="607" y="1127" type="qcurve"/>
      <point x="416" y="1127"/>
      <point x="416" y="912" type="qcurve"/>
      <point x="416" y="698"/>
    </contour>
  </outline>
</glyph>
<glyph name="brokenbar" format="1">
  <advance width="590"/>
  <unicode hex="00A6"/>
  <outline>
    <contour>
      <point x="145" y="576" type="line"/>
      <point x="445" y="576" type="line"/>
      <point x="445" y="-96" type="line"/>
      <point x="145" y="-96" type="line"/>
    </contour>
    <contour>
      <point x="145" y="1632" type="line"/>
      <point x="445" y="1632" type="line"/>
      <point x="445" y="960" type="line"/>
      <point x="145" y="960" type="line"/>
    </contour>
  </outline>
</glyph>
<glyph name="section" format="1">
  <advance width="984"/>
  <unicode hex="00A7"/>
  <outline>
    <contour>
      <point x="305" y="312" type="line"/>
      <point x="314" y="273"/>
      <point x="336" y="243" type="qcurve"/>
      <point x="354" y="217"/>
      <point x="420" y="175"/>
      <point x="473" y="175" type="qcurve"/>
      <point x="493" y="175"/>
      <point x="544" y="184"/>
      <point x="588" y="206"/>
      <point x="618" y="241"/>
      <point x="618" y="268" type="qcurve"/>
      <point x="618" y="305"/>
      <point x="566" y="353"/>
      <point x="531" y="367" type="qcurve"/>
      <point x="290" y="465" type="line"/>
      <point x="193" y="503"/>
      <point x="90" y="663"/>
      <point x="90" y="779" type="qcurve"/>
      <point x="90" y="850"/>
      <point x="135" y="963"/>
      <point x="173" y="1007" type="qcurve"/>
      <point x="100" y="1091"/>
      <point x="100" y="1225" type="qcurve"/>
      <point x="100" y="1309"/>
      <point x="166" y="1437"/>
      <point x="274" y="1524"/>
      <point x="414" y="1568"/>
      <point x="489" y="1568" type="qcurve"/>
      <point x="551" y="1568"/>
      <point x="672" y="1533"/>
      <point x="776" y="1465"/>
      <point x="853" y="1365"/>
      <point x="872" y="1300" type="qcurve"/>
      <point x="636" y="1227" type="line"/>
      <point x="625" y="1265"/>
      <point x="606" y="1296" type="qcurve"/>
      <point x="589" y="1322"/>
      <point x="533" y="1365"/>
      <point x="491" y="1365" type="qcurve"/>
      <point x="468" y="1365"/>
      <point x="424" y="1355"/>
      <point x="389" y="1332"/>
      <point x="367" y="1297"/>
      <point x="367" y="1273" type="qcurve"/>
      <point x="367" y="1254"/>
      <point x="388" y="1223"/>
      <point x="419" y="1198"/>
      <point x="453" y="1180"/>
      <point x="467" y="1175" type="qcurve"/>
      <point x="672" y="1090" type="line"/>
      <point x="720" y="1070"/>
      <point x="805" y="1015"/>
      <point x="868" y="939"/>
      <point x="904" y="839"/>
      <point x="904" y="773" type="qcurve"/>
      <point x="904" y="695"/>
      <point x="854" y="574"/>
      <point x="812" y="529" type="qcurve"/>
      <point x="850" y="491"/>
      <point x="894" y="387"/>
      <point x="894" y="317" type="qcurve"/>
      <point x="894" y="230"/>
      <point x="824" y="99"/>
      <point x="710" y="12"/>
      <point x="566" y="-32"/>
      <point x="492" y="-32" type="qcurve"/>
      <point x="404" y="-32"/>
      <point x="266" y="6"/>
      <point x="164" y="77"/>
      <point x="98" y="178"/>
      <point x="83" y="240" type="qcurve"/>
    </contour>
    <contour>
      <point x="357" y="827" type="qcurve"/>
      <point x="357" y="804"/>
      <point x="378" y="767"/>
      <point x="409" y="738"/>
      <point x="443" y="716"/>
      <point x="457" y="709" type="qcurve"/>
      <point x="590" y="654" type="line"/>
      <point x="605" y="665"/>
      <point x="628" y="698"/>
      <point x="628" y="724" type="qcurve"/>
      <point x="628" y="761"/>
      <point x="576" y="809"/>
      <point x="541" y="823" type="qcurve"/>
      <point x="380" y="888" type="line"/>
      <point x="370" y="877"/>
      <point x="357" y="847"/>
    </contour>
  </outline>
</glyph>
<glyph name="dieresis" format="1">
  <advance width="1091"/>
  <unicode hex="00A8"/>
  <outline>
    <contour>
      <point x="162" y="1536" type="line"/>
      <point x="162" y="1248" type="line"/>
      <point x="450" y="1248" type="line"/>
      <point x="450" y="1536" type="line"/>
    </contour>
    <contour>
      <point x="642" y="1536" type="line"/>
      <point x="642" y="1248" type="line"/>
      <point x="930" y="1248" type="line"/>
      <point x="930" y="1536" type="line"/>
    </contour>
  </outline>
</glyph>
<glyph name="copyright" format="1">
  <advance width="1397"/>
  <unicode hex="00A9"/>
  <outline>
    <contour>
      <point x="995" y="582" type="line"/>
      <point x="995" y="515"/>
      <point x="960" y="392"/>
      <point x="889" y="298"/>
      <point x="780" y="242"/>
      <point x="707" y="242" type="qcurve"/>
      <point x="620" y="242"/>
      <point x="500" y="324"/>
      <point x="425" y="454"/>
      <point x="391" y="612"/>
      <point x="391" y="689" type="qcurve"/>
      <point x="391" y="736"/>
      <point x="406" y="834"/>
      <point x="437" y="927"/>
      <point x="488" y="1009"/>
      <point x="559" y="1070"/>
      <point x="653" y="1106"/>
      <point x="712" y="1106" type="qcurve"/>
      <point x="778" y="1106"/>
      <point x="883" y="1046"/>
      <point x="956" y="948"/>
      <point x="994" y="826"/>
      <point x="994" y="763" type="qcurve"/>
      <point x="803" y="755" type="line"/>
      <point x="803" y="759"/>
      <point x="801" y="791"/>
      <point x="795" y="833"/>
      <point x="782" y="879"/>
      <point x="759" y="918"/>
      <point x="725" y="944"/>
      <point x="700" y="944" type="qcurve"/>
      <point x="664" y="944"/>
      <point x="621" y="897"/>
      <point x="597" y="823"/>
      <point x="589" y="732"/>
      <point x="589" y="689" type="qcurve"/>
      <point x="589" y="633"/>
      <point x="598" y="526"/>
      <point x="625" y="442"/>
      <point x="677" y="391"/>
      <point x="720" y="391" type="qcurve"/>
      <point x="751" y="391"/>
      <point x="791" y="431"/>
      <point x="814" y="493"/>
      <point x="825" y="566"/>
      <point x="827" y="598" type="qcurve"/>
    </contour>
    <contour>
      <point x="187" y="673" type="qcurve"/>
      <point x="187" y="561"/>
      <point x="268" y="364"/>
      <point x="407" y="218"/>
      <point x="593" y="133"/>
      <point x="699" y="133" type="qcurve"/>
      <point x="804" y="133"/>
      <point x="990" y="218"/>
      <point x="1129" y="364"/>
      <point x="1210" y="561"/>
      <point x="1210" y="673" type="qcurve"/>
      <point x="1210" y="785"/>
      <point x="1129" y="982"/>
      <point x="990" y="1128"/>
      <point x="804" y="1213"/>
      <point x="699" y="1213" type="qcurve"/>
      <point x="593" y="1213"/>
      <point x="407" y="1128"/>
      <point x="268" y="982"/>
      <point x="187" y="785"/>
    </contour>
    <contour>
      <point x="54" y="673" type="qcurve"/>
      <point x="54" y="766"/>
      <point x="100" y="938"/>
      <point x="184" y="1088"/>
      <point x="302" y="1210"/>
      <point x="446" y="1298"/>
      <point x="610" y="1346"/>
      <point x="699" y="1346" type="qcurve"/>
      <point x="787" y="1346"/>
      <point x="952" y="1298"/>
      <point x="1095" y="1210"/>
      <point x="1213" y="1088"/>
      <point x="1297" y="938"/>
      <point x="1343" y="766"/>
      <point x="1343" y="673" type="qcurve"/>
      <point x="1343" y="580"/>
      <point x="1297" y="408"/>
      <point x="1213" y="258"/>
      <point x="1095" y="136"/>
      <point x="952" y="48"/>
      <point x="787" y="0"/>
      <point x="699" y="0" type="qcurve"/>
      <point x="610" y="0"/>
      <point x="446" y="48"/>
      <point x="302" y="136"/>
      <point x="184" y="258"/>
      <point x="100" y="408"/>
      <point x="54" y="580"/>
    </contour>
  </outline>
</glyph>
<glyph name="ordfeminine" format="1">
  <advance width="774"/>
  <unicode hex="00AA"/>
  <outline>
    <contour>
      <point x="68" y="549" type="curve" smooth="yes"/>
      <point x="68" y="399"/>
      <point x="145" y="288"/>
      <point x="260" y="288" type="curve" smooth="yes"/>
      <point x="332" y="288"/>
      <point x="416" y="343"/>
      <point x="447" y="403" type="curve"/>
      <point x="470" y="299" type="line"/>
      <point x="676" y="317" type="line"/>
      <point x="671" y="333"/>
      <point x="668" y="350"/>
      <point x="665" y="367" type="curve"/>
      <point x="658" y="396"/>
      <point x="654" y="433"/>
      <point x="654" y="468" type="curve" smooth="yes"/>
      <point x="654" y="907" type="line" smooth="yes"/>
      <point x="654" y="1052"/>
      <point x="573" y="1167"/>
      <point x="380" y="1167" type="curve" smooth="yes"/>
      <point x="258" y="1167"/>
      <point x="119" y="1120"/>
      <point x="98" y="952" type="curve"/>
      <point x="304" y="916" type="line"/>
      <point x="309" y="962"/>
      <point x="329" y="1012"/>
      <point x="380" y="1012" type="curve" smooth="yes"/>
      <point x="441" y="1012"/>
      <point x="442" y="930"/>
      <point x="442" y="853" type="curve"/>
      <point x="294" y="842"/>
      <point x="68" y="790"/>
    </contour>
    <contour>
      <point x="276" y="552" type="curve" smooth="yes"/>
      <point x="276" y="682"/>
      <point x="347" y="726"/>
      <point x="442" y="726" type="curve"/>
      <point x="442" y="490" type="line"/>
      <point x="434" y="481"/>
      <point x="425" y="472"/>
      <point x="416" y="465" type="curve" smooth="yes"/>
      <point x="400" y="452"/>
      <point x="379" y="440"/>
      <point x="360" y="440" type="curve" smooth="yes"/>
      <point x="301" y="440"/>
      <point x="276" y="484"/>
    </contour>
  </outline>
</glyph>
<glyph name="guillemotleft" format="1">
  <advance width="1244"/>
  <unicode hex="00AB"/>
  <outline>
    <contour>
      <point x="54" y="439" type="line"/>
      <point x="54" y="704" type="line"/>
      <point x="564" y="1094" type="line"/>
      <point x="550" y="833" type="line"/>
      <point x="249" y="607" type="line"/>
      <point x="576" y="402" type="line"/>
      <point x="562" y="59" type="line"/>
    </contour>
    <contour>
      <point x="630" y="439" type="line"/>
      <point x="630" y="704" type="line"/>
      <point x="1140" y="1094" type="line"/>
      <point x="1126" y="833" type="line"/>
      <point x="825" y="607" type="line"/>
      <point x="1152" y="402" type="line"/>
      <point x="1138" y="59" type="line"/>
    </contour>
  </outline>
</glyph>
<glyph name="registered" format="1">
  <advance width="1397"/>
  <unicode hex="00AE"/>
  <outline>
    <contour>
      <point x="187" y="673" type="qcurve"/>
      <point x="187" y="561"/>
      <point x="268" y="364"/>
      <point x="407" y="218"/>
      <point x="593" y="133"/>
      <point x="699" y="133" type="qcurve"/>
      <point x="804" y="133"/>
      <point x="990" y="218"/>
      <point x="1129" y="364"/>
      <point x="1210" y="561"/>
      <point x="1210" y="673" type="qcurve"/>
      <point x="1210" y="785"/>
      <point x="1129" y="982"/>
      <point x="990" y="1128"/>
      <point x="804" y="1213"/>
      <point x="699" y="1213" type="qcurve"/>
      <point x="593" y="1213"/>
      <point x="407" y="1128"/>
      <point x="268" y="982"/>
      <point x="187" y="785"/>
    </contour>
    <contour>
      <point x="54" y="673" type="qcurve"/>
      <point x="54" y="766"/>
      <point x="100" y="938"/>
      <point x="184" y="1088"/>
      <point x="302" y="1210"/>
      <point x="446" y="1298"/>
      <point x="610" y="1346"/>
      <point x="699" y="1346" type="qcurve"/>
      <point x="787" y="1346"/>
      <point x="952" y="1298"/>
      <point x="1095" y="1210"/>
      <point x="1213" y="1088"/>
      <point x="1297" y="938"/>
      <point x="1343" y="766"/>
      <point x="1343" y="673" type="qcurve"/>
      <point x="1343" y="580"/>
      <point x="1297" y="408"/>
      <point x="1213" y="258"/>
      <point x="1095" y="136"/>
      <point x="952" y="48"/>
      <point x="787" y="0"/>
      <point x="699" y="0" type="qcurve"/>
      <point x="610" y="0"/>
      <point x="446" y="48"/>
      <point x="302" y="136"/>
      <point x="184" y="258"/>
      <point x="100" y="408"/>
      <point x="54" y="580"/>
    </contour>
    <contour>
      <point x="468" y="1094" type="line"/>
      <point x="594" y="1094" type="line"/>
      <point x="645" y="1094"/>
      <point x="755" y="1093"/>
      <point x="859" y="1080"/>
      <point x="954" y="1050"/>
      <point x="1024" y="992"/>
      <point x="1066" y="899"/>
      <point x="1066" y="831" type="qcurve"/>
      <point x="1066" y="776"/>
      <point x="1032" y="698"/>
      <point x="972" y="644"/>
      <point x="894" y="613"/>
      <point x="804" y="596"/>
      <point x="710" y="591"/>
      <point x="665" y="591" type="qcurve"/>
      <point x="665" y="233" type="line"/>
      <point x="468" y="233" type="line"/>
    </contour>
    <contour>
      <point x="700" y="731" type="line"/>
      <point x="734" y="731"/>
      <point x="795" y="739"/>
      <point x="842" y="762"/>
      <point x="869" y="801"/>
      <point x="869" y="832" type="qcurve"/>
      <point x="869" y="865"/>
      <point x="846" y="906"/>
      <point x="801" y="928"/>
      <point x="737" y="936"/>
      <point x="695" y="936" type="qcurve"/>
      <point x="667" y="936" type="line"/>
      <point x="667" y="731" type="line"/>
    </contour>
  </outline>
</glyph>
<glyph name="macron" format="1">
  <advance width="898"/>
  <unicode hex="00AF"/>
  <outline>
    <contour>
      <point x="162" y="1440" type="line"/>
      <point x="738" y="1440" type="line"/>
      <point x="738" y="1248" type="line"/>
      <point x="162" y="1248" type="line"/>
    </contour>
  </outline>
</glyph>
<glyph name="degree" format="1">
  <advance width="921"/>
  <unicode hex="00B0"/>
  <outline>
    <contour>
      <point x="68" y="769" type="curve" smooth="yes"/>
      <point x="68" y="550"/>
      <point x="201" y="387"/>
      <point x="469" y="387" type="curve" smooth="yes"/>
      <point x="717" y="387"/>
      <point x="852" y="550"/>
      <point x="852" y="769" type="curve" smooth="yes"/>
      <point x="852" y="988"/>
      <point x="717" y="1151"/>
      <point x="469" y="1151" type="curve" smooth="yes"/>
      <point x="201" y="1151"/>
      <point x="68" y="988"/>
    </contour>
    <contour>
      <point x="603" y="769" type="curve" smooth="yes"/>
      <point x="603" y="705"/>
      <point x="600" y="579"/>
      <point x="468" y="579" type="curve" smooth="yes"/>
      <point x="315" y="579"/>
      <point x="316" y="705"/>
      <point x="316" y="769" type="curve" smooth="yes"/>
      <point x="316" y="833"/>
      <point x="315" y="959"/>
      <point x="468" y="959" type="curve" smooth="yes"/>
      <point x="600" y="959"/>
      <point x="603" y="833"/>
    </contour>
  </outline>
</glyph>
<glyph name="plusminus" format="1">
  <advance width="866"/>
  <unicode hex="00B1"/>
  <outline>
    <contour>
      <point x="553" y="576" type="line"/>
      <point x="553" y="336" type="line"/>
      <point x="315" y="336" type="line"/>
      <point x="315" y="576" type="line"/>
      <point x="75" y="576" type="line"/>
      <point x="75" y="814" type="line"/>
      <point x="315" y="814" type="line"/>
      <point x="315" y="1054" type="line"/>
      <point x="553" y="1054" type="line"/>
      <point x="553" y="814" type="line"/>
      <point x="793" y="814" type="line"/>
      <point x="793" y="576" type="line"/>
    </contour>
    <contour>
      <point x="142" y="239" type="line"/>
      <point x="718" y="239" type="line"/>
      <point x="718" y="1" type="line"/>
      <point x="142" y="1" type="line"/>
    </contour>
  </outline>
</glyph>
<glyph name="twosuperior" format="1">
  <advance width="840"/>
  <unicode hex="00B2"/>
  <outline>
    <contour>
      <point x="87" y="1321" type="line"/>
      <point x="99" y="1370"/>
      <point x="158" y="1460"/>
      <point x="247" y="1528"/>
      <point x="364" y="1568"/>
      <point x="434" y="1568" type="qcurve"/>
      <point x="499" y="1568"/>
      <point x="615" y="1536"/>
      <point x="703" y="1468"/>
      <point x="754" y="1360"/>
      <point x="754" y="1284" type="qcurve"/>
      <point x="754" y="1215"/>
      <point x="688" y="1074"/>
      <point x="586" y="941"/>
      <point x="462" y="819"/>
      <point x="403" y="768" type="qcurve"/>
      <point x="707" y="768" type="line"/>
      <point x="707" y="739"/>
      <point x="702" y="694"/>
      <point x="696" y="650"/>
      <point x="691" y="605"/>
      <point x="691" y="576" type="qcurve"/>
      <point x="87" y="576" type="line"/>
      <point x="87" y="749" type="line"/>
      <point x="124" y="791"/>
      <point x="209" y="879"/>
      <point x="294" y="968"/>
      <point x="373" y="1058"/>
      <point x="433" y="1149"/>
      <point x="469" y="1240"/>
      <point x="469" y="1286" type="qcurve"/>
      <point x="469" y="1324"/>
      <point x="438" y="1378"/>
      <point x="408" y="1378" type="qcurve"/>
      <point x="382" y="1378"/>
      <point x="350" y="1335"/>
      <point x="341" y="1309" type="qcurve"/>
      <point x="330" y="1279"/>
      <point x="326" y="1241" type="qcurve"/>
    </contour>
  </outline>
</glyph>
<glyph name="threesuperior" format="1">
  <advance width="857"/>
  <unicode hex="00B3"/>
  <outline>
    <contour>
      <point x="85" y="1372" type="line"/>
      <point x="115" y="1424"/>
      <point x="181" y="1498"/>
      <point x="257" y="1545"/>
      <point x="347" y="1567"/>
      <point x="402" y="1567" type="qcurve"/>
      <point x="466" y="1567"/>
      <point x="587" y="1535"/>
      <point x="681" y="1471"/>
      <point x="739" y="1377"/>
      <point x="739" y="1315" type="qcurve"/>
      <point x="739" y="1293"/>
      <point x="729" y="1233"/>
      <point x="691" y="1168"/>
      <point x="616" y="1104"/>
      <point x="552" y="1079" type="qcurve"/>
      <point x="648" y="1049"/>
      <point x="753" y="931"/>
      <point x="753" y="830" type="qcurve"/>
      <point x="753" y="757"/>
      <point x="694" y="644"/>
      <point x="595" y="568"/>
      <point x="463" y="528"/>
      <point x="390" y="528" type="qcurve"/>
      <point x="331" y="528"/>
      <point x="221" y="556"/>
      <point x="130" y="612"/>
      <point x="63" y="697"/>
      <point x="48" y="754" type="qcurve"/>
      <point x="263" y="817" type="line"/>
      <point x="269" y="798"/>
      <point x="287" y="764"/>
      <point x="313" y="738"/>
      <point x="350" y="722"/>
      <point x="377" y="722" type="qcurve"/>
      <point x="401" y="722"/>
      <point x="439" y="739"/>
      <point x="466" y="769"/>
      <point x="480" y="807"/>
      <point x="480" y="828" type="qcurve"/>
      <point x="480" y="874"/>
      <point x="447" y="930"/>
      <point x="391" y="961"/>
      <point x="316" y="971"/>
      <point x="274" y="971" type="qcurve"/>
      <point x="274" y="1164" type="line"/>
      <point x="313" y="1164"/>
      <point x="383" y="1174"/>
      <point x="436" y="1201"/>
      <point x="466" y="1250"/>
      <point x="466" y="1289" type="qcurve"/>
      <point x="466" y="1325"/>
      <point x="423" y="1381"/>
      <point x="380" y="1381" type="qcurve"/>
      <point x="357" y="1381"/>
      <point x="325" y="1354"/>
      <point x="314" y="1337" type="qcurve"/>
      <point x="301" y="1318"/>
      <point x="292" y="1294" type="qcurve"/>
    </contour>
  </outline>
</glyph>
<glyph name="acute" format="1">
  <advance width="613"/>
  <unicode hex="00B4"/>
  <outline>
    <contour>
      <point x="65" y="1346" type="line"/>
      <point x="362" y="1793" type="line"/>
      <point x="589" y="1591" type="line"/>
      <point x="178" y="1245" type="line"/>
    </contour>
  </outline>
</glyph>
<glyph name="mu" format="1">
  <advance width="1099"/>
  <unicode hex="00B5"/>
  <outline>
    <contour>
      <point x="128" y="-204" type="line"/>
      <point x="416" y="-192" type="line"/>
      <point x="416" y="46" type="line"/>
      <point x="434" y="44"/>
      <point x="453" y="43"/>
      <point x="474" y="43" type="curve" smooth="yes"/>
      <point x="542" y="43"/>
      <point x="623" y="76"/>
      <point x="704" y="135" type="curve"/>
      <point x="704" y="-12" type="line"/>
      <point x="992" y="12" type="line"/>
      <point x="992" y="1152" type="line"/>
      <point x="704" y="1128" type="line"/>
      <point x="704" y="318" type="line"/>
      <point x="635" y="273"/>
      <point x="563" y="228"/>
      <point x="511" y="228" type="curve" smooth="yes"/>
      <point x="454" y="228"/>
      <point x="416" y="268"/>
      <point x="416" y="381" type="curve" smooth="yes"/>
      <point x="416" y="1152" type="line"/>
      <point x="128" y="1128" type="line"/>
    </contour>
  </outline>
</glyph>
<glyph name="paragraph" format="1">
  <advance width="1152"/>
  <unicode hex="00B6"/>
  <outline>
    <contour>
      <point x="1095" y="1288" type="line"/>
      <point x="951" y="1288" type="line"/>
      <point x="951" y="0" type="line"/>
      <point x="719" y="0" type="line"/>
      <point x="719" y="764" type="line"/>
      <point x="681" y="764"/>
      <point x="606" y="766"/>
      <point x="567" y="770" type="qcurve"/>
      <point x="567" y="0" type="line"/>
      <point x="335" y="0" type="line"/>
      <point x="335" y="801" type="line"/>
      <point x="273" y="818"/>
      <point x="167" y="872"/>
      <point x="90" y="955"/>
      <point x="47" y="1069"/>
      <point x="47" y="1145" type="qcurve"/>
      <point x="47" y="1247"/>
      <point x="119" y="1384"/>
      <point x="241" y="1471"/>
      <point x="403" y="1516"/>
      <point x="583" y="1535"/>
      <point x="771" y="1536"/>
      <point x="859" y="1536" type="qcurve"/>
      <point x="1095" y="1536" type="line"/>
    </contour>
  </outline>
</glyph>
<glyph name="periodcentered" format="1">
  <advance width="516"/>
  <unicode hex="00B7"/>
  <outline>
    <contour>
      <point x="114" y="768" type="line"/>
      <point x="114" y="480" type="line"/>
      <point x="402" y="480" type="line"/>
      <point x="402" y="768" type="line"/>
    </contour>
  </outline>
</glyph>
<glyph name="cedilla" format="1">
  <advance width="551"/>
  <unicode hex="00B8"/>
  <outline>
    <contour>
      <point x="164" y="48" type="line"/>
      <point x="316" y="48" type="line"/>
      <point x="286" y="-76" type="line"/>
      <point x="347" y="-93"/>
      <point x="429" y="-145"/>
      <point x="481" y="-201"/>
      <point x="509" y="-258"/>
      <point x="521" y="-305"/>
      <point x="522" y="-336"/>
      <point x="522" y="-339" type="qcurve"/>
      <point x="522" y="-399"/>
      <point x="486" y="-481"/>
      <point x="426" y="-533"/>
      <point x="348" y="-556"/>
      <point x="306" y="-556" type="qcurve"/>
      <point x="241" y="-556"/>
      <point x="118" y="-521"/>
      <point x="76" y="-492" type="qcurve"/>
      <point x="76" y="-327" type="line"/>
      <point x="120" y="-347"/>
      <point x="191" y="-363"/>
      <point x="220" y="-363" type="qcurve"/>
      <point x="272" y="-363"/>
      <point x="316" y="-319"/>
      <point x="316" y="-289" type="qcurve"/>
      <point x="316" y="-269"/>
      <point x="294" y="-227"/>
      <point x="247" y="-193"/>
      <point x="175" y="-171"/>
      <point x="124" y="-171" type="qcurve"/>
    </contour>
  </outline>
</glyph>
<glyph name="onesuperior" format="1">
  <advance width="763"/>
  <unicode hex="00B9"/>
  <outline>
    <contour>
      <point x="104" y="768" type="line"/>
      <point x="283" y="768" type="line"/>
      <point x="283" y="1206" type="line"/>
      <point x="252" y="1202"/>
      <point x="221" y="1198" type="qcurve"/>
      <point x="195" y="1195"/>
      <point x="137" y="1190"/>
      <point x="117" y="1190" type="qcurve"/>
      <point x="91" y="1190" type="line"/>
      <point x="91" y="1331" type="line"/>
      <point x="422" y="1536" type="line"/>
      <point x="523" y="1536" type="line"/>
      <point x="523" y="768" type="line"/>
      <point x="710" y="768" type="line"/>
      <point x="698" y="576" type="line"/>
      <point x="104" y="576" type="line"/>
    </contour>
  </outline>
</glyph>
<glyph name="ordmasculine" format="1">
  <advance width="951"/>
  <unicode hex="00BA"/>
  <outline>
    <contour>
      <point x="474" y="557" type="qcurve"/>
      <point x="510" y="557"/>
      <point x="565" y="593"/>
      <point x="601" y="653"/>
      <point x="619" y="729"/>
      <point x="619" y="769" type="qcurve"/>
      <point x="619" y="809"/>
      <point x="601" y="886"/>
      <point x="565" y="947"/>
      <point x="511" y="984"/>
      <point x="475" y="984" type="qcurve"/>
      <point x="439" y="984"/>
      <point x="385" y="948"/>
      <point x="349" y="888"/>
      <point x="331" y="811"/>
      <point x="331" y="771" type="qcurve"/>
      <point x="331" y="732"/>
      <point x="349" y="656"/>
      <point x="385" y="596"/>
      <point x="438" y="558"/>
    </contour>
    <contour>
      <point x="476" y="363" type="qcurve"/>
      <point x="378" y="363"/>
      <point x="231" y="423"/>
      <point x="133" y="530"/>
      <point x="84" y="678"/>
      <point x="84" y="767" type="qcurve"/>
      <point x="84" y="854"/>
      <point x="133" y="1000"/>
      <point x="231" y="1107"/>
      <point x="378" y="1167"/>
      <point x="476" y="1167" type="qcurve"/>
      <point x="572" y="1167"/>
      <point x="718" y="1107"/>
      <point x="817" y="1000"/>
      <point x="868" y="854"/>
      <point x="868" y="767" type="qcurve"/>
      <point x="868" y="678"/>
      <point x="817" y="530"/>
      <point x="718" y="423"/>
      <point x="572" y="363"/>
    </contour>
  </outline>
</glyph>
<glyph name="guillemotright" format="1">
  <advance width="1244"/>
  <unicode hex="00BB"/>
  <outline>
    <contour>
      <point x="1190" y="439" type="line"/>
      <point x="1190" y="704" type="line"/>
      <point x="680" y="1094" type="line"/>
      <point x="694" y="833" type="line"/>
      <point x="995" y="607" type="line"/>
      <point x="668" y="402" type="line"/>
      <point x="682" y="59" type="line"/>
    </contour>
    <contour>
      <point x="614" y="439" type="line"/>
      <point x="614" y="704" type="line"/>
      <point x="104" y="1094" type="line"/>
      <point x="118" y="833" type="line"/>
      <point x="419" y="607" type="line"/>
      <point x="92" y="402" type="line"/>
      <point x="106" y="59" type="line"/>
    </contour>
  </outline>
</glyph>
<glyph name="onehalf" format="1">
  <advance width="1984"/>
  <unicode hex="00BD"/>
  <outline>
    <contour>
      <point x="1058" y="1536" type="line"/>
      <point x="1346" y="1536" type="line"/>
      <point x="962" y="0" type="line"/>
      <point x="674" y="0" type="line"/>
    </contour>
    <contour>
      <point x="78" y="768" type="line"/>
      <point x="257" y="768" type="line"/>
      <point x="257" y="1206" type="line"/>
      <point x="226" y="1202"/>
      <point x="195" y="1198" type="qcurve"/>
      <point x="169" y="1195"/>
      <point x="111" y="1190"/>
      <point x="91" y="1190" type="qcurve"/>
      <point x="65" y="1190" type="line"/>
      <point x="65" y="1331" type="line"/>
      <point x="396" y="1536" type="line"/>
      <point x="497" y="1536" type="line"/>
      <point x="497" y="768" type="line"/>
      <point x="684" y="768" type="line"/>
      <point x="672" y="576" type="line"/>
      <point x="78" y="576" type="line"/>
    </contour>
    <contour>
      <point x="1267" y="745" type="line"/>
      <point x="1279" y="794"/>
      <point x="1338" y="884"/>
      <point x="1427" y="952"/>
      <point x="1544" y="992"/>
      <point x="1614" y="992" type="qcurve"/>
      <point x="1679" y="992"/>
      <point x="1795" y="960"/>
      <point x="1883" y="892"/>
      <point x="1934" y="784"/>
      <point x="1934" y="708" type="qcurve"/>
      <point x="1934" y="639"/>
      <point x="1868" y="498"/>
      <point x="1766" y="365"/>
      <point x="1642" y="243"/>
      <point x="1583" y="192" type="qcurve"/>
      <point x="1887" y="192" type="line"/>
      <point x="1887" y="163"/>
      <point x="1882" y="118"/>
      <point x="1876" y="74"/>
      <point x="1871" y="29"/>
      <point x="1871" y="0" type="qcurve"/>
      <point x="1267" y="0" type="line"/>
      <point x="1267" y="173" type="line"/>
      <point x="1304" y="215"/>
      <point x="1389" y="303"/>
      <point x="1474" y="392"/>
      <point x="1553" y="482"/>
      <point x="1613" y="573"/>
      <point x="1649" y="664"/>
      <point x="1649" y="710" type="qcurve"/>
      <point x="1649" y="748"/>
      <point x="1618" y="802"/>
      <point x="1588" y="802" type="qcurve"/>
      <point x="1562" y="802"/>
      <point x="1530" y="759"/>
      <point x="1521" y="733" type="qcurve"/>
      <point x="1510" y="703"/>
      <point x="1506" y="665" type="qcurve"/>
    </contour>
  </outline>
</glyph>
<glyph name="threequarters" format="1">
  <advance width="1981"/>
  <unicode hex="00BE"/>
  <outline>
    <contour>
      <point x="1053" y="1536" type="line"/>
      <point x="1341" y="1536" type="line"/>
      <point x="957" y="0" type="line"/>
      <point x="669" y="0" type="line"/>
    </contour>
    <contour>
      <point x="80" y="1372" type="line"/>
      <point x="110" y="1424"/>
      <point x="176" y="1498"/>
      <point x="252" y="1545"/>
      <point x="342" y="1567"/>
      <point x="397" y="1567" type="qcurve"/>
      <point x="461" y="1567"/>
      <point x="582" y="1535"/>
      <point x="676" y="1471"/>
      <point x="734" y="1377"/>
      <point x="734" y="1315" type="qcurve"/>
      <point x="734" y="1293"/>
      <point x="724" y="1233"/>
      <point x="686" y="1168"/>
      <point x="611" y="1104"/>
      <point x="547" y="1079" type="qcurve"/>
      <point x="643" y="1049"/>
      <point x="748" y="931"/>
      <point x="748" y="830" type="qcurve"/>
      <point x="748" y="757"/>
      <point x="689" y="644"/>
      <point x="590" y="568"/>
      <point x="458" y="528"/>
      <point x="385" y="528" type="qcurve"/>
      <point x="326" y="528"/>
      <point x="216" y="556"/>
      <point x="125" y="612"/>
      <point x="58" y="697"/>
      <point x="43" y="754" type="qcurve"/>
      <point x="258" y="817" type="line"/>
      <point x="264" y="798"/>
      <point x="282" y="764"/>
      <point x="308" y="738"/>
      <point x="345" y="722"/>
      <point x="372" y="722" type="qcurve"/>
      <point x="396" y="722"/>
      <point x="434" y="739"/>
      <point x="461" y="769"/>
      <point x="475" y="807"/>
      <point x="475" y="828" type="qcurve"/>
      <point x="475" y="874"/>
      <point x="442" y="930"/>
      <point x="386" y="961"/>
      <point x="311" y="971"/>
      <point x="269" y="971" type="qcurve"/>
      <point x="269" y="1164" type="line"/>
      <point x="308" y="1164"/>
      <point x="378" y="1174"/>
      <point x="431" y="1201"/>
      <point x="461" y="1250"/>
      <point x="461" y="1289" type="qcurve"/>
      <point x="461" y="1325"/>
      <point x="418" y="1381"/>
      <point x="375" y="1381" type="qcurve"/>
      <point x="352" y="1381"/>
      <point x="320" y="1354"/>
      <point x="309" y="1337" type="qcurve"/>
      <point x="296" y="1318"/>
      <point x="287" y="1294" type="qcurve"/>
    </contour>
    <contour>
      <point x="1561" y="192" type="line"/>
      <point x="1171" y="192" type="line"/>
      <point x="1171" y="360" type="line"/>
      <point x="1523" y="960" type="line"/>
      <point x="1809" y="960" type="line"/>
      <point x="1809" y="370" type="line"/>
      <point x="1934" y="370" type="line"/>
      <point x="1918" y="192" type="line"/>
      <point x="1809" y="192" type="line"/>
      <point x="1809" y="-32" type="line"/>
      <point x="1561" y="-48" type="line"/>
    </contour>
    <contour>
      <point x="1561" y="370" type="line"/>
      <point x="1561" y="711" type="line"/>
      <point x="1356" y="370" type="line"/>
    </contour>
  </outline>
</glyph>
<glyph name="Acircumflex" format="1">
  <advance width="1131"/>
  <unicode hex="00C2"/>
  <outline>
    <contour>
      <point x="724" y="329" type="line"/>
      <point x="781" y="0" type="line"/>
      <point x="1108" y="12" type="line"/>
      <point x="776" y="1536" type="line"/>
      <point x="349" y="1518" type="line"/>
      <point x="25" y="0" type="line"/>
      <point x="292" y="0" type="line"/>
      <point x="359" y="329" type="line"/>
    </contour>
    <contour>
      <point x="413" y="575" type="line"/>
      <point x="529" y="1310" type="line"/>
      <point x="670" y="575" type="line"/>
    </contour>
    <contour>
      <point x="441" y="1632" type="line"/>
      <point x="557" y="1922" type="line"/>
      <point x="653" y="1632" type="line"/>
      <point x="903" y="1632" type="line"/>
      <point x="673" y="2112" type="line"/>
      <point x="471" y="2112" type="line"/>
      <point x="231" y="1632" type="line"/>
    </contour>
  </outline>
</glyph>
<glyph name="Atilde" format="1">
  <advance width="1131"/>
  <unicode hex="00C3"/>
  <outline>
    <contour>
      <point x="724" y="329" type="line"/>
      <point x="781" y="0" type="line"/>
      <point x="1108" y="12" type="line"/>
      <point x="776" y="1536" type="line"/>
      <point x="349" y="1518" type="line"/>
      <point x="25" y="0" type="line"/>
      <point x="292" y="0" type="line"/>
      <point x="359" y="329" type="line"/>
    </contour>
    <contour>
      <point x="413" y="575" type="line"/>
      <point x="529" y="1310" type="line"/>
      <point x="670" y="575" type="line"/>
    </contour>
    <contour>
      <point x="263" y="1615" type="line"/>
      <point x="280" y="1634"/>
      <point x="297" y="1650"/>
      <point x="316" y="1665" type="curve" smooth="yes"/>
      <point x="347" y="1690"/>
      <point x="389" y="1715"/>
      <point x="430" y="1715" type="curve" smooth="yes"/>
      <point x="544" y="1715"/>
      <point x="598" y="1614"/>
      <point x="694" y="1614" type="curve" smooth="yes"/>
      <point x="814" y="1614"/>
      <point x="885" y="1755"/>
      <point x="885" y="1759" type="curve"/>
      <point x="841" y="1921" type="line"/>
      <point x="831" y="1906"/>
      <point x="819" y="1893"/>
      <point x="805" y="1881" type="curve" smooth="yes"/>
      <point x="781" y="1861"/>
      <point x="743" y="1841"/>
      <point x="692" y="1841" type="curve" smooth="yes"/>
      <point x="607" y="1841"/>
      <point x="547" y="1921"/>
      <point x="441" y="1921" type="curve" smooth="yes"/>
      <point x="396" y="1921"/>
      <point x="348" y="1891"/>
      <point x="311" y="1860" type="curve" smooth="yes"/>
      <point x="289" y="1842"/>
      <point x="268" y="1822"/>
      <point x="248" y="1799" type="curve"/>
    </contour>
  </outline>
</glyph>
<glyph name="Adieresis" format="1">
  <advance width="1131"/>
  <unicode hex="00C4"/>
  <outline>
    <contour>
      <point x="724" y="329" type="line"/>
      <point x="781" y="0" type="line"/>
      <point x="1108" y="12" type="line"/>
      <point x="776" y="1536" type="line"/>
      <point x="349" y="1518" type="line"/>
      <point x="25" y="0" type="line"/>
      <point x="292" y="0" type="line"/>
      <point x="359" y="329" type="line"/>
    </contour>
    <contour>
      <point x="413" y="575" type="line"/>
      <point x="529" y="1310" type="line"/>
      <point x="670" y="575" type="line"/>
    </contour>
    <contour>
      <point x="183" y="1920" type="line"/>
      <point x="183" y="1632" type="line"/>
      <point x="471" y="1632" type="line"/>
      <point x="471" y="1920" type="line"/>
    </contour>
    <contour>
      <point x="663" y="1920" type="line"/>
      <point x="663" y="1632" type="line"/>
      <point x="951" y="1632" type="line"/>
      <point x="951" y="1920" type="line"/>
    </contour>
  </outline>
</glyph>
<glyph name="Aring" format="1">
  <advance width="1131"/>
  <unicode hex="00C5"/>
  <outline>
    <contour>
      <point x="724" y="329" type="line"/>
      <point x="781" y="0" type="line"/>
      <point x="1108" y="12" type="line"/>
      <point x="776" y="1536" type="line"/>
      <point x="349" y="1518" type="line"/>
      <point x="25" y="0" type="line"/>
      <point x="292" y="0" type="line"/>
      <point x="359" y="329" type="line"/>
    </contour>
    <contour>
      <point x="413" y="575" type="line"/>
      <point x="529" y="1310" type="line"/>
      <point x="670" y="575" type="line"/>
    </contour>
    <contour>
      <point x="567" y="1791" type="line"/>
      <point x="505" y="1791"/>
      <point x="443" y="1829"/>
      <point x="443" y="1904" type="curve" smooth="yes"/>
      <point x="443" y="1975"/>
      <point x="505" y="2015"/>
      <point x="567" y="2015" type="curve" smooth="yes"/>
      <point x="627" y="2015"/>
      <point x="690" y="1975"/>
      <point x="690" y="1904" type="curve" smooth="yes"/>
      <point x="690" y="1829"/>
      <point x="626" y="1791"/>
      <point x="566" y="1791" type="curve"/>
    </contour>
    <contour>
      <point x="567" y="1632" type="curve" smooth="yes"/>
      <point x="722" y="1632"/>
      <point x="879" y="1721"/>
      <point x="879" y="1905" type="curve" smooth="yes"/>
      <point x="879" y="2086"/>
      <point x="722" y="2176"/>
      <point x="567" y="2176" type="curve" smooth="yes"/>
      <point x="411" y="2176"/>
      <point x="254" y="2086"/>
      <point x="254" y="1905" type="curve" smooth="yes"/>
      <point x="254" y="1721"/>
      <point x="411" y="1632"/>
    </contour>
  </outline>
</glyph>
<glyph name="Ccedilla" format="1">
  <advance width="1073"/>
  <unicode hex="00C7"/>
  <outline>
    <contour>
      <point x="744" y="547" type="line"/>
      <point x="733" y="414"/>
      <point x="707" y="225"/>
      <point x="582" y="225" type="curve" smooth="yes"/>
      <point x="409" y="225"/>
      <point x="383" y="510"/>
      <point x="383" y="800" type="curve" smooth="yes"/>
      <point x="383" y="1027"/>
      <point x="409" y="1328"/>
      <point x="553" y="1328" type="curve" smooth="yes"/>
      <point x="701" y="1328"/>
      <point x="707" y="1031"/>
      <point x="707" y="999" type="curve"/>
      <point x="997" y="1014" type="line"/>
      <point x="997" y="1285"/>
      <point x="839" y="1568"/>
      <point x="570" y="1568" type="curve" smooth="yes"/>
      <point x="210" y="1568"/>
      <point x="83" y="1145"/>
      <point x="83" y="800" type="curve" smooth="yes"/>
      <point x="83" y="412"/>
      <point x="177" y="-32"/>
      <point x="563" y="-32" type="curve" smooth="yes"/>
      <point x="859" y="-32"/>
      <point x="999" y="237"/>
      <point x="999" y="523" type="curve"/>
    </contour>
    <contour>
      <point x="454" y="-171" type="line"/>
      <point x="589" y="-171"/>
      <point x="646" y="-236"/>
      <point x="646" y="-289" type="curve" smooth="yes"/>
      <point x="646" y="-329"/>
      <point x="619" y="-363"/>
      <point x="550" y="-363" type="curve" smooth="yes"/>
      <point x="511" y="-363"/>
      <point x="465" y="-354"/>
      <point x="406" y="-327" type="curve"/>
      <point x="406" y="-492" type="line"/>
      <point x="462" y="-531"/>
      <point x="549" y="-556"/>
      <point x="636" y="-556" type="curve" smooth="yes"/>
      <point x="748" y="-556"/>
      <point x="852" y="-498"/>
      <point x="852" y="-339" type="curve" smooth="yes"/>
      <point x="852" y="-330"/>
      <point x="859" y="-144"/>
      <point x="616" y="-76" type="curve"/>
      <point x="646" y="48" type="line"/>
      <point x="494" y="48" type="line"/>
    </contour>
  </outline>
</glyph>
<glyph name="Eacute" format="1">
  <advance width="988"/>
  <unicode hex="00C9"/>
  <outline>
    <contour>
      <point x="142" y="0" type="line"/>
      <point x="914" y="0" type="line"/>
      <point x="938" y="240" type="line"/>
      <point x="442" y="240" type="line"/>
      <point x="442" y="672" type="line"/>
      <point x="764" y="672" type="line"/>
      <point x="765" y="930" type="line"/>
      <point x="442" y="930" type="line"/>
      <point x="442" y="1296" type="line"/>
      <point x="898" y="1296" type="line"/>
      <point x="922" y="1536" type="line"/>
      <point x="142" y="1536" type="line"/>
    </contour>
    <contour>
      <point x="474" y="1629" type="line"/>
      <point x="885" y="1975" type="line"/>
      <point x="658" y="2177" type="line"/>
      <point x="361" y="1730" type="line"/>
    </contour>
  </outline>
</glyph>
<glyph name="Ecircumflex" format="1">
  <advance width="988"/>
  <unicode hex="00CA"/>
  <outline>
    <contour>
      <point x="142" y="0" type="line"/>
      <point x="914" y="0" type="line"/>
      <point x="938" y="240" type="line"/>
      <point x="442" y="240" type="line"/>
      <point x="442" y="672" type="line"/>
      <point x="764" y="672" type="line"/>
      <point x="765" y="930" type="line"/>
      <point x="442" y="930" type="line"/>
      <point x="442" y="1296" type="line"/>
      <point x="898" y="1296" type="line"/>
      <point x="922" y="1536" type="line"/>
      <point x="142" y="1536" type="line"/>
    </contour>
    <contour>
      <point x="403" y="1632" type="line"/>
      <point x="519" y="1922" type="line"/>
      <point x="615" y="1632" type="line"/>
      <point x="865" y="1632" type="line"/>
      <point x="635" y="2112" type="line"/>
      <point x="433" y="2112" type="line"/>
      <point x="193" y="1632" type="line"/>
    </contour>
  </outline>
</glyph>
<glyph name="Edieresis" format="1">
  <advance width="988"/>
  <unicode hex="00CB"/>
  <outline>
    <contour>
      <point x="142" y="0" type="line"/>
      <point x="914" y="0" type="line"/>
      <point x="938" y="240" type="line"/>
      <point x="442" y="240" type="line"/>
      <point x="442" y="672" type="line"/>
      <point x="764" y="672" type="line"/>
      <point x="765" y="930" type="line"/>
      <point x="442" y="930" type="line"/>
      <point x="442" y="1296" type="line"/>
      <point x="898" y="1296" type="line"/>
      <point x="922" y="1536" type="line"/>
      <point x="142" y="1536" type="line"/>
    </contour>
    <contour>
      <point x="162" y="1920" type="line"/>
      <point x="162" y="1632" type="line"/>
      <point x="450" y="1632" type="line"/>
      <point x="450" y="1920" type="line"/>
    </contour>
    <contour>
      <point x="642" y="1920" type="line"/>
      <point x="642" y="1632" type="line"/>
      <point x="930" y="1632" type="line"/>
      <point x="930" y="1920" type="line"/>
    </contour>
  </outline>
</glyph>
<glyph name="Iacute" format="1">
  <advance width="583"/>
  <unicode hex="00CD"/>
  <outline>
    <contour>
      <point x="142" y="-12" type="line"/>
      <point x="442" y="12" type="line"/>
      <point x="442" y="1536" type="line"/>
      <point x="142" y="1512" type="line"/>
    </contour>
    <contour>
      <point x="141" y="1629" type="line"/>
      <point x="552" y="1975" type="line"/>
      <point x="325" y="2177" type="line"/>
      <point x="28" y="1730" type="line"/>
    </contour>
  </outline>
</glyph>
<glyph name="Icircumflex" format="1">
  <advance width="583"/>
  <unicode hex="00CE"/>
  <outline>
    <contour>
      <point x="142" y="-12" type="line"/>
      <point x="442" y="12" type="line"/>
      <point x="442" y="1536" type="line"/>
      <point x="142" y="1512" type="line"/>
    </contour>
    <contour>
      <point x="164" y="1632" type="line"/>
      <point x="280" y="1922" type="line"/>
      <point x="376" y="1632" type="line"/>
      <point x="626" y="1632" type="line"/>
      <point x="396" y="2112" type="line"/>
      <point x="194" y="2112" type="line"/>
      <point x="-46" y="1632" type="line"/>
    </contour>
  </outline>
</glyph>
<glyph name="Idieresis" format="1">
  <advance width="582"/>
  <unicode hex="00CF"/>
  <outline>
    <contour>
      <point x="142" y="-12" type="line"/>
      <point x="442" y="12" type="line"/>
      <point x="442" y="1536" type="line"/>
      <point x="142" y="1512" type="line"/>
    </contour>
    <contour>
      <point x="-95" y="1920" type="line"/>
      <point x="-95" y="1632" type="line"/>
      <point x="193" y="1632" type="line"/>
      <point x="193" y="1920" type="line"/>
    </contour>
    <contour>
      <point x="385" y="1920" type="line"/>
      <point x="385" y="1632" type="line"/>
      <point x="673" y="1632" type="line"/>
      <point x="673" y="1920" type="line"/>
    </contour>
  </outline>
</glyph>
<glyph name="Eth" format="1">
  <advance width="1138"/>
  <unicode hex="00D0"/>
  <outline>
    <contour>
      <point x="148" y="1536" type="line"/>
      <point x="462" y="1536" type="line"/>
      <point x="765" y="1536"/>
      <point x="1065" y="1153"/>
      <point x="1065" y="762" type="qcurve"/>
      <point x="1065" y="665"/>
      <point x="1039" y="476"/>
      <point x="984" y="307"/>
      <point x="898" y="163"/>
      <point x="776" y="59"/>
      <point x="616" y="0"/>
      <point x="515" y="0" type="qcurve"/>
      <point x="148" y="0" type="line"/>
    </contour>
    <contour>
      <point x="447" y="1296" type="line"/>
      <point x="447" y="240" type="line"/>
      <point x="490" y="240" type="line"/>
      <point x="547" y="240"/>
      <point x="633" y="279"/>
      <point x="694" y="347"/>
      <point x="733" y="438"/>
      <point x="756" y="541"/>
      <point x="765" y="651"/>
      <point x="765" y="705" type="qcurve"/>
      <point x="765" y="754"/>
      <point x="765" y="880"/>
      <point x="753" y="1011"/>
      <point x="721" y="1137"/>
      <point x="659" y="1236"/>
      <point x="558" y="1296"/>
      <point x="482" y="1296" type="qcurve"/>
    </contour>
    <contour>
      <point x="5" y="864" type="line"/>
      <point x="581" y="864" type="line"/>
      <point x="581" y="672" type="line"/>
      <point x="5" y="672" type="line"/>
    </contour>
  </outline>
</glyph>
<glyph name="Ntilde" format="1">
  <advance width="1245"/>
  <unicode hex="00D1"/>
  <outline>
    <contour>
      <point x="858" y="-12" type="line"/>
      <point x="1104" y="12" type="line"/>
      <point x="1104" y="1536" type="line"/>
      <point x="850" y="1512" type="line"/>
      <point x="850" y="622" type="line"/>
      <point x="454" y="1536" type="line"/>
      <point x="141" y="1524" type="line"/>
      <point x="141" y="0" type="line"/>
      <point x="409" y="12" type="line"/>
      <point x="409" y="948" type="line"/>
    </contour>
    <contour>
      <point x="295" y="1615" type="line"/>
      <point x="312" y="1634"/>
      <point x="329" y="1650"/>
      <point x="348" y="1665" type="curve" smooth="yes"/>
      <point x="379" y="1690"/>
      <point x="421" y="1715"/>
      <point x="462" y="1715" type="curve" smooth="yes"/>
      <point x="576" y="1715"/>
      <point x="630" y="1614"/>
      <point x="726" y="1614" type="curve" smooth="yes"/>
      <point x="846" y="1614"/>
      <point x="917" y="1755"/>
      <point x="917" y="1759" type="curve"/>
      <point x="873" y="1921" type="line"/>
      <point x="863" y="1906"/>
      <point x="851" y="1893"/>
      <point x="837" y="1881" type="curve" smooth="yes"/>
      <point x="813" y="1861"/>
      <point x="775" y="1841"/>
      <point x="724" y="1841" type="curve" smooth="yes"/>
      <point x="639" y="1841"/>
      <point x="579" y="1921"/>
      <point x="473" y="1921" type="curve" smooth="yes"/>
      <point x="428" y="1921"/>
      <point x="380" y="1891"/>
      <point x="343" y="1860" type="curve" smooth="yes"/>
      <point x="321" y="1842"/>
      <point x="300" y="1822"/>
      <point x="280" y="1799" type="curve"/>
    </contour>
  </outline>
</glyph>
<glyph name="Ocircumflex" format="1">
  <advance width="1125"/>
  <unicode hex="00D4"/>
  <outline>
    <contour>
      <point x="561" y="-32" type="curve" smooth="yes"/>
      <point x="955" y="-32"/>
      <point x="1039" y="389"/>
      <point x="1039" y="820" type="curve" smooth="yes"/>
      <point x="1039" y="1036"/>
      <point x="1004" y="1225"/>
      <point x="925" y="1356" type="curve" smooth="yes"/>
      <point x="848" y="1487"/>
      <point x="728" y="1561"/>
      <point x="561" y="1561" type="curve" smooth="yes"/>
      <point x="394" y="1561"/>
      <point x="276" y="1487"/>
      <point x="199" y="1356" type="curve" smooth="yes"/>
      <point x="122" y="1225"/>
      <point x="86" y="1036"/>
      <point x="86" y="820" type="curve" smooth="yes"/>
      <point x="86" y="389"/>
      <point x="168" y="-32"/>
    </contour>
    <contour>
      <point x="561" y="223" type="curve" smooth="yes"/>
      <point x="401" y="223"/>
      <point x="385" y="452"/>
      <point x="385" y="820" type="curve" smooth="yes"/>
      <point x="385" y="1001"/>
      <point x="397" y="1322"/>
      <point x="561" y="1322" type="curve" smooth="yes"/>
      <point x="727" y="1322"/>
      <point x="739" y="1001"/>
      <point x="739" y="820" type="curve" smooth="yes"/>
      <point x="739" y="452"/>
      <point x="722" y="223"/>
    </contour>
    <contour>
      <point x="436" y="1632" type="line"/>
      <point x="552" y="1922" type="line"/>
      <point x="648" y="1632" type="line"/>
      <point x="898" y="1632" type="line"/>
      <point x="668" y="2112" type="line"/>
      <point x="466" y="2112" type="line"/>
      <point x="226" y="1632" type="line"/>
    </contour>
  </outline>
</glyph>
<glyph name="Otilde" format="1">
  <advance width="1125"/>
  <unicode hex="00D5"/>
  <outline>
    <contour>
      <point x="561" y="-32" type="curve" smooth="yes"/>
      <point x="955" y="-32"/>
      <point x="1039" y="389"/>
      <point x="1039" y="820" type="curve" smooth="yes"/>
      <point x="1039" y="1036"/>
      <point x="1004" y="1225"/>
      <point x="925" y="1356" type="curve" smooth="yes"/>
      <point x="848" y="1487"/>
      <point x="728" y="1561"/>
      <point x="561" y="1561" type="curve" smooth="yes"/>
      <point x="394" y="1561"/>
      <point x="276" y="1487"/>
      <point x="199" y="1356" type="curve" smooth="yes"/>
      <point x="122" y="1225"/>
      <point x="86" y="1036"/>
      <point x="86" y="820" type="curve" smooth="yes"/>
      <point x="86" y="389"/>
      <point x="168" y="-32"/>
    </contour>
    <contour>
      <point x="561" y="223" type="curve" smooth="yes"/>
      <point x="401" y="223"/>
      <point x="385" y="452"/>
      <point x="385" y="820" type="curve" smooth="yes"/>
      <point x="385" y="1001"/>
      <point x="397" y="1322"/>
      <point x="561" y="1322" type="curve" smooth="yes"/>
      <point x="727" y="1322"/>
      <point x="739" y="1001"/>
      <point x="739" y="820" type="curve" smooth="yes"/>
      <point x="739" y="452"/>
      <point x="722" y="223"/>
    </contour>
    <contour>
      <point x="258" y="1615" type="line"/>
      <point x="275" y="1634"/>
      <point x="292" y="1650"/>
      <point x="311" y="1665" type="curve" smooth="yes"/>
      <point x="342" y="1690"/>
      <point x="384" y="1715"/>
      <point x="425" y="1715" type="curve" smooth="yes"/>
      <point x="539" y="1715"/>
      <point x="593" y="1614"/>
      <point x="689" y="1614" type="curve" smooth="yes"/>
      <point x="809" y="1614"/>
      <point x="880" y="1755"/>
      <point x="880" y="1759" type="curve"/>
      <point x="836" y="1921" type="line"/>
      <point x="826" y="1906"/>
      <point x="814" y="1893"/>
      <point x="800" y="1881" type="curve" smooth="yes"/>
      <point x="776" y="1861"/>
      <point x="738" y="1841"/>
      <point x="687" y="1841" type="curve" smooth="yes"/>
      <point x="602" y="1841"/>
      <point x="542" y="1921"/>
      <point x="436" y="1921" type="curve" smooth="yes"/>
      <point x="391" y="1921"/>
      <point x="343" y="1891"/>
      <point x="306" y="1860" type="curve" smooth="yes"/>
      <point x="284" y="1842"/>
      <point x="263" y="1822"/>
      <point x="243" y="1799" type="curve"/>
    </contour>
  </outline>
</glyph>
<glyph name="Oslash" format="1">
  <advance width="1129"/>
  <unicode hex="00D8"/>
  <outline>
    <contour>
      <point x="562" y="-32" type="qcurve"/>
      <point x="494" y="-32"/>
      <point x="383" y="0"/>
      <point x="293" y="58"/>
      <point x="223" y="142"/>
      <point x="196" y="193" type="qcurve"/>
      <point x="124" y="106" type="line"/>
      <point x="29" y="198" type="line"/>
      <point x="141" y="334" type="line"/>
      <point x="110" y="442"/>
      <point x="87" y="689"/>
      <point x="87" y="820" type="qcurve"/>
      <point x="87" y="989"/>
      <point x="142" y="1265"/>
      <point x="258" y="1461"/>
      <point x="437" y="1568"/>
      <point x="562" y="1568" type="qcurve"/>
      <point x="701" y="1568"/>
      <point x="894" y="1436"/>
      <point x="951" y="1317" type="qcurve"/>
      <point x="1035" y="1419" type="line"/>
      <point x="1130" y="1327" type="line"/>
      <point x="1002" y="1171" type="line"/>
      <point x="1040" y="1016"/>
      <point x="1040" y="820" type="qcurve"/>
      <point x="1040" y="712"/>
      <point x="1024" y="502"/>
      <point x="983" y="313"/>
      <point x="914" y="152"/>
      <point x="808" y="34"/>
      <point x="660" y="-32"/>
    </contour>
    <contour>
      <point x="386" y="820" type="qcurve"/>
      <point x="386" y="769"/>
      <point x="386" y="677"/>
      <point x="388" y="634" type="qcurve"/>
      <point x="729" y="1048" type="line"/>
      <point x="723" y="1103"/>
      <point x="699" y="1204"/>
      <point x="660" y="1282"/>
      <point x="602" y="1329"/>
      <point x="562" y="1329" type="qcurve"/>
      <point x="521" y="1329"/>
      <point x="463" y="1280"/>
      <point x="424" y="1199"/>
      <point x="401" y="1093"/>
      <point x="389" y="980"/>
      <point x="386" y="868"/>
    </contour>
    <contour>
      <point x="562" y="223" type="qcurve"/>
      <point x="622" y="223"/>
      <point x="693" y="306"/>
      <point x="730" y="461"/>
      <point x="740" y="682"/>
      <point x="740" y="820" type="qcurve"/>
      <point x="740" y="853" type="line"/>
      <point x="403" y="444" type="line"/>
      <point x="418" y="338"/>
      <point x="491" y="223"/>
    </contour>
  </outline>
</glyph>
<glyph name="Uacute" format="1">
  <advance width="1163"/>
  <unicode hex="00DA"/>
  <outline>
    <contour>
      <point x="132" y="506" type="line" smooth="yes"/>
      <point x="132" y="217"/>
      <point x="263" y="-32"/>
      <point x="559" y="-32" type="curve" smooth="yes"/>
      <point x="1036" y="-32"/>
      <point x="1031" y="365"/>
      <point x="1031" y="541" type="curve" smooth="yes"/>
      <point x="1031" y="1536" type="line"/>
      <point x="756" y="1512" type="line"/>
      <point x="756" y="485" type="line" smooth="yes"/>
      <point x="756" y="365"/>
      <point x="755" y="223"/>
      <point x="600" y="223" type="curve" smooth="yes"/>
      <point x="436" y="223"/>
      <point x="432" y="360"/>
      <point x="432" y="482" type="curve" smooth="yes"/>
      <point x="432" y="1536" type="line"/>
      <point x="132" y="1524" type="line"/>
    </contour>
    <contour>
      <point x="433" y="1629" type="line"/>
      <point x="844" y="1975" type="line"/>
      <point x="617" y="2177" type="line"/>
      <point x="320" y="1730" type="line"/>
    </contour>
  </outline>
</glyph>
<glyph name="Yacute" format="1">
  <advance width="1027"/>
  <unicode hex="00DD"/>
  <outline>
    <contour>
      <point x="367" y="-12" type="line"/>
      <point x="670" y="12" type="line"/>
      <point x="670" y="643" type="line"/>
      <point x="1025" y="1536" type="line"/>
      <point x="766" y="1536" type="line"/>
      <point x="538" y="896" type="line"/>
      <point x="327" y="1536" type="line"/>
      <point x="-3" y="1536" type="line"/>
      <point x="367" y="608" type="line"/>
    </contour>
    <contour>
      <point x="362" y="1629" type="line"/>
      <point x="773" y="1975" type="line"/>
      <point x="546" y="2177" type="line"/>
      <point x="249" y="1730" type="line"/>
    </contour>
  </outline>
</glyph>
<glyph name="Thorn" format="1">
  <advance width="1082"/>
  <unicode hex="00DE"/>
  <outline>
    <contour>
      <point x="140" y="1536" type="line"/>
      <point x="442" y="1536" type="line"/>
      <point x="442" y="1167" type="line"/>
      <point x="514" y="1166"/>
      <point x="659" y="1156"/>
      <point x="794" y="1125"/>
      <point x="911" y="1065"/>
      <point x="998" y="966"/>
      <point x="1048" y="819"/>
      <point x="1048" y="716" type="qcurve"/>
      <point x="1048" y="613"/>
      <point x="996" y="466"/>
      <point x="906" y="366"/>
      <point x="787" y="306"/>
      <point x="651" y="275"/>
      <point x="508" y="265"/>
      <point x="440" y="265" type="qcurve"/>
      <point x="440" y="-68" type="line"/>
      <point x="140" y="-92" type="line"/>
    </contour>
    <contour>
      <point x="493" y="488" type="line"/>
      <point x="545" y="488"/>
      <point x="638" y="507"/>
      <point x="708" y="558"/>
      <point x="749" y="648"/>
      <point x="749" y="718" type="qcurve"/>
      <point x="749" y="787"/>
      <point x="714" y="873"/>
      <point x="646" y="920"/>
      <point x="548" y="937"/>
      <point x="485" y="937" type="qcurve"/>
      <point x="442" y="937" type="line"/>
      <point x="442" y="488" type="line"/>
    </contour>
  </outline>
</glyph>
<glyph name="germandbls" format="1">
  <advance width="1170"/>
  <unicode hex="00DF"/>
  <outline>
    <contour>
      <point x="124" y="0" type="line"/>
      <point x="124" y="1056" type="line"/>
      <point x="124" y="1192"/>
      <point x="192" y="1386"/>
      <point x="305" y="1510"/>
      <point x="451" y="1567"/>
      <point x="529" y="1567" type="qcurve"/>
      <point x="637" y="1567"/>
      <point x="812" y="1505"/>
      <point x="934" y="1401"/>
      <point x="1000" y="1265"/>
      <point x="1000" y="1192" type="qcurve"/>
      <point x="1000" y="1104"/>
      <point x="901" y="930"/>
      <point x="793" y="858" type="qcurve"/>
      <point x="857" y="837"/>
      <point x="977" y="779"/>
      <point x="1070" y="690"/>
      <point x="1127" y="562"/>
      <point x="1127" y="471" type="qcurve"/>
      <point x="1127" y="381"/>
      <point x="1081" y="242"/>
      <point x="1001" y="140"/>
      <point x="890" y="71"/>
      <point x="759" y="27"/>
      <point x="614" y="5"/>
      <point x="540" y="2" type="qcurve"/>
      <point x="540" y="230" type="line"/>
      <point x="552" y="230" type="line"/>
      <point x="625" y="230"/>
      <point x="733" y="269"/>
      <point x="802" y="334"/>
      <point x="836" y="418"/>
      <point x="836" y="462" type="qcurve"/>
      <point x="836" y="510"/>
      <point x="798" y="604"/>
      <point x="725" y="677"/>
      <point x="619" y="723"/>
      <point x="551" y="723" type="qcurve"/>
      <point x="551" y="931" type="line"/>
      <point x="603" y="948"/>
      <point x="679" y="999"/>
      <point x="728" y="1060"/>
      <point x="751" y="1127"/>
      <point x="751" y="1160" type="qcurve"/>
      <point x="751" y="1196"/>
      <point x="724" y="1263"/>
      <point x="675" y="1314"/>
      <point x="604" y="1345"/>
      <point x="560" y="1345" type="qcurve"/>
      <point x="532" y="1345"/>
      <point x="480" y="1317"/>
      <point x="439" y="1260"/>
      <point x="414" y="1172"/>
      <point x="414" y="1111" type="qcurve"/>
      <point x="414" y="0" type="line"/>
    </contour>
  </outline>
</glyph>
<glyph name="agrave" format="1">
  <advance width="968"/>
  <unicode hex="00E0"/>
  <outline>
    <contour>
      <point x="56" y="327" type="curve" smooth="yes"/>
      <point x="56" y="123"/>
      <point x="160" y="-27"/>
      <point x="317" y="-27" type="curve" smooth="yes"/>
      <point x="416" y="-27"/>
      <point x="525" y="47"/>
      <point x="570" y="129" type="curve"/>
      <point x="602" y="-12" type="line"/>
      <point x="882" y="12" type="line"/>
      <point x="876" y="35"/>
      <point x="871" y="58"/>
      <point x="866" y="81" type="curve" smooth="yes"/>
      <point x="858" y="121"/>
      <point x="851" y="172"/>
      <point x="851" y="217" type="curve" smooth="yes"/>
      <point x="851" y="813" type="line" smooth="yes"/>
      <point x="851" y="1010"/>
      <point x="740" y="1167"/>
      <point x="480" y="1167" type="curve" smooth="yes"/>
      <point x="313" y="1167"/>
      <point x="125" y="1104"/>
      <point x="96" y="875" type="curve"/>
      <point x="376" y="826" type="line"/>
      <point x="384" y="888"/>
      <point x="410" y="956"/>
      <point x="480" y="956" type="curve" smooth="yes"/>
      <point x="564" y="956"/>
      <point x="563" y="846"/>
      <point x="563" y="740" type="curve"/>
      <point x="362" y="728"/>
      <point x="56" y="653"/>
    </contour>
    <contour>
      <point x="338" y="331" type="curve" smooth="yes"/>
      <point x="338" y="508"/>
      <point x="435" y="568"/>
      <point x="563" y="568" type="curve"/>
      <point x="563" y="247" type="line"/>
      <point x="551" y="234"/>
      <point x="539" y="223"/>
      <point x="527" y="213" type="curve" smooth="yes"/>
      <point x="506" y="196"/>
      <point x="479" y="179"/>
      <point x="452" y="179" type="curve" smooth="yes"/>
      <point x="373" y="179"/>
      <point x="338" y="240"/>
    </contour>
    <contour>
      <point x="743" y="1342" type="line"/>
      <point x="446" y="1789" type="line"/>
      <point x="219" y="1587" type="line"/>
      <point x="629" y="1241" type="line"/>
    </contour>
  </outline>
</glyph>
<glyph name="atilde" format="1">
  <advance width="968"/>
  <unicode hex="00E3"/>
  <outline>
    <contour>
      <point x="56" y="327" type="curve" smooth="yes"/>
      <point x="56" y="123"/>
      <point x="160" y="-27"/>
      <point x="317" y="-27" type="curve" smooth="yes"/>
      <point x="416" y="-27"/>
      <point x="525" y="47"/>
      <point x="570" y="129" type="curve"/>
      <point x="602" y="-12" type="line"/>
      <point x="882" y="12" type="line"/>
      <point x="876" y="35"/>
      <point x="871" y="58"/>
      <point x="866" y="81" type="curve" smooth="yes"/>
      <point x="858" y="121"/>
      <point x="851" y="172"/>
      <point x="851" y="217" type="curve" smooth="yes"/>
      <point x="851" y="813" type="line" smooth="yes"/>
      <point x="851" y="1010"/>
      <point x="740" y="1167"/>
      <point x="480" y="1167" type="curve" smooth="yes"/>
      <point x="313" y="1167"/>
      <point x="125" y="1104"/>
      <point x="96" y="875" type="curve"/>
      <point x="376" y="826" type="line"/>
      <point x="384" y="888"/>
      <point x="410" y="956"/>
      <point x="480" y="956" type="curve" smooth="yes"/>
      <point x="564" y="956"/>
      <point x="563" y="846"/>
      <point x="563" y="740" type="curve"/>
      <point x="362" y="728"/>
      <point x="56" y="653"/>
    </contour>
    <contour>
      <point x="338" y="331" type="curve" smooth="yes"/>
      <point x="338" y="508"/>
      <point x="435" y="568"/>
      <point x="563" y="568" type="curve"/>
      <point x="563" y="247" type="line"/>
      <point x="551" y="234"/>
      <point x="539" y="223"/>
      <point x="527" y="213" type="curve" smooth="yes"/>
      <point x="506" y="196"/>
      <point x="479" y="179"/>
      <point x="452" y="179" type="curve" smooth="yes"/>
      <point x="373" y="179"/>
      <point x="338" y="240"/>
    </contour>
    <contour>
      <point x="178" y="1231" type="line"/>
      <point x="195" y="1250"/>
      <point x="212" y="1266"/>
      <point x="231" y="1281" type="curve" smooth="yes"/>
      <point x="262" y="1306"/>
      <point x="304" y="1331"/>
      <point x="345" y="1331" type="curve" smooth="yes"/>
      <point x="459" y="1331"/>
      <point x="513" y="1230"/>
      <point x="609" y="1230" type="curve" smooth="yes"/>
      <point x="729" y="1230"/>
      <point x="800" y="1371"/>
      <point x="800" y="1375" type="curve"/>
      <point x="756" y="1537" type="line"/>
      <point x="746" y="1522"/>
      <point x="734" y="1509"/>
      <point x="720" y="1497" type="curve" smooth="yes"/>
      <point x="696" y="1477"/>
      <point x="658" y="1457"/>
      <point x="607" y="1457" type="curve" smooth="yes"/>
      <point x="522" y="1457"/>
      <point x="462" y="1537"/>
      <point x="356" y="1537" type="curve" smooth="yes"/>
      <point x="311" y="1537"/>
      <point x="263" y="1507"/>
      <point x="226" y="1476" type="curve" smooth="yes"/>
      <point x="204" y="1458"/>
      <point x="183" y="1438"/>
      <point x="163" y="1415" type="curve"/>
    </contour>
  </outline>
</glyph>
<glyph name="ae" format="1">
  <advance width="1457"/>
  <unicode hex="00E6"/>
  <outline>
    <contour>
      <point x="849" y="536" type="line"/>
      <point x="849" y="482"/>
      <point x="863" y="358"/>
      <point x="896" y="254"/>
      <point x="950" y="185"/>
      <point x="989" y="185" type="qcurve"/>
      <point x="1023" y="185"/>
      <point x="1079" y="239"/>
      <point x="1121" y="307"/>
      <point x="1146" y="367"/>
      <point x="1149" y="373" type="qcurve"/>
      <point x="1367" y="290" type="line"/>
      <point x="1347" y="220"/>
      <point x="1281" y="104"/>
      <point x="1187" y="20"/>
      <point x="1063" y="-27"/>
      <point x="984" y="-27" type="qcurve"/>
      <point x="897" y="-27"/>
      <point x="763" y="63"/>
      <point x="713" y="144" type="qcurve"/>
      <point x="687" y="94"/>
      <point x="608" y="28"/>
      <point x="515" y="-11"/>
      <point x="414" y="-27"/>
      <point x="365" y="-27" type="qcurve"/>
      <point x="295" y="-27"/>
      <point x="180" y="26"/>
      <point x="99" y="121"/>
      <point x="54" y="250"/>
      <point x="54" y="327" type="qcurve"/>
      <point x="54" y="409"/>
      <point x="101" y="532"/>
      <point x="180" y="621"/>
      <point x="284" y="681"/>
      <point x="397" y="718"/>
      <point x="511" y="737"/>
      <point x="561" y="740" type="qcurve"/>
      <point x="561" y="780"/>
      <point x="559" y="857"/>
      <point x="543" y="918"/>
      <point x="509" y="956"/>
      <point x="478" y="956" type="qcurve"/>
      <point x="452" y="956"/>
      <point x="415" y="933"/>
      <point x="390" y="896"/>
      <point x="377" y="849"/>
      <point x="374" y="826" type="qcurve"/>
      <point x="94" y="875" type="line"/>
      <point x="105" y="961"/>
      <point x="181" y="1074"/>
      <point x="288" y="1140"/>
      <point x="415" y="1167"/>
      <point x="478" y="1167" type="qcurve"/>
      <point x="561" y="1167"/>
      <point x="681" y="1095"/>
      <point x="723" y="1032" type="qcurve"/>
      <point x="777" y="1095"/>
      <point x="911" y="1167"/>
      <point x="994" y="1167" type="qcurve"/>
      <point x="1097" y="1167"/>
      <point x="1251" y="1080"/>
      <point x="1355" y="922"/>
      <point x="1407" y="702"/>
      <point x="1407" y="570" type="qcurve"/>
      <point x="1403" y="556" type="line"/>
      <point x="1401" y="550"/>
      <point x="1399" y="539"/>
      <point x="1399" y="536" type="qcurve"/>
    </contour>
    <contour>
      <point x="336" y="331" type="qcurve"/>
      <point x="336" y="263"/>
      <point x="391" y="179"/>
      <point x="450" y="179" type="qcurve"/>
      <point x="474" y="179"/>
      <point x="515" y="216"/>
      <point x="545" y="274"/>
      <point x="561" y="347"/>
      <point x="561" y="382" type="qcurve"/>
      <point x="561" y="568" type="line"/>
      <point x="513" y="568"/>
      <point x="431" y="544"/>
      <point x="370" y="488"/>
      <point x="336" y="397"/>
    </contour>
    <contour>
      <point x="1124" y="702" type="line"/>
      <point x="1124" y="759"/>
      <point x="1109" y="857"/>
      <point x="1077" y="928"/>
      <point x="1026" y="969"/>
      <point x="989" y="969" type="qcurve"/>
      <point x="963" y="969"/>
      <point x="914" y="930"/>
      <point x="875" y="862"/>
      <point x="850" y="768"/>
      <point x="849" y="713" type="qcurve"/>
      <point x="849" y="702" type="line"/>
    </contour>
  </outline>
</glyph>
<glyph name="ccedilla" format="1">
  <advance width="915"/>
  <unicode hex="00E7"/>
  <outline>
    <contour>
      <point x="608" y="432" type="line"/>
      <point x="607" y="392"/>
      <point x="602" y="356"/>
      <point x="593" y="324" type="curve" smooth="yes"/>
      <point x="577" y="271"/>
      <point x="549" y="216"/>
      <point x="493" y="216" type="curve" smooth="yes"/>
      <point x="358" y="216"/>
      <point x="358" y="480"/>
      <point x="358" y="576" type="curve" smooth="yes"/>
      <point x="358" y="672"/>
      <point x="357" y="939"/>
      <point x="484" y="939" type="curve" smooth="yes"/>
      <point x="566" y="939"/>
      <point x="574" y="808"/>
      <point x="582" y="742" type="curve"/>
      <point x="855" y="754" type="line"/>
      <point x="847" y="997"/>
      <point x="699" y="1167"/>
      <point x="487" y="1167" type="curve" smooth="yes"/>
      <point x="196" y="1167"/>
      <point x="69" y="861"/>
      <point x="69" y="566" type="curve" smooth="yes"/>
      <point x="69" y="261"/>
      <point x="206" y="-27"/>
      <point x="481" y="-27" type="curve" smooth="yes"/>
      <point x="740" y="-27"/>
      <point x="816" y="152"/>
      <point x="848" y="405" type="curve"/>
    </contour>
    <contour>
      <point x="354" y="-171" type="line"/>
      <point x="489" y="-171"/>
      <point x="546" y="-236"/>
      <point x="546" y="-289" type="curve" smooth="yes"/>
      <point x="546" y="-329"/>
      <point x="519" y="-363"/>
      <point x="450" y="-363" type="curve" smooth="yes"/>
      <point x="411" y="-363"/>
      <point x="365" y="-354"/>
      <point x="306" y="-327" type="curve"/>
      <point x="306" y="-492" type="line"/>
      <point x="362" y="-531"/>
      <point x="449" y="-556"/>
      <point x="536" y="-556" type="curve" smooth="yes"/>
      <point x="648" y="-556"/>
      <point x="752" y="-498"/>
      <point x="752" y="-339" type="curve" smooth="yes"/>
      <point x="752" y="-330"/>
      <point x="759" y="-144"/>
      <point x="516" y="-76" type="curve"/>
      <point x="546" y="48" type="line"/>
      <point x="394" y="48" type="line"/>
    </contour>
  </outline>
</glyph>
<glyph name="ecircumflex" format="1">
  <advance width="965"/>
  <unicode hex="00EA"/>
  <outline>
    <contour>
      <point x="907" y="536" type="line"/>
      <point x="907" y="540"/>
      <point x="908" y="548"/>
      <point x="911" y="556" type="curve"/>
      <point x="915" y="570" type="line"/>
      <point x="915" y="923"/>
      <point x="776" y="1167"/>
      <point x="502" y="1167" type="curve" smooth="yes"/>
      <point x="214" y="1167"/>
      <point x="70" y="923"/>
      <point x="70" y="570" type="curve" smooth="yes"/>
      <point x="70" y="220"/>
      <point x="211" y="-27"/>
      <point x="492" y="-27" type="curve" smooth="yes"/>
      <point x="702" y="-27"/>
      <point x="822" y="104"/>
      <point x="875" y="290" type="curve"/>
      <point x="657" y="373" type="line"/>
      <point x="649" y="357"/>
      <point x="587" y="185"/>
      <point x="497" y="185" type="curve" smooth="yes"/>
      <point x="392" y="185"/>
      <point x="357" y="391"/>
      <point x="357" y="536" type="curve"/>
    </contour>
    <contour>
      <point x="357" y="702" type="line"/>
      <point x="357" y="854"/>
      <point x="427" y="969"/>
      <point x="497" y="969" type="curve" smooth="yes"/>
      <point x="595" y="969"/>
      <point x="632" y="854"/>
      <point x="632" y="702" type="curve"/>
    </contour>
    <contour>
      <point x="354" y="1248" type="line"/>
      <point x="470" y="1538" type="line"/>
      <point x="566" y="1248" type="line"/>
      <point x="816" y="1248" type="line"/>
      <point x="586" y="1728" type="line"/>
      <point x="384" y="1728" type="line"/>
      <point x="144" y="1248" type="line"/>
    </contour>
  </outline>
</glyph>
<glyph name="edieresis" format="1">
  <advance width="965"/>
  <unicode hex="00EB"/>
  <outline>
    <contour>
      <point x="907" y="536" type="line"/>
      <point x="907" y="540"/>
      <point x="908" y="548"/>
      <point x="911" y="556" type="curve"/>
      <point x="915" y="570" type="line"/>
      <point x="915" y="923"/>
      <point x="776" y="1167"/>
      <point x="502" y="1167" type="curve" smooth="yes"/>
      <point x="214" y="1167"/>
      <point x="70" y="923"/>
      <point x="70" y="570" type="curve" smooth="yes"/>
      <point x="70" y="220"/>
      <point x="211" y="-27"/>
      <point x="492" y="-27" type="curve" smooth="yes"/>
      <point x="702" y="-27"/>
      <point x="822" y="104"/>
      <point x="875" y="290" type="curve"/>
      <point x="657" y="373" type="line"/>
      <point x="649" y="357"/>
      <point x="587" y="185"/>
      <point x="497" y="185" type="curve" smooth="yes"/>
      <point x="392" y="185"/>
      <point x="357" y="391"/>
      <point x="357" y="536" type="curve"/>
    </contour>
    <contour>
      <point x="357" y="702" type="line"/>
      <point x="357" y="854"/>
      <point x="427" y="969"/>
      <point x="497" y="969" type="curve" smooth="yes"/>
      <point x="595" y="969"/>
      <point x="632" y="854"/>
      <point x="632" y="702" type="curve"/>
    </contour>
    <contour>
      <point x="97" y="1536" type="line"/>
      <point x="97" y="1248" type="line"/>
      <point x="385" y="1248" type="line"/>
      <point x="385" y="1536" type="line"/>
    </contour>
    <contour>
      <point x="577" y="1536" type="line"/>
      <point x="577" y="1248" type="line"/>
      <point x="865" y="1248" type="line"/>
      <point x="865" y="1536" type="line"/>
    </contour>
  </outline>
</glyph>
<glyph name="igrave" format="1">
  <advance width="536"/>
  <unicode hex="00EC"/>
  <outline>
    <contour>
      <point x="124" y="-12" type="line"/>
      <point x="412" y="12" type="line"/>
      <point x="412" y="1152" type="line"/>
      <point x="124" y="1128" type="line"/>
    </contour>
    <contour>
      <point x="527" y="1342" type="line"/>
      <point x="230" y="1789" type="line"/>
      <point x="3" y="1587" type="line"/>
      <point x="413" y="1241" type="line"/>
    </contour>
  </outline>
</glyph>
<glyph name="iacute" format="1">
  <advance width="536"/>
  <unicode hex="00ED"/>
  <outline>
    <contour>
      <point x="124" y="-12" type="line"/>
      <point x="412" y="12" type="line"/>
      <point x="412" y="1152" type="line"/>
      <point x="124" y="1128" type="line"/>
    </contour>
    <contour>
      <point x="117" y="1245" type="line"/>
      <point x="528" y="1591" type="line"/>
      <point x="301" y="1793" type="line"/>
      <point x="4" y="1346" type="line"/>
    </contour>
  </outline>
</glyph>
<glyph name="icircumflex" format="1">
  <advance width="536"/>
  <unicode hex="00EE"/>
  <outline>
    <contour>
      <point x="124" y="-12" type="line"/>
      <point x="412" y="12" type="line"/>
      <point x="412" y="1152" type="line"/>
      <point x="124" y="1128" type="line"/>
    </contour>
    <contour>
      <point x="140" y="1248" type="line"/>
      <point x="256" y="1538" type="line"/>
      <point x="352" y="1248" type="line"/>
      <point x="602" y="1248" type="line"/>
      <point x="372" y="1728" type="line"/>
      <point x="170" y="1728" type="line"/>
      <point x="-70" y="1248" type="line"/>
    </contour>
  </outline>
</glyph>
<glyph name="idieresis" format="1">
  <advance width="535"/>
  <unicode hex="00EF"/>
  <outline>
    <contour>
      <point x="124" y="-12" type="line"/>
      <point x="412" y="12" type="line"/>
      <point x="412" y="1152" type="line"/>
      <point x="124" y="1128" type="line"/>
    </contour>
    <contour>
      <point x="-118" y="1536" type="line"/>
      <point x="-118" y="1248" type="line"/>
      <point x="170" y="1248" type="line"/>
      <point x="170" y="1536" type="line"/>
    </contour>
    <contour>
      <point x="362" y="1536" type="line"/>
      <point x="362" y="1248" type="line"/>
      <point x="650" y="1248" type="line"/>
      <point x="650" y="1536" type="line"/>
    </contour>
  </outline>
</glyph>
<glyph name="eth" format="1">
  <advance width="1006"/>
  <unicode hex="00F0"/>
  <outline>
    <contour>
      <point x="916" y="774" type="curve" smooth="yes"/>
      <point x="916" y="1108"/>
      <point x="787" y="1568"/>
      <point x="448" y="1568" type="curve" smooth="yes"/>
      <point x="268" y="1568"/>
      <point x="169" y="1541"/>
      <point x="-8" y="1393" type="curve"/>
      <point x="100" y="1207" type="line"/>
      <point x="156" y="1258"/>
      <point x="290" y="1346"/>
      <point x="397" y="1346" type="curve" smooth="yes"/>
      <point x="607" y="1346"/>
      <point x="619" y="1024"/>
      <point x="623" y="856" type="curve"/>
      <point x="560" y="903"/>
      <point x="470" y="936"/>
      <point x="387" y="936" type="curve" smooth="yes"/>
      <point x="175" y="936"/>
      <point x="43" y="702"/>
      <point x="43" y="452" type="curve" smooth="yes"/>
      <point x="43" y="206"/>
      <point x="217" y="-32"/>
      <point x="471" y="-32" type="curve" smooth="yes"/>
      <point x="846" y="-32"/>
      <point x="916" y="397"/>
    </contour>
    <contour>
      <point x="623" y="608" type="curve" smooth="yes"/>
      <point x="623" y="482"/>
      <point x="633" y="230"/>
      <point x="484" y="230" type="curve" smooth="yes"/>
      <point x="361" y="230"/>
      <point x="332" y="359"/>
      <point x="332" y="447" type="curve" smooth="yes"/>
      <point x="332" y="565"/>
      <point x="371" y="692"/>
      <point x="488" y="692" type="curve" smooth="yes"/>
      <point x="524" y="692"/>
      <point x="557" y="681"/>
      <point x="581" y="670" type="curve"/>
      <point x="621" y="649" type="line"/>
      <point x="621" y="644"/>
      <point x="621" y="638"/>
      <point x="622" y="633" type="curve"/>
      <point x="622" y="624"/>
      <point x="623" y="615"/>
    </contour>
    <contour>
      <point x="393" y="1021" type="line"/>
      <point x="1007" y="1210" type="line"/>
      <point x="943" y="1391" type="line"/>
      <point x="329" y="1202" type="line"/>
    </contour>
  </outline>
</glyph>
<glyph name="ntilde" format="1">
  <advance width="1104"/>
  <unicode hex="00F1"/>
  <outline>
    <contour>
      <point x="700" y="-12" type="line"/>
      <point x="988" y="12" type="line"/>
      <point x="988" y="876" type="line" smooth="yes"/>
      <point x="988" y="1055"/>
      <point x="885" y="1167"/>
      <point x="742" y="1167" type="curve" smooth="yes"/>
      <point x="643" y="1167"/>
      <point x="527" y="1105"/>
      <point x="412" y="1005" type="curve"/>
      <point x="412" y="1152" type="line"/>
      <point x="124" y="1128" type="line"/>
      <point x="124" y="-12" type="line"/>
      <point x="412" y="12" type="line"/>
      <point x="412" y="842" type="line"/>
      <point x="479" y="882"/>
      <point x="544" y="922"/>
      <point x="595" y="922" type="curve" smooth="yes"/>
      <point x="658" y="922"/>
      <point x="700" y="882"/>
      <point x="700" y="769" type="curve" smooth="yes"/>
    </contour>
    <contour>
      <point x="243" y="1231" type="line"/>
      <point x="260" y="1250"/>
      <point x="277" y="1266"/>
      <point x="296" y="1281" type="curve" smooth="yes"/>
      <point x="327" y="1306"/>
      <point x="369" y="1331"/>
      <point x="410" y="1331" type="curve" smooth="yes"/>
      <point x="524" y="1331"/>
      <point x="578" y="1230"/>
      <point x="674" y="1230" type="curve" smooth="yes"/>
      <point x="794" y="1230"/>
      <point x="865" y="1371"/>
      <point x="865" y="1375" type="curve"/>
      <point x="821" y="1537" type="line"/>
      <point x="811" y="1522"/>
      <point x="799" y="1509"/>
      <point x="785" y="1497" type="curve" smooth="yes"/>
      <point x="761" y="1477"/>
      <point x="723" y="1457"/>
      <point x="672" y="1457" type="curve" smooth="yes"/>
      <point x="587" y="1457"/>
      <point x="527" y="1537"/>
      <point x="421" y="1537" type="curve" smooth="yes"/>
      <point x="376" y="1537"/>
      <point x="328" y="1507"/>
      <point x="291" y="1476" type="curve" smooth="yes"/>
      <point x="269" y="1458"/>
      <point x="248" y="1438"/>
      <point x="228" y="1415" type="curve"/>
    </contour>
  </outline>
</glyph>
<glyph name="ograve" format="1">
  <advance width="1003"/>
  <unicode hex="00F2"/>
  <outline>
    <contour>
      <point x="502" y="-27" type="curve" smooth="yes"/>
      <point x="783" y="-27"/>
      <point x="934" y="221"/>
      <point x="934" y="577" type="curve" smooth="yes"/>
      <point x="934" y="922"/>
      <point x="783" y="1167"/>
      <point x="502" y="1167" type="curve" smooth="yes"/>
      <point x="214" y="1167"/>
      <point x="70" y="922"/>
      <point x="70" y="577" type="curve" smooth="yes"/>
      <point x="70" y="221"/>
      <point x="214" y="-27"/>
    </contour>
    <contour>
      <point x="500" y="187" type="curve" smooth="yes"/>
      <point x="357" y="187"/>
      <point x="358" y="434"/>
      <point x="358" y="577" type="curve" smooth="yes"/>
      <point x="358" y="716"/>
      <point x="357" y="964"/>
      <point x="501" y="964" type="curve" smooth="yes"/>
      <point x="642" y="964"/>
      <point x="645" y="716"/>
      <point x="645" y="577" type="curve" smooth="yes"/>
      <point x="645" y="434"/>
      <point x="642" y="187"/>
    </contour>
    <contour>
      <point x="763" y="1342" type="line"/>
      <point x="466" y="1789" type="line"/>
      <point x="239" y="1587" type="line"/>
      <point x="649" y="1241" type="line"/>
    </contour>
  </outline>
</glyph>
<glyph name="oacute" format="1">
  <advance width="1003"/>
  <unicode hex="00F3"/>
  <outline>
    <contour>
      <point x="502" y="-27" type="curve" smooth="yes"/>
      <point x="783" y="-27"/>
      <point x="934" y="221"/>
      <point x="934" y="577" type="curve" smooth="yes"/>
      <point x="934" y="922"/>
      <point x="783" y="1167"/>
      <point x="502" y="1167" type="curve" smooth="yes"/>
      <point x="214" y="1167"/>
      <point x="70" y="922"/>
      <point x="70" y="577" type="curve" smooth="yes"/>
      <point x="70" y="221"/>
      <point x="214" y="-27"/>
    </contour>
    <contour>
      <point x="500" y="187" type="curve" smooth="yes"/>
      <point x="357" y="187"/>
      <point x="358" y="434"/>
      <point x="358" y="577" type="curve" smooth="yes"/>
      <point x="358" y="716"/>
      <point x="357" y="964"/>
      <point x="501" y="964" type="curve" smooth="yes"/>
      <point x="642" y="964"/>
      <point x="645" y="716"/>
      <point x="645" y="577" type="curve" smooth="yes"/>
      <point x="645" y="434"/>
      <point x="642" y="187"/>
    </contour>
    <contour>
      <point x="352" y="1245" type="line"/>
      <point x="763" y="1591" type="line"/>
      <point x="536" y="1793" type="line"/>
      <point x="239" y="1346" type="line"/>
    </contour>
  </outline>
</glyph>
<glyph name="ocircumflex" format="1">
  <advance width="1003"/>
  <unicode hex="00F4"/>
  <outline>
    <contour>
      <point x="502" y="-27" type="curve" smooth="yes"/>
      <point x="783" y="-27"/>
      <point x="934" y="221"/>
      <point x="934" y="577" type="curve" smooth="yes"/>
      <point x="934" y="922"/>
      <point x="783" y="1167"/>
      <point x="502" y="1167" type="curve" smooth="yes"/>
      <point x="214" y="1167"/>
      <point x="70" y="922"/>
      <point x="70" y="577" type="curve" smooth="yes"/>
      <point x="70" y="221"/>
      <point x="214" y="-27"/>
    </contour>
    <contour>
      <point x="500" y="187" type="curve" smooth="yes"/>
      <point x="357" y="187"/>
      <point x="358" y="434"/>
      <point x="358" y="577" type="curve" smooth="yes"/>
      <point x="358" y="716"/>
      <point x="357" y="964"/>
      <point x="501" y="964" type="curve" smooth="yes"/>
      <point x="642" y="964"/>
      <point x="645" y="716"/>
      <point x="645" y="577" type="curve" smooth="yes"/>
      <point x="645" y="434"/>
      <point x="642" y="187"/>
    </contour>
    <contour>
      <point x="375" y="1248" type="line"/>
      <point x="491" y="1538" type="line"/>
      <point x="587" y="1248" type="line"/>
      <point x="837" y="1248" type="line"/>
      <point x="607" y="1728" type="line"/>
      <point x="405" y="1728" type="line"/>
      <point x="165" y="1248" type="line"/>
    </contour>
  </outline>
</glyph>
<glyph name="otilde" format="1">
  <advance width="1003"/>
  <unicode hex="00F5"/>
  <outline>
    <contour>
      <point x="502" y="-27" type="curve" smooth="yes"/>
      <point x="783" y="-27"/>
      <point x="934" y="221"/>
      <point x="934" y="577" type="curve" smooth="yes"/>
      <point x="934" y="922"/>
      <point x="783" y="1167"/>
      <point x="502" y="1167" type="curve" smooth="yes"/>
      <point x="214" y="1167"/>
      <point x="70" y="922"/>
      <point x="70" y="577" type="curve" smooth="yes"/>
      <point x="70" y="221"/>
      <point x="214" y="-27"/>
    </contour>
    <contour>
      <point x="500" y="187" type="curve" smooth="yes"/>
      <point x="357" y="187"/>
      <point x="358" y="434"/>
      <point x="358" y="577" type="curve" smooth="yes"/>
      <point x="358" y="716"/>
      <point x="357" y="964"/>
      <point x="501" y="964" type="curve" smooth="yes"/>
      <point x="642" y="964"/>
      <point x="645" y="716"/>
      <point x="645" y="577" type="curve" smooth="yes"/>
      <point x="645" y="434"/>
      <point x="642" y="187"/>
    </contour>
    <contour>
      <point x="197" y="1231" type="line"/>
      <point x="214" y="1250"/>
      <point x="231" y="1266"/>
      <point x="250" y="1281" type="curve" smooth="yes"/>
      <point x="281" y="1306"/>
      <point x="323" y="1331"/>
      <point x="364" y="1331" type="curve" smooth="yes"/>
      <point x="478" y="1331"/>
      <point x="532" y="1230"/>
      <point x="628" y="1230" type="curve" smooth="yes"/>
      <point x="748" y="1230"/>
      <point x="819" y="1371"/>
      <point x="819" y="1375" type="curve"/>
      <point x="775" y="1537" type="line"/>
      <point x="765" y="1522"/>
      <point x="753" y="1509"/>
      <point x="739" y="1497" type="curve" smooth="yes"/>
      <point x="715" y="1477"/>
      <point x="677" y="1457"/>
      <point x="626" y="1457" type="curve" smooth="yes"/>
      <point x="541" y="1457"/>
      <point x="481" y="1537"/>
      <point x="375" y="1537" type="curve" smooth="yes"/>
      <point x="330" y="1537"/>
      <point x="282" y="1507"/>
      <point x="245" y="1476" type="curve" smooth="yes"/>
      <point x="223" y="1458"/>
      <point x="202" y="1438"/>
      <point x="182" y="1415" type="curve"/>
    </contour>
  </outline>
</glyph>
<glyph name="odieresis" format="1">
  <advance width="1003"/>
  <unicode hex="00F6"/>
  <outline>
    <contour>
      <point x="502" y="-27" type="curve" smooth="yes"/>
      <point x="783" y="-27"/>
      <point x="934" y="221"/>
      <point x="934" y="577" type="curve" smooth="yes"/>
      <point x="934" y="922"/>
      <point x="783" y="1167"/>
      <point x="502" y="1167" type="curve" smooth="yes"/>
      <point x="214" y="1167"/>
      <point x="70" y="922"/>
      <point x="70" y="577" type="curve" smooth="yes"/>
      <point x="70" y="221"/>
      <point x="214" y="-27"/>
    </contour>
    <contour>
      <point x="500" y="187" type="curve" smooth="yes"/>
      <point x="357" y="187"/>
      <point x="358" y="434"/>
      <point x="358" y="577" type="curve" smooth="yes"/>
      <point x="358" y="716"/>
      <point x="357" y="964"/>
      <point x="501" y="964" type="curve" smooth="yes"/>
      <point x="642" y="964"/>
      <point x="645" y="716"/>
      <point x="645" y="577" type="curve" smooth="yes"/>
      <point x="645" y="434"/>
      <point x="642" y="187"/>
    </contour>
    <contour>
      <point x="118" y="1536" type="line"/>
      <point x="118" y="1248" type="line"/>
      <point x="406" y="1248" type="line"/>
      <point x="406" y="1536" type="line"/>
    </contour>
    <contour>
      <point x="598" y="1536" type="line"/>
      <point x="598" y="1248" type="line"/>
      <point x="886" y="1248" type="line"/>
      <point x="886" y="1536" type="line"/>
    </contour>
  </outline>
</glyph>
